<?xml version="1.0" encoding="utf-8"?>
<!-- Generator: Adobe Illustrator 23.0.1, SVG Export Plug-In . SVG Version: 6.00 Build 0)  -->
<svg version="1.1" id="Layer_1" xmlns="http://www.w3.org/2000/svg" xmlns:xlink="http://www.w3.org/1999/xlink" x="0px" y="0px"
	 viewBox="0 0 512 512" style="enable-background:new 0 0 512 512;" xml:space="preserve">
<style type="text/css">
	.st0{fill-rule:evenodd;clip-rule:evenodd;fill:#C3C3C3;stroke:#C3C3C3;stroke-width:14;stroke-miterlimit:10;}
</style>
<path id="Shape" class="st0" d="M132.1,304.4c2.6-0.8,5.5-0.4,7.8,1c20,11.9,42.9,18.2,66.2,18.1c71.6,0,129.7-58,129.7-129.7
	s-58-129.7-129.7-129.7S76.5,122.2,76.5,193.9c0,23.3,6.2,46.2,18.1,66.2c1.4,2.4,1.8,5.2,1,7.8L81,319L132.1,304.4z M349.4,150.4
	c62.5,18.9,106.2,76.7,106.2,143.3c0,25.4-6.4,50.4-18.8,72.6l18.4,64.3c2.2,7.5-4.8,14.5-12.4,12.3l-64.3-18.4
	c-72.3,40.1-163.5,13.9-203.6-58.4c-5.1-9.2-9.2-18.9-12.3-29c-10.1-3.1-19.9-7.2-29.1-12.4l-64.3,18.4c-5.3,1.5-10.8-1.6-12.4-6.9
	c-0.5-1.8-0.5-3.7,0-5.5l18.4-64.3c-12.4-22.2-18.8-47.2-18.8-72.6c0.1-82.6,67.1-149.7,149.7-149.7
	C273.7,44.2,330.8,88.9,349.4,150.4L349.4,150.4z M354.4,173.3c0.9,6.8,1.4,13.7,1.4,20.6c0,82.6-67,149.6-149.6,149.6
	c-6.9,0-13.7-0.5-20.6-1.4c26.8,66.5,102.5,98.6,168.9,71.8c6.1-2.5,12-5.4,17.6-8.7c2.4-1.4,5.2-1.8,7.8-1l51.1,14.6l-14.6-51.1
	c-0.8-2.6-0.4-5.5,1-7.8C454,298.2,433.7,218.6,372,182C366.4,178.7,360.5,175.8,354.4,173.3L354.4,173.3L354.4,173.3z"/>
</svg>
