<?xml version="1.0" encoding="utf-8"?>
<!-- Generator: Adobe Illustrator 23.0.1, SVG Export Plug-In . SVG Version: 6.00 Build 0)  -->
<svg version="1.1" id="Layer_1" xmlns="http://www.w3.org/2000/svg" xmlns:xlink="http://www.w3.org/1999/xlink" x="0px" y="0px"
	 viewBox="0 0 153 155.9" style="enable-background:new 0 0 153 155.9;" xml:space="preserve">
<style type="text/css">
	.st0{fill:#FFFFFF;}
</style>
<path class="st0" d="M402,349.8c0-75.1,0-149.9,0-224.8c74.9,0,149.9,0,224.9,0c0,74.8,0,149.8,0,224.8
	C552.1,349.8,477.1,349.8,402,349.8z M477.6,256.4c-4.8,0.4-8.7,0.6-12.6,1c-15,1.4-29.7,3.9-42.8,12.2
	c-25.7,16.4-25.1,51.2,1.6,65.4c28.5,15.1,58.5,15.8,87.8,3.3c25.3-10.8,33.1-30.3,27.9-53.7c-2.2-10-9-17.4-16.4-23.9
	c-7-6.2-14.6-11.7-21.3-18.1c-8.2-7.8-8-15.3,0-23.3c4.6-4.6,9.4-9,14.1-13.4c17-16.1,12.4-46.3-1.8-58.6c-1.3-1.1-2.4-2.4-4.4-4.6
	c6.7-0.7,12.6-0.1,17.2-2.3c4.7-2.1,8.1-6.9,12.1-10.6c-0.3-0.4-0.7-0.9-1-1.3c-1.6,0-3.3-0.1-4.9,0c-7.9,0.5-15.9,1.4-23.8,1.4
	c-13.1,0.1-26.3-0.7-39.4-0.5c-11.7,0.2-22.6,3.7-32.3,10.5c-24.4,17.1-26.5,54.7-3.9,73.9c9.1,7.7,20.2,10.5,31.9,11.7
	c6.5,0.7,6.6,0.8,5.2,6.9c-1.6,7.2-0.9,13.9,4.2,19.7C475.9,253,476.4,254.3,477.6,256.4z M624.9,162.2c-7.9-0.3-15.6-0.8-23.4-0.8
	c-4.7,0-6.2-1.7-6-6.2c0.3-6.2-0.1-12.3,0.1-18.5c0.1-3.5-1.3-4.9-4.7-4.6c-1,0.1-2,0.1-3,0c-4-0.4-5.8,1-5.5,5.3
	c0.3,5.6,0.1,11.3,0.1,17c0,6.8-0.1,6.9-7.1,6.9c-5.5,0-11,0.3-16.5-0.1c-4.5-0.3-6.1,1.5-5.5,5.8c0.1,0.7,0.1,1.3,0,2
	c-0.5,4,1,5.7,5.3,5.5c6.1-0.3,12.3-0.1,18.5-0.1c5.9,0,7.2,1.7,6.7,7.6c-0.5,5.8-0.5,11.6-0.6,17.4c-0.1,5.6,4.1,4,7.1,4.3
	c3.2,0.3,5.5-0.4,5.3-4.5c-0.2-6.2,0.2-12.3-0.1-18.5c-0.3-5.2,1.7-6.8,6.7-6.4c4.5,0.3,9,0.1,13.5,0.1
	C626.7,174.4,626.7,174.4,624.9,162.2z"/>
<path class="st0" d="M54.3,87.1c-0.7-1.1-0.9-1.8-1.4-2.3c-2.7-3.1-3.1-6.7-2.2-10.6c0.8-3.3,0.7-3.4-2.8-3.7
	c-6.3-0.6-12.3-2.1-17.2-6.3c-12.2-10.3-11.1-30.6,2.1-39.9c5.2-3.7,11.1-5.6,17.4-5.7c7.1-0.1,14.2,0.3,21.3,0.3
	c4.3,0,8.6-0.5,12.8-0.8c0.9-0.1,1.8,0,2.6,0c0.2,0.2,0.4,0.5,0.5,0.7c-2.1,2-4,4.6-6.5,5.7c-2.5,1.1-5.7,0.8-9.3,1.2
	c1.1,1.2,1.7,1.9,2.4,2.5c7.7,6.6,10.1,22.9,1,31.6c-2.5,2.4-5.1,4.8-7.6,7.3c-4.3,4.3-4.5,8.4,0,12.6c3.6,3.5,7.7,6.4,11.5,9.8
	c4,3.5,7.7,7.5,8.9,12.9c2.8,12.6-1.4,23.1-15.1,29c-15.8,6.7-32,6.4-47.4-1.8c-14.4-7.6-14.8-26.5-0.9-35.3c7-4.5,15-5.8,23.1-6.6
	C49.7,87.5,51.8,87.3,54.3,87.1z M51.8,130.2c6,0,11.8-1.1,17.1-4.1c9.9-5.6,12-18.9,4.2-27.2c-10.4-11.1-31-11.1-41.5,0
	c-6.4,6.8-6.8,15.2-1,22.4C36,127.9,43.4,130.2,51.8,130.2z M33.8,39c0.5,9.8,2.9,17.2,9.3,22.7c4.7,4,10.2,6.2,16.5,3.9
	c6-2.2,8.4-7.2,8.8-13.1c0.6-10.5-2.5-19.8-11-26.5c-7.5-5.8-16.6-3.7-20.9,4.7C34.9,33.8,34.3,37.2,33.8,39z"/>
<path class="st0" d="M133.8,36.3c1,6.6,1,6.6-5,6.6c-2.4,0-4.9,0.1-7.3,0c-2.7-0.2-3.8,0.7-3.6,3.5c0.2,3.3,0,6.7,0.1,10
	c0.1,2.2-1.1,2.6-2.9,2.4c-1.7-0.1-3.9,0.7-3.8-2.3c0.1-3.1,0.1-6.3,0.3-9.4c0.3-3.2-0.4-4.1-3.6-4.1c-3.3,0-6.7-0.1-10,0
	c-2.3,0.1-3.1-0.8-2.9-3c0-0.4,0-0.7,0-1.1c-0.3-2.3,0.5-3.3,3-3.1c3,0.2,5.9,0.1,8.9,0c3.8,0,3.8-0.1,3.8-3.7c0-3.1,0.1-6.1,0-9.2
	c-0.1-2.3,0.8-3.1,3-2.9c0.5,0.1,1.1,0.1,1.6,0c1.8-0.2,2.6,0.6,2.5,2.5c-0.1,3.3,0.1,6.7-0.1,10c-0.1,2.4,0.7,3.4,3.2,3.3
	C125.4,35.9,129.6,36.1,133.8,36.3z"/>
</svg>
