<?xml version="1.0" encoding="utf-8"?>
<!-- Generator: Adobe Illustrator 23.0.1, SVG Export Plug-In . SVG Version: 6.00 Build 0)  -->
<svg version="1.1" id="Layer_1" xmlns="http://www.w3.org/2000/svg" xmlns:xlink="http://www.w3.org/1999/xlink" x="0px" y="0px"
	 viewBox="0 0 210 110" style="enable-background:new 0 0 210 110;" xml:space="preserve">
<style type="text/css">
	.st0{filter:url(#Adobe_OpacityMaskFilter);}
	.st1{fill-rule:evenodd;clip-rule:evenodd;fill:#FFFFFF;}
	.st2{mask:url(#mask-2_1_);fill-rule:evenodd;clip-rule:evenodd;fill:url(#Fill-18_1_);}
	.st3{filter:url(#Adobe_OpacityMaskFilter_1_);}
	.st4{mask:url(#mask-5_1_);fill-rule:evenodd;clip-rule:evenodd;fill:url(#Fill-21_1_);}
	.st5{clip-path:url(#SVGID_2_);fill:url(#SVGID_3_);}
	.st6{clip-path:url(#SVGID_5_);fill-rule:evenodd;clip-rule:evenodd;fill:#FFFFFF;}
	.st7{clip-path:url(#SVGID_5_);fill-rule:evenodd;clip-rule:evenodd;fill:#00547F;}
	.st8{clip-path:url(#SVGID_5_);fill-rule:evenodd;clip-rule:evenodd;fill:#0094CE;}
	.st9{clip-path:url(#SVGID_5_);fill-rule:evenodd;clip-rule:evenodd;fill:#EC1C24;}
	.st10{clip-path:url(#SVGID_5_);fill-rule:evenodd;clip-rule:evenodd;fill:#F48120;}
	.st11{clip-path:url(#SVGID_5_);fill-rule:evenodd;clip-rule:evenodd;fill:#FFCA05;}
	.st12{clip-path:url(#SVGID_8_);fill:url(#SVGID_9_);}
	.st13{clip-path:url(#SVGID_11_);fill-rule:evenodd;clip-rule:evenodd;fill:#FFFFFF;}
	.st14{clip-path:url(#SVGID_11_);fill:#FFFFFF;}
</style>
<title>logo</title>
<desc>Created with Sketch.</desc>
<g id="assests">
	<g id="logo">
		<g id="Group-24" transform="translate(4.000000, 7.000000)">
			<g id="Group-20">
				<g id="Clip-19">
				</g>
				<defs>
					<filter id="Adobe_OpacityMaskFilter" filterUnits="userSpaceOnUse" x="-645.1" y="-100.7" width="202" height="97">
						<feColorMatrix  type="matrix" values="1 0 0 0 0  0 1 0 0 0  0 0 1 0 0  0 0 0 1 0"/>
					</filter>
				</defs>
				<mask maskUnits="userSpaceOnUse" x="-645.1" y="-100.7" width="202" height="97" id="mask-2_1_">
					<g class="st0">
						<path id="path-1_1_" class="st1" d="M-591.2-76.9c0,3.9-1,7.5-3,10.8c-2,3.3-5,6-8.8,8.1c-3.9,2.1-8.4,3.3-13.8,3.7l-3,16.7
							c-1.1,6.4-4.3,9.7-9.4,9.7c-2.8,0-5.4-0.8-7.7-2.5c-2.4-1.7-4.3-4.2-5.7-7.6c-1.4-3.4-2.1-7.6-2.1-12.6
							c0-9.4,1.5-17.4,4.5-23.9s7-11.5,12.1-14.7c5.1-3.3,10.7-4.9,16.8-4.9c4.3,0,8,0.8,11,2.3c3,1.5,5.3,3.6,6.8,6.2
							C-592-83.1-591.2-80.1-591.2-76.9z M-615.6-61.4c9.4-1.2,14.1-6.1,14.1-14.8c0-3.1-1-5.5-3-7.5c-2-1.9-5.1-2.9-9.3-2.9
							c-4.7,0-8.9,1.5-12.4,4.5c-3.5,3-6.2,7.2-8.1,12.5c-1.9,5.3-2.9,11.4-2.9,18.3c0,2.9,0.3,5.4,0.9,7.6c0.6,2.2,1.3,3.9,2.2,5.2
							c0.9,1.2,1.8,1.8,2.6,1.8c1.1,0,2-1.6,2.6-4.8l2.3-13.1c-1.8-0.3-2.6-0.4-2.3-0.3c-1.4-0.2-2.3-0.7-2.7-1.3
							c-0.4-0.6-0.6-1.4-0.6-2.4c0-1,0.3-1.8,0.9-2.4c0.6-0.6,1.4-0.9,2.4-0.9c0.5,0,0.8,0,1,0.1c1.1,0.2,2,0.3,2.5,0.3
							c0.6-3.6,1.4-8.4,2.5-14.5c0.3-1.6,0.9-2.7,1.9-3.4c1-0.7,2.1-1,3.5-1c1.5,0,2.6,0.3,3.3,0.9c0.7,0.6,1,1.5,1,2.7
							c0,0.7,0,1.3-0.1,1.8L-615.6-61.4z M-562.7-46.1c0,1.4,1.2,3.8,2.2,5.5c-0.5,0.6-1.4,1.1-4.5,2.9c-3.1,1.8-6.4,2.6-10,2.6
							c-4.8,0-8.6-1.3-11.2-4c-2.7-2.6-4-6.2-4-10.8c0-3.2,0.7-6.2,2-8.9c1.3-2.8,3.2-4.9,5.5-6.6c2.4-1.6,5-2.4,8-2.4
							c2.7,0,4.8,0.8,6.4,2.4c1.6,1.6,2.4,3.8,2.4,6.5c0,3.2-1.1,5.9-3.4,8.2c-2.3,2.3-6.1,4.1-11.5,5.5c1.1,2.1,3.3,3.2,6.5,3.2
							c2.1,0,4.4-0.7,7.1-2.2C-564.5-45.7-562.7-46.1-562.7-46.1z M-575.8-61c-1.7,0-3.1,1-4.3,3c-1.2,2-1.8,4.4-1.8,7.2v0.1
							c2.7-0.6,4.8-1.6,6.4-2.9c1.6-1.3,2.3-2.8,2.3-4.5c0-0.9-0.2-1.6-0.7-2.1C-574.3-60.8-574.9-61-575.8-61z M-540.7-36.5
							c-1.7,0.8-3.6,1.4-7.2,1.4c-4.8,0-8.6-1.3-11.2-4c-2.7-2.6-4-6.2-4-10.8c0-3.2,0.7-6.2,2-8.9c1.3-2.8,3.2-4.9,5.5-6.6
							c2.4-1.6,5-2.4,8-2.4c2.7,0,4.8,0.8,6.4,2.4c1.6,1.6,2.4,3.8,2.4,6.5c0,3.2-1.1,5.9-3.4,8.2c-2.3,2.3-6.1,4.1-11.5,5.5
							c1.1,2.1,3.3,3.2,6.5,3.2c2.1,0,4.4-0.7,7.1-2.2c2.6-1.5,3.5-1.7,5.3-3.9c0.2-0.3-1.2,1.8-2.5,4.4
							C-538.8-40.7-540.6-37.1-540.7-36.5z M-548.7-61c-1.7,0-3.1,1-4.3,3c-1.2,2-1.8,4.4-1.8,7.2v0.1c2.7-0.6,4.8-1.6,6.4-2.9
							c1.6-1.3,2.3-2.8,2.3-4.5c0-0.9-0.2-1.6-0.7-2.1C-547.2-60.8-547.9-61-548.7-61z M-501-40.2c-0.8,0.7-0.7,1.1-3,2.7
							c-2.3,1.6-4.9,2.4-7.7,2.4c-2.4,0-4.4-0.9-5.9-2.6c-2.6,1.7-5.3,2.6-8.2,2.6c-0.6,8.9-2,16.4-4.1,22.4c-2.1,6-5.2,9-9.3,9
							c-2.5,0-4.3-0.9-5.5-2.7c-1.2-1.8-1.8-4.3-1.8-7.5c0-4.5,1-9.8,3.1-15.9c2.1-6,5.3-12.7,9.6-20c0-6.8,0-11.5-0.1-14.1
							c0-1.3,0.5-2.4,1.6-3.2c1.1-0.8,2.5-1.2,4.1-1.2c1,0,1.7,0.2,2.1,0.6c0.4,0.4,0.7,1.2,0.7,2.3c0,1.2,0,2,0.1,2.6
							c1.5-1.9,2.9-3.2,4.3-4c1.4-0.8,2.9-1.2,4.5-1.2c2.6,0,4.7,1,6.3,3.1c1.6,2.1,2.4,4.8,2.4,8.2c0,2.5-0.4,4.8-1.2,7.2
							c-0.8,2.3-1.9,4.4-3.2,6.3c1,0.3,1.8,0.4,2.4,0.4c1.5,0,3-0.6,4.3-1.7s1.4-1.1,3.6-3.7C-502-45.2-501.9-42.2-501-40.2z
							 M-525.5-41.8c1.7-0.4,3.2-1.3,4.6-2.7c1.4-1.5,2.5-3.3,3.3-5.4c0.8-2.2,1.2-4.4,1.2-6.8c0-1.4-0.3-2.4-0.8-3.2
							c-0.6-0.7-1.3-1.1-2.2-1.1c-1.7,0-3.7,1.8-6,5.3c0,2-0.1,5-0.1,9C-525.4-44.6-525.4-43-525.5-41.8z M-538.6-10.6
							c1.2,0,2.3-2.7,3.1-8.2c0.8-5.4,1.4-12.2,1.6-20.3c-2,4.6-3.5,9-4.7,13.3s-1.7,7.8-1.7,10.6c0,1.5,0.2,2.6,0.5,3.4
							C-539.5-10.9-539.1-10.6-538.6-10.6z M-494.8-35.1c-2.1,0-3.8-1-5.1-2.9c-1.3-1.9-2-4.3-2-7.2c0-3.5,0.2-6.7,0.7-9.5
							c0.5-2.9,1.2-6,2.3-9.2c0.5-1.4,1.1-2.4,1.9-3c0.8-0.6,2.1-0.9,3.9-0.9c1,0,1.7,0.2,2.1,0.5c0.4,0.3,0.6,0.8,0.6,1.5
							c0,0.4-0.3,1.6-0.8,3.7c-0.5,1.7-0.8,3.3-1.1,4.7c-0.9,4.9-1.4,8.1-1.4,9.7c0,1,0.1,1.7,0.3,2c0.2,0.4,0.6,0.6,1.1,0.6
							c0.7,0,1.5-0.7,2.6-2.1c1-1.4,2.1-3.5,3.3-6.3c1.2-2.8,2.3-6.3,3.4-10.4c0.4-1.4,0.9-2.4,1.7-3c0.8-0.6,1.9-0.9,3.4-0.9
							c1.1,0,1.8,0.1,2.2,0.4c0.4,0.3,0.6,0.7,0.6,1.4c0,1.2-0.6,4.3-1.7,9.5c-1.3,5.9-1.9,9.6-1.9,11c0,0.9,0.2,1.6,0.6,2
							c0.4,0.5,0.8,0.7,1.4,0.7c0.9,0,2-0.6,3.3-1.7c1.3-1.1,2.1-1.7,4.2-4.3c0.5,3.3,1.1,4.8,1.8,6.7c-2,2.5-2.6,3-4.9,4.5
							c-2.3,1.6-4.9,2.4-7.7,2.4c-2.2,0-3.8-0.9-4.9-2.6c-1-1.7-1.5-4.1-1.5-7.2c-0.8,3.1-2,5.6-3.5,7.3
							C-491.4-36-493-35.1-494.8-35.1z M-450.1-45.3c0.5-0.5,1-0.7,1.5-0.7c0.6,0,1,0.3,1.3,0.9c0.3,0.6,0.5,1.4,0.5,2.3
							c0,1.9-0.7,3.5-2.1,4.7c-2.4,2-5.1,3-8.1,3c-4.4,0-7.6-1.8-9.6-5.5c-2-3.7-3-8.5-3-14.4c0-5.6,0.7-12.1,2.2-19.3
							c1.4-7.2,3.6-13.4,6.4-18.6c2.8-5.2,6.2-7.8,10.1-7.8c2.2,0,3.9,1,5.2,3.1c1.3,2.1,1.9,5,1.9,8.9c0,5.5-1.5,11.9-4.5,19.2
							c-3,7.3-7.1,14.4-12.3,21.5c0.3,1.9,0.9,3.3,1.7,4.1c0.8,0.8,2,1.2,3.4,1.2c0.8,0,1.7-0.2,2.7-0.7
							C-451.9-43.9-451-44.5-450.1-45.3z M-452.4-93.9c-1.1,0-2.2,1.9-3.6,5.8c-1.3,3.8-2.5,8.6-3.5,14.3c-1,5.7-1.6,11.2-1.7,16.4
							c3.3-5.4,5.9-10.8,7.8-16.3c1.9-5.4,2.9-10.4,2.9-14.9C-450.5-92.1-451.1-93.9-452.4-93.9z"/>
					</g>
				</mask>
				
					<linearGradient id="Fill-18_1_" gradientUnits="userSpaceOnUse" x1="-856.4658" y1="585.049" x2="-856.4658" y2="573.4126" gradientTransform="matrix(202 0 0 -97 172462 56649)">
					<stop  offset="0" style="stop-color:#FFC75E"/>
					<stop  offset="1" style="stop-color:#F03EA1"/>
				</linearGradient>
				<polygon id="Fill-18" class="st2" points="-645.1,-3.7 -443.1,-3.7 -443.1,-100.7 -645.1,-100.7 				"/>
			</g>
			<g id="Group-23">
				<g id="Clip-22">
				</g>
				<defs>
					<filter id="Adobe_OpacityMaskFilter_1_" filterUnits="userSpaceOnUse" x="-645.1" y="-100.7" width="202" height="97">
						<feColorMatrix  type="matrix" values="1 0 0 0 0  0 1 0 0 0  0 0 1 0 0  0 0 0 1 0"/>
					</filter>
				</defs>
				<mask maskUnits="userSpaceOnUse" x="-645.1" y="-100.7" width="202" height="97" id="mask-5_1_">
					<g class="st3">
						<path id="path-4_1_" class="st1" d="M-591.2-76.9c0,3.9-1,7.5-3,10.8c-2,3.3-5,6-8.8,8.1c-3.9,2.1-8.4,3.3-13.8,3.7l-3,16.7
							c-1.1,6.4-4.3,9.7-9.4,9.7c-2.8,0-5.4-0.8-7.7-2.5c-2.4-1.7-4.3-4.2-5.7-7.6c-1.4-3.4-2.1-7.6-2.1-12.6
							c0-9.4,1.5-17.4,4.5-23.9s7-11.5,12.1-14.7c5.1-3.3,10.7-4.9,16.8-4.9c4.3,0,8,0.8,11,2.3c3,1.5,5.3,3.6,6.8,6.2
							C-592-83.1-591.2-80.1-591.2-76.9z M-615.6-61.4c9.4-1.2,14.1-6.1,14.1-14.8c0-3.1-1-5.5-3-7.5c-2-1.9-5.1-2.9-9.3-2.9
							c-4.7,0-8.9,1.5-12.4,4.5c-3.5,3-6.2,7.2-8.1,12.5c-1.9,5.3-2.9,11.4-2.9,18.3c0,2.9,0.3,5.4,0.9,7.6c0.6,2.2,1.3,3.9,2.2,5.2
							c0.9,1.2,1.8,1.8,2.6,1.8c1.1,0,2-1.6,2.6-4.8l2.3-13.1c-1.8-0.3-2.6-0.4-2.3-0.3c-1.4-0.2-2.3-0.7-2.7-1.3
							c-0.4-0.6-0.6-1.4-0.6-2.4c0-1,0.3-1.8,0.9-2.4c0.6-0.6,1.4-0.9,2.4-0.9c0.5,0,0.8,0,1,0.1c1.1,0.2,2,0.3,2.5,0.3
							c0.6-3.6,1.4-8.4,2.5-14.5c0.3-1.6,0.9-2.7,1.9-3.4c1-0.7,2.1-1,3.5-1c1.5,0,2.6,0.3,3.3,0.9c0.7,0.6,1,1.5,1,2.7
							c0,0.7,0,1.3-0.1,1.8L-615.6-61.4z M-562.7-46.1c0,1.4,1.2,3.8,2.2,5.5c-0.5,0.6-1.4,1.1-4.5,2.9c-3.1,1.8-6.4,2.6-10,2.6
							c-4.8,0-8.6-1.3-11.2-4c-2.7-2.6-4-6.2-4-10.8c0-3.2,0.7-6.2,2-8.9c1.3-2.8,3.2-4.9,5.5-6.6c2.4-1.6,5-2.4,8-2.4
							c2.7,0,4.8,0.8,6.4,2.4c1.6,1.6,2.4,3.8,2.4,6.5c0,3.2-1.1,5.9-3.4,8.2c-2.3,2.3-6.1,4.1-11.5,5.5c1.1,2.1,3.3,3.2,6.5,3.2
							c2.1,0,4.4-0.7,7.1-2.2C-564.5-45.7-562.7-46.1-562.7-46.1z M-575.8-61c-1.7,0-3.1,1-4.3,3c-1.2,2-1.8,4.4-1.8,7.2v0.1
							c2.7-0.6,4.8-1.6,6.4-2.9c1.6-1.3,2.3-2.8,2.3-4.5c0-0.9-0.2-1.6-0.7-2.1C-574.3-60.8-574.9-61-575.8-61z M-540.7-36.5
							c-1.7,0.8-3.6,1.4-7.2,1.4c-4.8,0-8.6-1.3-11.2-4c-2.7-2.6-4-6.2-4-10.8c0-3.2,0.7-6.2,2-8.9c1.3-2.8,3.2-4.9,5.5-6.6
							c2.4-1.6,5-2.4,8-2.4c2.7,0,4.8,0.8,6.4,2.4c1.6,1.6,2.4,3.8,2.4,6.5c0,3.2-1.1,5.9-3.4,8.2c-2.3,2.3-6.1,4.1-11.5,5.5
							c1.1,2.1,3.3,3.2,6.5,3.2c2.1,0,4.4-0.7,7.1-2.2c2.6-1.5,3.5-1.7,5.3-3.9c0.2-0.3-1.2,1.8-2.5,4.4
							C-538.8-40.7-540.6-37.1-540.7-36.5z M-548.7-61c-1.7,0-3.1,1-4.3,3c-1.2,2-1.8,4.4-1.8,7.2v0.1c2.7-0.6,4.8-1.6,6.4-2.9
							c1.6-1.3,2.3-2.8,2.3-4.5c0-0.9-0.2-1.6-0.7-2.1C-547.2-60.8-547.9-61-548.7-61z M-501-40.2c-0.8,0.7-0.7,1.1-3,2.7
							c-2.3,1.6-4.9,2.4-7.7,2.4c-2.4,0-4.4-0.9-5.9-2.6c-2.6,1.7-5.3,2.6-8.2,2.6c-0.6,8.9-2,16.4-4.1,22.4c-2.1,6-5.2,9-9.3,9
							c-2.5,0-4.3-0.9-5.5-2.7c-1.2-1.8-1.8-4.3-1.8-7.5c0-4.5,1-9.8,3.1-15.9c2.1-6,5.3-12.7,9.6-20c0-6.8,0-11.5-0.1-14.1
							c0-1.3,0.5-2.4,1.6-3.2c1.1-0.8,2.5-1.2,4.1-1.2c1,0,1.7,0.2,2.1,0.6c0.4,0.4,0.7,1.2,0.7,2.3c0,1.2,0,2,0.1,2.6
							c1.5-1.9,2.9-3.2,4.3-4c1.4-0.8,2.9-1.2,4.5-1.2c2.6,0,4.7,1,6.3,3.1c1.6,2.1,2.4,4.8,2.4,8.2c0,2.5-0.4,4.8-1.2,7.2
							c-0.8,2.3-1.9,4.4-3.2,6.3c1,0.3,1.8,0.4,2.4,0.4c1.5,0,3-0.6,4.3-1.7s1.4-1.1,3.6-3.7C-502-45.2-501.9-42.2-501-40.2z
							 M-525.5-41.8c1.7-0.4,3.2-1.3,4.6-2.7c1.4-1.5,2.5-3.3,3.3-5.4c0.8-2.2,1.2-4.4,1.2-6.8c0-1.4-0.3-2.4-0.8-3.2
							c-0.6-0.7-1.3-1.1-2.2-1.1c-1.7,0-3.7,1.8-6,5.3c0,2-0.1,5-0.1,9C-525.4-44.6-525.4-43-525.5-41.8z M-538.6-10.6
							c1.2,0,2.3-2.7,3.1-8.2c0.8-5.4,1.4-12.2,1.6-20.3c-2,4.6-3.5,9-4.7,13.3s-1.7,7.8-1.7,10.6c0,1.5,0.2,2.6,0.5,3.4
							C-539.5-10.9-539.1-10.6-538.6-10.6z M-494.8-35.1c-2.1,0-3.8-1-5.1-2.9c-1.3-1.9-2-4.3-2-7.2c0-3.5,0.2-6.7,0.7-9.5
							c0.5-2.9,1.2-6,2.3-9.2c0.5-1.4,1.1-2.4,1.9-3c0.8-0.6,2.1-0.9,3.9-0.9c1,0,1.7,0.2,2.1,0.5c0.4,0.3,0.6,0.8,0.6,1.5
							c0,0.4-0.3,1.6-0.8,3.7c-0.5,1.7-0.8,3.3-1.1,4.7c-0.9,4.9-1.4,8.1-1.4,9.7c0,1,0.1,1.7,0.3,2c0.2,0.4,0.6,0.6,1.1,0.6
							c0.7,0,1.5-0.7,2.6-2.1c1-1.4,2.1-3.5,3.3-6.3c1.2-2.8,2.3-6.3,3.4-10.4c0.4-1.4,0.9-2.4,1.7-3c0.8-0.6,1.9-0.9,3.4-0.9
							c1.1,0,1.8,0.1,2.2,0.4c0.4,0.3,0.6,0.7,0.6,1.4c0,1.2-0.6,4.3-1.7,9.5c-1.3,5.9-1.9,9.6-1.9,11c0,0.9,0.2,1.6,0.6,2
							c0.4,0.5,0.8,0.7,1.4,0.7c0.9,0,2-0.6,3.3-1.7c1.3-1.1,2.1-1.7,4.2-4.3c0.5,3.3,1.1,4.8,1.8,6.7c-2,2.5-2.6,3-4.9,4.5
							c-2.3,1.6-4.9,2.4-7.7,2.4c-2.2,0-3.8-0.9-4.9-2.6c-1-1.7-1.5-4.1-1.5-7.2c-0.8,3.1-2,5.6-3.5,7.3
							C-491.4-36-493-35.1-494.8-35.1z M-450.1-45.3c0.5-0.5,1-0.7,1.5-0.7c0.6,0,1,0.3,1.3,0.9c0.3,0.6,0.5,1.4,0.5,2.3
							c0,1.9-0.7,3.5-2.1,4.7c-2.4,2-5.1,3-8.1,3c-4.4,0-7.6-1.8-9.6-5.5c-2-3.7-3-8.5-3-14.4c0-5.6,0.7-12.1,2.2-19.3
							c1.4-7.2,3.6-13.4,6.4-18.6c2.8-5.2,6.2-7.8,10.1-7.8c2.2,0,3.9,1,5.2,3.1c1.3,2.1,1.9,5,1.9,8.9c0,5.5-1.5,11.9-4.5,19.2
							c-3,7.3-7.1,14.4-12.3,21.5c0.3,1.9,0.9,3.3,1.7,4.1c0.8,0.8,2,1.2,3.4,1.2c0.8,0,1.7-0.2,2.7-0.7
							C-451.9-43.9-451-44.5-450.1-45.3z M-452.4-93.9c-1.1,0-2.2,1.9-3.6,5.8c-1.3,3.8-2.5,8.6-3.5,14.3c-1,5.7-1.6,11.2-1.7,16.4
							c3.3-5.4,5.9-10.8,7.8-16.3c1.9-5.4,2.9-10.4,2.9-14.9C-450.5-92.1-451.1-93.9-452.4-93.9z"/>
					</g>
				</mask>
				
					<linearGradient id="Fill-21_1_" gradientUnits="userSpaceOnUse" x1="-856.8782" y1="584.7369" x2="-855.5317" y2="584.1229" gradientTransform="matrix(202 0 0 -97 172462 56649)">
					<stop  offset="0" style="stop-color:#FFC75E"/>
					<stop  offset="1" style="stop-color:#F03EA1"/>
				</linearGradient>
				<polygon id="Fill-21" class="st4" points="-645.1,-3.7 -443.1,-3.7 -443.1,-100.7 -645.1,-100.7 				"/>
			</g>
		</g>
	</g>
</g>
<g>
	<defs>
		<path id="SVGID_1_" d="M-360.7-0.1v110.1c0,27.6,22.4,49.9,49.9,49.9h110.1c27.6,0,49.9-22.4,49.9-49.9V-0.1
			c0-27.6-22.4-49.9-49.9-49.9h-110.1C-338.3-50-360.7-27.6-360.7-0.1z"/>
	</defs>
	<clipPath id="SVGID_2_">
		<use xlink:href="#SVGID_1_"  style="overflow:visible;"/>
	</clipPath>
	
		<linearGradient id="SVGID_3_" gradientUnits="userSpaceOnUse" x1="-150.1199" y1="310.4051" x2="-149.6206" y2="310.4051" gradientTransform="matrix(290.6281 392.1172 392.1172 -290.6281 -78432.5469 149010.1094)">
		<stop  offset="0" style="stop-color:#FFC75E"/>
		<stop  offset="1" style="stop-color:#F03EA1"/>
	</linearGradient>
	<polygon class="st5" points="-225.2,-150.3 -50.1,86 -286.3,261.1 -461.5,24.8 	"/>
</g>
<g>
	<defs>
		<rect id="SVGID_4_" x="-387.1" y="-72.8" width="255.7" height="255.7"/>
	</defs>
	<clipPath id="SVGID_5_">
		<use xlink:href="#SVGID_4_"  style="overflow:visible;"/>
	</clipPath>
	<path class="st6" d="M-200.7,18c-3.5-1.5-7.2-1.9-10.8-1.3l0,0c-15.8,2.5-23.4-3-25.9-18.8l0,0c-1-6.4-5.1-12.2-12.1-15.2
		c-6-2.5-12.9-1.8-18.2,1.9c-5.5,3.8-8.3,9.4-8.7,15c-1.5,19.5-10.5,27.3-30.1,25.9l0,0c-5.7-0.4-11.7,1.6-16.3,6.7
		c-4.2,4.6-5.8,11.1-4.4,17.2c1.6,6.4,5.7,11,10.7,13.4l0,0c13.6,6.6,16.6,15,10,28.6l0,0c-2.8,5.9-2.8,13.2,1.4,19.5
		c3.6,5.6,10,8.9,16.7,8.6c5.5-0.2,10.1-2.4,13.5-5.8v0c13.6-13.6,24.9-13.6,38.5,0v0c4.1,4.2,10.2,6.5,17,5.5
		c6.4-0.9,12-5.2,14.6-11.1c3-6.7,2.1-13.6-1.3-18.9l0,0c-10.1-15.8-7.8-26.6,8.1-36.7l0,0c3.2-2.1,5.9-5.1,7.5-8.9
		C-186.1,33.8-190.7,22.3-200.7,18 M-255.5,24.1c18.2,0,33,14.8,33,33.1c0,18.3-14.8,33.1-33,33.1c-18.2,0-33-14.8-33-33.1
		C-288.5,38.9-273.7,24.1-255.5,24.1"/>
	<path class="st7" d="M-306.2,62.9c-6.4,0.4-12.3-2.8-15.6-8.2c-2.3-3.9-3-8.5-1.9-12.9c1.1-4.4,3.8-8.1,7.7-10.5
		c2.3-1.4,5-2.2,7.7-2.4c6.4-0.4,12.3,2.8,15.6,8.2c2.3,3.9,3,8.5,1.9,12.9c-1.1,4.4-3.8,8.1-7.7,10.5
		C-300.8,61.9-303.5,62.7-306.2,62.9"/>
	<path class="st8" d="M-287.4,116.8c-7.7,0.5-14.7-4.3-17.2-11.6c-3-8.9,1.9-18.5,10.8-21.5c1.4-0.5,2.9-0.8,4.3-0.8
		c7.7-0.5,14.7,4.3,17.2,11.6c1.4,4.3,1.1,8.9-0.9,13c-2,4.1-5.5,7.1-9.8,8.5C-284.5,116.4-285.9,116.7-287.4,116.8"/>
	<path class="st9" d="M-256.1,19.6c-4.1,0.3-8.2-1-11.5-3.6c-3.6-2.8-5.9-6.8-6.4-11.3c-0.5-4.5,0.7-9,3.5-12.5
		c3-3.8,7.5-6.2,12.4-6.5c4.1-0.3,8.2,1,11.5,3.6c7.4,5.8,8.7,16.5,2.9,23.9C-246.7,16.9-251.2,19.3-256.1,19.6"/>
	<path class="st10" d="M-208.5,54c-2.6,0.2-5.2-0.3-7.7-1.3c-4.2-1.8-7.4-5.1-9.1-9.3c-1.7-4.2-1.7-8.8,0.1-13
		c2.5-6,8.1-9.9,14.6-10.3c2.6-0.2,5.2,0.3,7.7,1.3c4.2,1.8,7.4,5.1,9.1,9.3c1.7,4.2,1.7,8.8-0.1,13C-196.4,49.7-202,53.6-208.5,54"
		/>
	<path class="st11" d="M-222.3,116.8c-1.2,0.1-2.3,0-3.5-0.1c-9.3-1.3-15.7-10-14.4-19.3c1.2-7.9,7.8-14,15.8-14.5
		c1.2-0.1,2.3,0,3.5,0.1c4.5,0.7,8.5,3,11.2,6.7c2.7,3.6,3.9,8.1,3.2,12.6C-207.7,110.2-214.3,116.3-222.3,116.8"/>
	<path class="st6" d="M-257.1,10.6c-4.4,0-8.1-3.6-8.1-8.1c0-4.4,3.6-8.1,8.1-8.1c4.4,0,8.1,3.6,8.1,8.1
		C-249.1,7-252.7,10.6-257.1,10.6 M-257.1-4.9L-257.1-4.9c-4.1,0-7.5,3.4-7.5,7.5c0,4.1,3.4,7.5,7.5,7.5c4.1,0,7.5-3.4,7.5-7.5
		C-249.6-1.6-253-4.9-257.1-4.9"/>
	<path class="st6" d="M-223.3,107.9c-4.4,0-8.1-3.6-8.1-8.1c0-4.4,3.6-8.1,8.1-8.1c4.4,0,8.1,3.6,8.1,8.1
		C-215.3,104.2-218.9,107.9-223.3,107.9 M-223.3,92.3L-223.3,92.3c-4.1,0-7.5,3.4-7.5,7.5c0,4.1,3.4,7.5,7.5,7.5
		c4.1,0,7.5-3.4,7.5-7.5C-215.8,95.7-219.2,92.3-223.3,92.3"/>
	<path class="st6" d="M-288.4,107.8c-4.4,0-8.1-3.6-8.1-8.1c0-4.4,3.6-8.1,8.1-8.1c4.4,0,8.1,3.6,8.1,8.1
		C-280.4,104.2-284,107.8-288.4,107.8 M-288.4,92.3L-288.4,92.3c-4.1,0-7.5,3.4-7.5,7.5c0,4.1,3.4,7.5,7.5,7.5
		c4.1,0,7.5-3.4,7.5-7.5C-280.9,95.6-284.3,92.3-288.4,92.3"/>
	<path class="st6" d="M-307.2,54c-4.4,0-8.1-3.6-8.1-8.1c0-4.4,3.6-8.1,8.1-8.1c4.4,0,8.1,3.6,8.1,8.1
		C-299.2,50.4-302.8,54-307.2,54 M-307.2,38.4L-307.2,38.4c-4.1,0-7.5,3.4-7.5,7.5c0,4.1,3.4,7.5,7.5,7.5c4.1,0,7.5-3.4,7.5-7.5
		C-299.7,41.8-303.1,38.4-307.2,38.4"/>
	<path class="st6" d="M-288.4,103.5c-2,0-3.7-1.7-3.7-3.7c0-2,1.7-3.7,3.7-3.7c2,0,3.7,1.7,3.7,3.7
		C-284.7,101.8-286.4,103.5-288.4,103.5 M-288.4,96.4c-1.8,0-3.3,1.5-3.3,3.3s1.5,3.3,3.3,3.3c1.8,0,3.3-1.5,3.3-3.3
		S-286.6,96.4-288.4,96.4"/>
	<path class="st6" d="M-288.4,103c-0.1,0-0.2-0.1-1.1-0.2v-0.3c0.9-0.1,1-0.2,1.1-0.2c0.1,0,0.2,0.1,0.3,0.2v0.3
		C-288.3,102.9-288.3,103-288.4,103 M-285.4,98.8h-0.3c-0.1,1.2-0.2,1.1-0.2,1c0-0.1,0.1-0.2,0.2,0.4h0.3c0.1-0.5,0.2-0.5,0.2-0.4
		c0,0.1-0.1,0.2-0.2,0.2V98.8z M-291.1,98.8h-0.3c-0.1,1.2-0.2,1.1-0.2,1c0-0.1,0.1-0.2,0.2,0.4h0.3c0.1-0.5,0.2-0.5,0.2-0.4
		c0,0.1-0.1,0.2-0.2,0.2V98.8z M-288.4,97.3c-0.1,0-0.2-0.1-1.1-0.2v-0.3c0.9-0.1,1-0.2,1.1-0.2c0.1,0,0.2,0.1,0.3,0.2v0.3
		C-288.3,97.2-288.3,97.3-288.4,97.3"/>
	<path class="st6" d="M-287.9,99.6c0,0.3-0.2,0.5-0.5,0.5c-0.3,0-0.5-0.2-0.5-0.5c0-0.3,0.2-0.5,0.5-0.5
		C-288.1,99.1-287.9,99.3-287.9,99.6"/>
	<path class="st6" d="M-288.4,100.3c-0.4,0-0.7-0.3-0.7-0.7c0-0.4,0.3-0.7,0.7-0.7c0.4,0,0.7,0.3,0.7,0.7
		C-287.7,100-288.1,100.3-288.4,100.3 M-288.4,99.3c-0.2,0-0.3,0.2-0.3,0.3s0.2,0.3,0.3,0.3c0.2,0,0.3-0.2,0.3-0.3
		S-288.2,99.3-288.4,99.3"/>
	<path class="st6" d="M-290.3,101.6c0,0-0.1,0-0.1-0.1c-0.1-0.1-0.1-0.2,0-0.2l1.5-1.5c0.1-0.1,0.2-0.1,0.2,0c0.1,0.1,0.1,0.2,0,0.2
		l-1.5,1.5C-290.2,101.6-290.2,101.6-290.3,101.6 M-283.6,100c0.1,0,0.2-0.1,0.2-0.2c0-2.8-2.3-5-5-5c-1.2,0-2.3,0.4-3.8,1.1v-1
		c0.7-0.1,0.6-0.2,0.5-0.2c-0.1,0-0.2,0.1,0.9,0.2v1.3V96h-0.9h0.1h1.3c0.1,0.4,0.2,0.3,0.2,0.2c0-0.1-0.1-0.2-0.2,1.1h-0.9
		c0.8-2,1.8-2.3,2.9-2.3c2.6,0,4.7,2.1,4.7,4.7C-283.7,99.9-283.7,100-283.6,100 M-288.4,99.3c-0.1,0-0.2-0.1-1.1-0.2v-1
		c0.9-0.1,1-0.2,1.1-0.2c0.1,0,0.2,0.1,0.3,0.2v1C-288.3,99.2-288.3,99.3-288.4,99.3"/>
	<path class="st6" d="M-288.5,104.6c0-0.1,0.1-0.2,0.2-0.2c0.1,0,0.2,0.1,0.2,0.2c0,0.1-0.1,0.2-0.2,0.2
		C-288.4,104.8-288.5,104.7-288.5,104.6 M-288.8,104.8L-288.8,104.8c-0.1,0-0.2-0.1-0.2-0.2c0-0.1,0.1-0.2,0.2-0.2
		c0.1,0,0.2,0.1,0.1,0.2C-288.7,104.7-288.7,104.8-288.8,104.8 M-288,104.1c0-0.1,0-0.2,0.1-0.2c0.1,0,0.2,0,0.2,0.2
		c0,0.1,0,0.2-0.2,0.2h0C-287.9,104.3-288,104.2-288,104.1 M-289.4,104.3c-0.1,0-0.2-0.1-0.1-0.2c0-0.1,0.1-0.2,0.2-0.1
		c0.1,0,0.1,0.1,0.1,0.2C-289.2,104.2-289.2,104.3-289.4,104.3L-289.4,104.3z M-287.5,104.1c0-0.1,0-0.2,0.1-0.2
		c0.1,0,0.2,0,0.2,0.1c0,0.1,0,0.2-0.1,0.2h0C-287.4,104.3-287.5,104.2-287.5,104.1 M-289.9,104.6c-0.1,0-0.1-0.1-0.1-0.2
		c0-0.1,0.1-0.1,0.2-0.1c0.1,0,0.1,0.1,0.1,0.2C-289.7,104.5-289.7,104.6-289.9,104.6C-289.8,104.6-289.8,104.6-289.9,104.6
		 M-287,104.2c0-0.1,0-0.2,0.1-0.2c0.1,0,0.2,0,0.2,0.1c0,0.1,0,0.2-0.1,0.2h0C-286.9,104.3-287,104.2-287,104.2 M-290.3,104.4
		c-0.1,0-0.1-0.1-0.1-0.2c0-0.1,0.1-0.1,0.2-0.1c0.1,0,0.1,0.1,0.1,0.2C-290.2,104.4-290.2,104.4-290.3,104.4
		C-290.3,104.4-290.3,104.4-290.3,104.4 M-286.5,104.2c0-0.1,0-0.2,0.1-0.2c0.1,0,0.2,0,0.2,0.1c0,0.1,0,0.2-0.1,0.2
		c0,0-0.1,0-0.1,0C-286.4,104.3-286.5,104.3-286.5,104.2 M-290.8,104.2c-0.1,0-0.1-0.1-0.1-0.2c0-0.1,0.1-0.1,0.2-0.1
		c0.1,0,0.1,0.2,0.1,0.2C-290.6,104.2-290.7,104.2-290.8,104.2C-290.8,104.2-290.8,104.2-290.8,104.2 M-286.1,104
		c-0.1-0.1,0-0.2,0-0.2c0.1-0.1,0.2,0,0.2,0.1c0.1,0.1,0,0.2,0,0.2c0,0,0,0-0.1,0C-286,104.1-286.1,104.1-286.1,104 M-291.3,103.9
		L-291.3,103.9c-0.1,0-0.1-0.1,0-0.2c0-0.1,0.1-0.1,0.2-0.1c0.1,0.1,0.1,0.2,0,0.2C-291.1,103.9-291.1,103.9-291.3,103.9
		C-291.2,103.9-291.2,103.9-291.3,103.9 M-285.7,103.8c-0.1-0.1,0-0.2,0-0.2c0.1-0.1,0.2,0,0.2,0c0,0.1,0,0.2,0,0.2c0,0-0.1,0-0.1,0
		C-285.6,103.8-285.6,103.8-285.7,103.8 M-291.7,103.6c0,0,0.1,0.1,0.1,0.1c0,0,0.1,0,0.1-0.1c0.1-0.1,0-0.2,0-0.2
		c-0.1-0.1-0.2,0-0.2,0C-291.7,103.4-291.7,103.5-291.7,103.6 M-285.3,103.5c-0.1-0.1-0.1-0.2,0-0.2c0.1-0.1,0.2-0.1,0.2,0
		c0.1,0.1,0.1,0.2,0,0.2c0,0-0.1,0.1-0.1,0.1C-285.2,103.5-285.2,103.5-285.3,103.5 M-292,103.2c-0.1-0.1-0.1-0.2,0-0.2
		c0.1-0.1,0.2-0.1,0.2,0c0.1,0.1,0.1,0.2,0,0.2c0,0-0.1,0.1-0.1,0.1C-292,103.3-292,103.3-292,103.2 M-284.9,103.1c0,0,0.1,0,0.1,0
		c0,0,0.1,0,0.1,0c0.1-0.1,0.1-0.2,0-0.2c-0.1-0.1-0.2-0.1-0.2,0C-285,103-285,103.1-284.9,103.1 M-292.4,102.9c0-0.1,0-0.2,0-0.2
		c0.1,0,0.2,0,0.2,0c0,0.1,0,0.2,0,0.2c0,0-0.1,0-0.1,0C-292.3,102.9-292.3,102.9-292.4,102.9 M-284.6,102.7c-0.1-0.1-0.1-0.2,0-0.2
		c0-0.1,0.2-0.1,0.2,0c0.1,0.1,0.1,0.2,0,0.2C-284.4,102.8-284.4,102.8-284.6,102.7C-284.5,102.8-284.5,102.8-284.6,102.7
		 M-292.7,102.4c0-0.1,0-0.2,0-0.2c0.1-0.1,0.2,0,0.2,0c0,0.1,0,0.2,0,0.2c0,0-0.1,0-0.1,0C-292.6,102.5-292.6,102.5-292.7,102.4
		 M-284.3,102.3c-0.1-0.1-0.1-0.2-0.1-0.2c0-0.1,0.2-0.1,0.2-0.1c0.1,0,0.1,0.2,0.1,0.2C-284.1,102.3-284.1,102.3-284.3,102.3
		C-284.2,102.3-284.3,102.3-284.3,102.3 M-292.9,102c0-0.1,0-0.2,0.1-0.2c0.1,0,0.2,0,0.2,0.1c0,0.1,0,0.2-0.1,0.2c0,0,0,0-0.1,0
		C-292.8,102.1-292.9,102-292.9,102 M-284.1,101.9c-0.1,0-0.1-0.1-0.1-0.2c0-0.1,0.1-0.1,0.2-0.1c0.1,0,0.1,0.1,0.1,0.2
		C-283.9,101.9-283.9,101.9-284.1,101.9C-284,101.9-284,101.9-284.1,101.9 M-293.1,101.5c0-0.1,0-0.2,0.1-0.2c0.1,0,0.2,0,0.2,0.1
		c0,0.1,0,0.2-0.1,0.2c0,0,0,0-0.1,0C-293,101.6-293.1,101.6-293.1,101.5 M-283.9,101.5c-0.1,0-0.1-0.1-0.1-0.2
		c0-0.1,0.1-0.1,0.2-0.1c0.1,0,0.1,0.1,0.1,0.2C-283.7,101.5-283.7,101.5-283.9,101.5L-283.9,101.5z M-293.3,101.4
		c0-0.1,0-0.2,0.1-0.2c0.1,0,0.2,0,0.2,0.1c0,0.1,0,0.2-0.1,0.2h0C-293.2,101.5-293.3,101.5-293.3,101.4 M-283.7,100.9
		c-0.1,0-0.1-0.1-0.1-0.2c0-0.1,0.1-0.2,0.2-0.1c0.1,0,0.1,0.1,0.1,0.2C-283.5,100.9-283.6,100.9-283.7,100.9
		C-283.7,101-283.7,101-283.7,100.9 M-293.4,100L-293.4,100c0-0.1,0-0.2,0.1-0.2c0.1,0,0.2,0.1,0.2,0.2c0,0.1,0,0.2-0.2,0.2h0
		C-293.3,100.2-293.4,100.1-293.4,100 M-283.6,100.2c-0.1,0-0.2-0.1-0.1-0.2c0-0.1,0.1-0.2,0.2-0.2c0.1,0,0.2,0.1,0.2,0.2
		C-283.4,100.1-283.5,100.2-283.6,100.2L-283.6,100.2z M-293.4,100c0-0.1,0.1-0.2,0.2-0.2c0.1,0,0.2,0.1,0.2,0.2
		c0,0.1-0.1,0.2-0.2,0.2C-293.3,100.1-293.4,100.1-293.4,100 M-283.7,99.8L-283.7,99.8c0-0.1,0.1-0.2,0.2-0.2c0.1,0,0.2,0.1,0.2,0.2
		c0,0.1-0.1,0.2-0.2,0.2C-283.7,100-283.7,99.9-283.7,99.8"/>
	<path class="st6" d="M-310,46.3c0-0.1,0-0.1,0-0.2c0,0,0-0.1,0-0.1c0,0,0,0,0-0.1l0.1-0.3c0-0.1,0.1-0.2,0.1-0.2l0,0c0,0,0,0,0,0
		c0,0,0,0,0,0c0,0,0,0,0,0c0-0.1,0-0.1,0-0.1l0-0.3c0,0,0-0.1,0-0.2c0,0,0-0.1,0-0.2c0-0.1,0-0.2,0.2-0.4c0.1-0.1,0.1-0.1,0.1-0.1
		l0.2-0.1c0,0,0,0,0,0c0,0,0.1-0.1,0.3-0.1c0.2,0,0.2,0,0.3-0.2c0,0,0,0,0-0.1c0.1-0.1,0.1-0.1,0.2-0.2c0,0,0,0,0.1,0
		c0.1-0.1,0.3-0.2,0.4-0.3c0.2-0.1,0.1,0,0.2-0.1l0,0c0.1,0,0.5,0,0.6,0c0,0,0,0,0,0c0,0,0,0,0.1,0c0,0,0,0,0,0c0,0,0,0,0,0
		c0,0,0,0,0,0c0.2,0.1,0.3,0.2,0.4,0.3l0.1,0.1c0,0,0,0,0,0l0.1,0.2c0,0,0,0.1,0,0.1c0,0,0.1,0,0.1,0.1c0,0,0,0,0.1,0
		c0.1,0,0.2,0.1,0.3,0.1l0.1,0.1c0,0,0,0,0,0l0.1,0.1c0,0,0,0,0,0l0.1,0.1c0,0,0,0,0,0l0.1,0.2c0,0,0,0.2,0,0.2l0,0.3
		c0,0,0,0.1,0,0.1c0,0,0,0,0,0l0,0c0.1,0.1,0.2,0.2,0.3,0.3l0,0.1c0,0,0,0.1,0.1,0.1l0.1,0.3c0,0.2,0,0.5,0,0.7l0,0.1c0,0,0,0,0,0.1
		c0,0,0,0,0,0c0,0,0,0.1,0,0.1l-0.1,0.1c0,0-0.1,0.1-0.1,0.1l-0.2,0.2c0,0,0,0,0,0c0,0-0.1,0.1-0.1,0.1l0,0c-0.1,0-0.2,0.1-0.3,0.1
		l-0.1,0c-0.1,0-0.2,0-0.3,0c-0.2,0-0.4-0.1-0.5-0.1c0,0-0.1,0-0.1,0.1c0,0,0,0,0,0l-0.2,0.1c0,0,0,0,0,0c-0.1,0-0.1,0-0.2,0.1
		c0,0-0.1,0-0.2,0c0,0,0,0,0,0l-0.2,0c0,0,0,0,0,0c0,0-0.1,0-0.1,0l-0.1,0c-0.1,0-0.1,0-0.1-0.1l-0.2-0.1c-0.1-0.1-0.1-0.1-0.2,0
		c0,0,0,0-0.1,0c-0.1,0-0.3,0-0.4,0c0,0-0.1,0-0.1,0c-0.1,0-0.1,0-0.2-0.1c-0.1,0,0,0-0.1,0c0,0-0.1,0-0.1,0c0,0,0,0,0,0
		c-0.1,0-0.1,0-0.1-0.1l-0.1-0.1c-0.1-0.1-0.2-0.2-0.2-0.3l-0.2-0.4c0-0.1,0-0.1,0-0.2C-310,46.4-310,46.3-310,46.3 M-309.2,43.6
		C-309.2,43.6-309.2,43.6-309.2,43.6l-0.2,0.1c0,0-0.1,0-0.1,0.1l-0.2,0.1c0,0,0,0,0,0c0,0,0,0,0,0l-0.2,0.2c0,0.1-0.1,0.1-0.1,0.2
		c0,0.1,0,0,0,0.1c0,0.1,0,0,0,0.1c0,0.1,0,0.1,0,0.1c0,0,0,0.1,0,0.1c0,0,0,0,0,0c0,0.1,0,0.1,0,0.2l0,0.3c0,0,0,0.1,0,0.1
		c-0.1,0.1-0.2,0.2-0.2,0.4c0,0.1,0,0.1-0.1,0.2c0,0,0,0.1,0,0.1l0,0.1c0,0.1,0,0.5,0,0.6c0,0.1,0,0.2,0.1,0.4c0,0,0,0,0,0.1
		c0,0,0.1,0.1,0.1,0.1l0.1,0.2c0,0,0,0,0,0c0,0,0,0.1,0.1,0.1c0.1,0.1,0.1,0.1,0.2,0.2l0.4,0.2c0,0,0,0,0.1,0c0,0,0,0,0.1,0
		c0.1,0,0.3,0,0.4,0c0.1,0,0.2,0,0.3,0c0,0,0,0,0,0l0,0c0,0,0,0,0,0l0.2,0.1c0.1,0.1,0.3,0.1,0.4,0.1c0.1,0,0.1,0,0.2,0
		c0.1,0,0.1,0,0.2,0c0.1,0,0.1,0,0.2,0c0,0,0,0,0.1,0c0.1,0,0.1-0.1,0.1-0.1l0.2-0.1c0,0,0.1-0.1,0.1-0.1c0,0,0,0,0.1,0
		c0.1,0,0.1,0,0.3,0h0.1c0,0,0.3,0,0.3,0c0,0,0,0,0,0c0,0,0,0,0,0c0.1,0,0.1,0,0.2,0c0.1,0,0.2-0.1,0.3-0.1l0,0c0,0,0,0,0,0l0.3-0.2
		c0,0,0.1-0.1,0.1-0.1l0.1-0.1c0,0,0,0,0,0c0.1-0.1,0.1-0.2,0.1-0.2c0,0,0,0,0-0.1c0-0.1,0,0,0-0.1l0-0.2c0-0.1,0-0.1,0-0.2v-0.2
		c0-0.1-0.1-0.3-0.1-0.4c0,0,0,0,0-0.1c0,0,0,0,0-0.1c0,0,0-0.1,0-0.1c0,0-0.1-0.2-0.2-0.3c0,0-0.1-0.1-0.1-0.1c0-0.1,0-0.1,0-0.2
		c0-0.2,0-0.2,0-0.4l-0.2-0.4c-0.1-0.1-0.2-0.3-0.3-0.3c0,0,0,0,0,0c-0.1-0.1-0.2-0.1-0.3-0.2c0,0,0,0-0.1,0c0,0,0,0-0.1,0
		c0,0,0,0-0.1,0c-0.1-0.1-0.1-0.2-0.2-0.3c-0.1-0.2-0.2-0.2-0.3-0.3c0,0,0,0-0.1,0c-0.1,0-0.2-0.1-0.2-0.1c0,0,0,0-0.1,0l-0.1,0
		c0,0-0.1,0-0.1,0c-0.1-0.1-0.1,0-0.2,0c-0.1,0-0.3,0-0.3,0c0,0-0.1,0-0.1,0c-0.1,0,0,0-0.1,0c-0.1,0-0.2,0-0.3,0.1c0,0-0.1,0-0.1,0
		l-0.4,0.2l-0.2,0.2c0,0.1-0.1,0.1-0.2,0.2c0,0,0,0,0,0.1c-0.1,0.1-0.1,0-0.2,0.1C-309.1,43.6-309.2,43.6-309.2,43.6"/>
	<path class="st6" d="M-310.8,43.3c0,0,0.1-0.1,0.1-0.1c0.1,0,0,0,0,0.1c0,0.2,0.2,0.1,0.2,0.1c0,0,0,0.1,0,0.1
		c-0.1,0-0.1,0-0.2,0.1c-0.1,0.1,0,0.1,0,0.2c0,0,0,0.1,0,0.1c-0.1,0-0.1,0-0.2,0c0-0.1,0-0.1,0-0.1c0-0.1-0.1-0.1-0.2,0
		c0,0,0,0.1-0.1,0.1c0,0,0-0.1,0-0.1c0,0,0,0,0-0.1c0-0.1-0.1-0.1-0.1-0.2c0,0,0.1-0.1,0.2,0c0,0,0,0.1,0.1,0.1
		C-310.7,43.6-310.8,43.4-310.8,43.3 M-311.1,43.2c0,0-0.1,0-0.1,0l-0.1,0.1c-0.1,0.1-0.2,0.1-0.2,0.3c0,0,0,0.1,0,0.1
		c0,0.1,0-0.1,0,0.2c0,0.1,0,0.1,0,0.2c0,0,0.1,0.1,0.1,0.1c0.1,0,0.2,0,0.2,0c0.1,0,0.1,0,0.1,0c0.1,0.1,0.3,0.1,0.4,0
		c0.1,0,0.1,0,0.1-0.1c0,0,0,0,0,0c0.1-0.2,0-0.2,0.1-0.2l0.1-0.1c0,0,0,0,0,0l0,0c0,0,0,0,0,0c0,0,0,0,0,0c0,0,0-0.1,0-0.2
		c0,0,0-0.1,0-0.2c-0.1-0.2-0.2-0.1-0.2-0.2c0-0.1-0.1-0.1-0.1-0.1c-0.1,0,0,0-0.1,0c0,0-0.1,0-0.1,0c0,0,0,0-0.1,0l0,0c0,0,0,0,0,0
		C-310.9,43-311,43.1-311.1,43.2"/>
	<path class="st6" d="M-307.3,50L-307.3,50c-0.1,0-0.1,0-0.1-0.1c0,0,0-0.1-0.1-0.1c-0.2,0-0.2,0-0.2,0.1c0,0,0,0,0,0
		c-0.1,0-0.1,0-0.1-0.1c0-0.1,0,0,0-0.2l-0.1-0.1c0-0.1,0.1-0.1,0.1-0.1c0,0,0.1,0.1,0.1,0.1c0.2,0,0-0.2,0.1-0.3c0,0,0.1-0.1,0.1,0
		c0,0-0.1,0.1,0,0.2c0.1,0.1,0.1,0,0.1,0c0,0,0,0,0,0c0.1,0,0,0.1,0,0.2c-0.1,0-0.2,0-0.2,0.1C-307.2,49.9-307.1,50-307.3,50
		 M-306.9,49.9l0.1-0.1c0-0.1,0-0.1,0-0.2c0-0.1,0-0.1,0-0.1l0,0c0,0,0,0,0,0c-0.1-0.1-0.1-0.1-0.2-0.1c0-0.1,0-0.1-0.1-0.2
		c-0.2-0.1-0.4,0-0.5,0.1c0,0,0,0,0,0c0,0.1-0.1,0-0.1,0c0,0-0.1,0-0.1,0c0,0,0,0-0.1,0.1c0,0-0.1,0.1-0.1,0.1c-0.1,0.1,0,0.2,0,0.2
		c0,0.1,0,0.1,0,0.2c0,0.1,0,0.1,0.1,0.2c0.1,0.1,0.3,0,0.3,0c0.1,0,0.1,0.1,0.3,0.1c0.1,0,0.2-0.1,0.3-0.2
		C-306.9,50-307,49.9-306.9,49.9"/>
	<path class="st6" d="M-209.5,45.1c-4.4,0-8.1-3.6-8.1-8.1c0-4.4,3.6-8.1,8.1-8.1c4.4,0,8.1,3.6,8.1,8.1
		C-201.5,41.5-205.1,45.1-209.5,45.1 M-209.5,29.6L-209.5,29.6c-4.1,0-7.5,3.4-7.5,7.5c0,4.1,3.4,7.5,7.5,7.5c4.1,0,7.5-3.4,7.5-7.5
		C-202,32.9-205.4,29.6-209.5,29.6"/>
	<path class="st6" d="M-211.7,40.3c-0.4,0-0.6-0.1-0.7-0.3c0-0.1,0-0.3,0.1-0.3c0.3-0.2,0.5-0.5,0.5-0.7c-0.7-0.4-1.2-1.1-1.2-1.9
		c-0.1-0.6,0.1-1.3,0.6-1.8c0.6-0.7,1.5-1.2,2.5-1.3c0.2,0,0.3,0,0.5,0c1.7,0,3.1,1,3.3,2.4c0.1,0.7-0.1,1.5-0.6,2
		c-0.5,0.6-1.3,1-2.2,1.1c-0.2,0-0.3,0-0.5,0c-0.1,0-0.2,0-0.4,0C-210.5,40.3-211.4,40.3-211.7,40.3 M-209.4,34.5L-209.4,34.5
		c-0.1,0-0.3,0-0.4,0c-0.9,0.1-1.7,0.5-2.2,1.1c-0.3,0.4-0.5,0.9-0.4,1.4c0.1,0.6,0.5,1.2,1.1,1.5c0.1,0,0.1,0.1,0.1,0.2
		c0,0.3,0,0.6-0.3,1c0.4,0,1-0.2,1.5-0.7c0.1-0.1,0.1-0.1,0.2-0.1c0.1,0,0.3,0,0.4,0c0.1,0,0.3,0,0.4,0c0.8-0.1,1.4-0.4,1.8-0.9
		c0.4-0.5,0.5-1,0.4-1.6C-206.8,35.3-208,34.5-209.4,34.5"/>
	<path class="st6" d="M-211.6,40c0.5,0,1.1-0.3,1.6-0.8c0.1-0.1,0.2-0.1,0.2-0.1c0.2,0,0.3,0,0.5,0c0.1,0,0.3,0,0.4,0
		c0.8-0.1,1.5-0.4,1.9-1c0.4-0.5,0.6-1.1,0.5-1.7c-0.1-1.2-1.4-2.1-2.9-2.1c-0.1,0-0.3,0-0.4,0c-1,0.1-1.8,0.5-2.3,1.2
		c-0.4,0.5-0.5,1-0.5,1.5c0.1,0.7,0.5,1.3,1.2,1.6c0.1,0,0.1,0.1,0.1,0.2C-211.3,39.2-211.3,39.6-211.6,40"/>
	<path class="st6" d="M-303.8,43.5c0,0-0.1,0.1,0,0.1c0,0.1,0.1,0.1,0,0.1c0,0.1-0.1,0.1-0.2,0.1c0,0,0-0.2-0.2-0.2
		c-0.1,0-0.1,0.2-0.2,0.1c-0.1-0.2,0.1-0.1,0.1-0.3l0,0c0-0.1-0.1,0-0.1-0.1c0,0,0.1-0.1,0.2,0c0.1,0.1,0.1,0,0.2,0
		c0.1-0.1,0-0.1,0-0.2c0,0,0.1-0.1,0.2-0.1c0,0.1-0.1,0.1,0,0.2c0.1,0.1,0.3-0.1,0.2,0.1c0,0,0,0-0.1,0.1
		C-303.7,43.5-303.7,43.5-303.8,43.5C-303.8,43.5-303.8,43.5-303.8,43.5L-303.8,43.5z M-304.6,43.2
		C-304.6,43.2-304.6,43.2-304.6,43.2L-304.6,43.2c-0.1,0.1-0.1,0.1-0.1,0.1c0,0.1,0,0.2,0,0.2c0.1,0.1,0,0.2,0.1,0.4
		c0.1,0.2,0.3,0,0.4,0.1c0.1,0.1,0.1,0,0.3,0.1l0.1,0c0,0,0.1,0,0.1-0.1c0.1-0.1,0.1-0.1,0.1-0.2c0-0.1,0-0.1,0.1-0.1
		c0.1-0.1,0.1-0.1,0.1-0.2c0-0.1,0-0.3-0.1-0.3c0,0-0.1,0-0.1-0.1c0-0.1-0.1-0.1-0.2-0.1c-0.1,0-0.2,0-0.2,0.1
		c-0.2,0.1-0.1,0.2-0.2,0.2c0,0-0.1,0-0.1,0c0,0-0.1,0-0.1,0C-304.5,43.1-304.5,43.2-304.6,43.2"/>
	<path class="st6" d="M-307.8,44.4c0,0-0.1,0.1-0.2,0.2c0,0.1,0,0.2,0.2,0.2c0,0,0.1,0,0.1-0.1l0,0c0,0,0,0,0,0
		c0.1-0.1,0.2-0.1,0.3-0.1c0,0,0,0,0,0c0.1,0.1,0.1,0.3,0.1,0.3c0.1,0,0.1,0,0.2,0c0.1,0,0.2-0.1,0.3,0c0,0,0,0,0,0
		c0,0.1,0,0.1,0,0.2c0,0-0.1,0.3,0,0.3c0.1,0,0.1-0.1,0.2-0.2c0.1-0.2,0-0.4-0.2-0.6c-0.2-0.1-0.3,0-0.4,0c0,0,0,0,0-0.1l-0.1-0.1
		c0-0.1-0.1-0.1-0.2-0.1c-0.1,0-0.2,0-0.3,0c0,0,0,0-0.1,0C-307.7,44.4-307.7,44.4-307.8,44.4"/>
	<path class="st6" d="M-307,47c-0.2,0-0.1,0-0.2,0c-0.1,0,0,0-0.1,0c-0.1,0,0,0-0.1,0.1c0,0,0,0,0,0l-0.1,0.1c0,0.1,0,0.1,0,0.2
		c0,0,0.1,0,0.1,0l0,0c0,0,0-0.1,0.1-0.1c0,0,0.1,0,0.2,0c0,0,0,0,0.2,0c0,0,0,0,0,0c0,0,0,0,0-0.1c0,0,0,0,0,0l0.1-0.1
		c0.1-0.1,0.1-0.1,0.2,0c0.1,0,0,0,0.1,0c0,0,0,0,0.1,0c0.1,0,0.1-0.1,0.1-0.2c-0.1-0.1,0,0-0.1-0.1c-0.1-0.1-0.3-0.2-0.5-0.1
		c-0.1,0-0.1,0.1-0.2,0.1C-306.8,47-306.9,47-307,47"/>
	<path class="st6" d="M-304.7,42.3C-304.8,42.3-304.7,42.3-304.7,42.3l-0.1,0.1c0,0,0,0,0,0l-0.4,0.4c0,0-0.1,0.1-0.1,0.1l-0.2,0.2
		c0,0,0,0.1,0,0.1c0,0.1,0.1,0.1,0.2,0.1c0,0,0,0,0,0l0.4-0.5c0,0,0,0,0,0l0.2-0.2c0,0,0,0,0,0l0,0c0,0,0.1-0.1,0.1-0.1
		c0,0,0.1-0.1,0.1-0.2c0,0,0-0.1-0.1-0.1C-304.6,42.3-304.7,42.3-304.7,42.3"/>
	<path class="st6" d="M-310.8,47c0,0-0.1,0-0.1,0c0,0-0.1,0-0.2,0.1l-0.1,0c0,0-0.1,0-0.1,0l-0.4,0.1c-0.1,0,0,0-0.1,0l-0.2,0.1
		c-0.1,0,0,0-0.1,0.1c0,0,0,0,0,0.1c0,0,0,0,0,0c0,0,0,0,0,0c0.1,0,0.1,0,0.2,0c0.1,0,0.1,0,0.1,0c0,0,0,0,0,0c0.1,0,0.1,0,0.1,0
		c0,0,0.1,0,0.1,0l0.1,0c0,0,0,0,0.1,0l0.2,0c0,0,0,0,0,0c0,0,0,0,0.1,0l0.2-0.1c0.1,0,0.1-0.1,0.1-0.2
		C-310.7,47-310.8,46.9-310.8,47"/>
	<path class="st6" d="M-308.2,42.4L-308.2,42.4c0,0,0,0.1,0.1,0.2c0,0,0,0,0,0.1c0,0,0,0.1,0,0.1c0,0.1,0,0.1,0.1,0.2
		c0,0,0.1,0.1,0.1,0c0.1-0.1,0-0.2,0-0.2c0,0,0-0.1,0-0.1l-0.1-0.4c0-0.1,0-0.1,0-0.1c0,0,0-0.1,0-0.1c0,0,0,0,0,0c0,0,0-0.1,0-0.1
		c0,0,0,0,0,0c0,0,0,0,0-0.1c0,0,0,0,0-0.1l0-0.1c0-0.1-0.1-0.1-0.2,0c-0.1,0-0.1,0.2,0,0.3c0,0,0,0,0,0.1c0,0.1,0,0,0,0.1l0.1,0.3
		C-308.3,42.3-308.2,42.3-308.2,42.4"/>
	<path class="st6" d="M-309.3,49.2c0,0,0,0.1,0,0.1c0,0.1,0,0,0,0.1c0,0,0,0.1,0,0.1c0,0.1,0,0.1,0,0.1c0,0.1,0,0.1,0,0.1
		c0,0.1,0,0.1,0,0.1c0,0.1,0,0.2,0.1,0.2c0.1,0,0.1,0,0.1-0.1l0-0.2c0-0.2,0-0.1,0-0.1c0,0,0-0.1,0-0.1c0-0.1,0-0.1,0-0.1
		c0,0,0,0,0-0.1c0,0,0,0,0-0.1c0,0,0,0,0-0.1c0,0,0,0,0-0.1c0-0.1,0-0.1,0-0.1c0-0.1,0-0.1,0-0.1c0-0.1,0-0.2-0.1-0.2
		c0,0-0.1,0-0.1,0l0,0c0,0,0,0.1,0,0.1c0,0,0,0.1,0,0.1C-309.2,49.1-309.2,49.2-309.3,49.2"/>
	<path class="st6" d="M-302.6,45.5C-302.7,45.6-302.7,45.6-302.6,45.5l-0.6,0.1c-0.1,0-0.5,0.1-0.6,0.1c-0.1,0.1-0.1,0.1,0,0.2
		c0.1,0.1,0.2,0,0.3,0c0,0,0.1,0,0.1,0c0,0,0,0,0.1,0c0.2,0,0.2,0,0.2,0c0,0,0.1,0,0.1,0c0.1,0,0.1,0,0.2,0c0,0,0.1,0,0.1,0
		c0,0,0.2,0,0.2,0l0,0c0,0,0,0,0-0.1c0,0,0-0.1,0-0.1c0,0,0,0-0.1-0.1C-302.5,45.5-302.6,45.5-302.6,45.5"/>
	<path class="st6" d="M-304.5,48.6C-304.5,48.7-304.5,48.6-304.5,48.6c0,0.1,0.1,0.1,0.1,0.1l0,0.1c0,0,0,0,0,0c0,0,0,0,0,0
		c0,0,0,0.1,0.1,0.1c0,0,0,0,0,0c0,0,0,0,0,0c0,0,0,0,0,0l0.1,0.1c0,0.1,0.1,0.1,0.1,0.2c0,0,0,0,0.1,0c0,0,0.1,0,0.1-0.1
		c0-0.1,0-0.1-0.1-0.2l-0.2-0.3c0,0,0,0,0,0c0,0,0,0,0,0c0,0,0,0,0,0l-0.3-0.3c-0.1-0.1-0.1-0.2-0.2-0.2c-0.1,0-0.1,0.1-0.1,0.1
		C-304.8,48.3-304.5,48.6-304.5,48.6"/>
	<path class="st6" d="M-310.5,48.4c0,0-0.2,0.1-0.2,0.2c0,0,0,0,0,0c0,0.1-0.1,0.1,0,0.1c0,0,0,0.1,0,0.1c0,0,0.1,0,0.1,0
		c0,0,0.1,0,0.1,0c0,0,0,0,0,0l0,0c0,0,0,0,0,0c0,0,0,0,0,0c0,0,0,0,0,0l0.3-0.3c0,0,0,0,0,0c0,0,0,0,0,0c0.2-0.2,0-0.3,0-0.3
		c-0.1,0-0.1,0-0.1,0L-310.5,48.4C-310.5,48.4-310.5,48.4-310.5,48.4"/>
	<path class="st6" d="M-311.5,45.9L-311.5,45.9c0.1,0,0.1,0,0.2,0c0,0,0.1,0,0.2,0c0,0,0.1,0,0.1,0c0.2,0,0.2-0.2,0-0.2
		c-0.1,0-0.1,0-0.2,0c0,0,0,0-0.1,0c0,0-0.1,0-0.1,0c-0.1,0-0.1,0-0.2,0c0,0-0.1,0-0.1,0c-0.1,0-0.2-0.1-0.3,0c0,0,0,0.1,0,0.1
		c0,0.1,0.2,0.1,0.3,0.1C-311.6,45.9-311.6,45.9-311.5,45.9L-311.5,45.9C-311.5,45.9-311.5,45.9-311.5,45.9
		C-311.5,45.9-311.5,45.9-311.5,45.9"/>
	<path class="st6" d="M-309.6,42.7c-0.1,0-0.1,0.1,0,0.2c0,0,0.1,0.1,0.1,0.1l0.2,0.2c0.1,0.1,0.2,0.2,0.3,0.1c0,0,0,0,0-0.1
		c0,0,0-0.1,0-0.1c0,0,0,0,0,0c0,0,0,0,0,0c-0.1-0.1-0.1-0.1-0.2-0.2c0,0,0,0,0,0c0,0,0,0,0,0l-0.1-0.1c0,0,0,0,0,0c0,0,0,0,0,0
		c0,0,0,0,0,0l0-0.1c0,0,0,0,0,0c0,0,0,0,0,0l-0.1-0.1C-309.5,42.7-309.6,42.6-309.6,42.7"/>
	<path class="st6" d="M-306.4,42.1c0-0.1-0.2-0.2-0.2-0.1c0,0,0,0.3-0.1,0.4c0,0.1,0,0.1,0,0.1c0,0,0,0.1,0,0.2c0,0.1,0,0.1,0,0.1
		c0.1,0.1,0.2,0,0.2,0c0,0,0.1-0.4,0.1-0.4C-306.5,42.3-306.4,42.3-306.4,42.1"/>
	<path class="st6" d="M-308.7,47c0,0,0.1-0.2,0-0.2c0,0,0,0-0.1,0c0,0,0,0-0.1,0c0,0,0,0,0,0c-0.1,0-0.1-0.1-0.1-0.1c0,0,0,0,0,0
		c0-0.1,0-0.2,0-0.2c-0.1-0.1-0.3,0-0.2,0.2c0,0.1,0,0,0,0.2c0,0.1,0,0,0.1,0.1c0.1,0.1,0.1,0.1,0.2,0.2c0,0,0,0,0.1,0c0,0,0,0,0,0
		C-308.8,47.1-308.8,47-308.7,47"/>
	<path class="st6" d="M-305.7,48.8C-305.8,48.8-305.8,48.8-305.7,48.8c-0.1,0.1-0.1,0.1-0.1,0.2c0,0,0,0.1,0,0.1c0,0.1,0,0.1,0,0.1
		c0,0,0,0.1,0,0.1c0,0,0,0.1,0,0.1c0,0.1,0,0.2,0.1,0.2c0.2,0,0.1-0.2,0.1-0.3l0-0.3c0,0,0-0.2-0.1-0.3
		C-305.7,48.8-305.7,48.8-305.7,48.8C-305.7,48.8-305.7,48.8-305.7,48.8"/>
	<path class="st6" d="M-303.6,47.3L-303.6,47.3c0.1,0,0.2,0,0.3,0c0.1,0,0.1-0.1,0-0.2c0,0-0.3-0.1-0.3-0.1c0,0-0.1,0-0.1,0
		c0,0,0,0-0.1,0c0,0-0.1,0-0.1,0c-0.1,0-0.1-0.1-0.2,0c0,0,0,0,0,0.1c0,0.1,0.1,0.1,0.2,0.1c0,0,0,0,0.1,0
		C-303.7,47.3-303.7,47.3-303.6,47.3C-303.6,47.3-303.6,47.3-303.6,47.3L-303.6,47.3z"/>
	<path class="st6" d="M-306.9,49.9c-0.1,0,0,0.1-0.1,0.2c-0.1,0.1-0.2,0.2-0.3,0.2c-0.3,0-0.2-0.1-0.3-0.1c0,0-0.2,0.1-0.3,0
		c-0.1-0.1-0.1-0.1-0.1-0.2c0-0.2,0-0.2,0-0.2c0-0.1-0.1-0.1,0-0.2c0,0,0-0.1,0.1-0.1c0,0,0,0,0.1-0.1c0,0,0.1,0,0.1,0
		c0.1,0,0.1,0,0.1,0c0,0,0,0,0,0c0.1-0.1,0.3-0.3,0.5-0.1c0,0,0.1,0.1,0.1,0.2c0.1,0,0.1,0,0.2,0.1c0,0,0,0,0,0l0,0
		c0,0,0-0.1-0.1-0.1l0,0c-0.1,0-0.1,0-0.1,0c0,0,0,0,0-0.1c0-0.1,0,0-0.1-0.1c-0.1-0.1,0,0-0.1-0.1c-0.1,0-0.2,0-0.3,0l-0.1,0
		c0,0,0,0,0,0c0,0,0,0,0,0c-0.1,0-0.1,0.1-0.1,0.1c0,0.1,0,0,0,0.1c0,0,0,0.1-0.1,0.1c0,0-0.1,0-0.1,0c0,0,0,0,0,0c0,0,0,0,0,0
		c-0.1,0,0,0-0.1,0.1c-0.1,0.1-0.1,0.1-0.1,0.2c0,0.1,0,0.1,0,0.1c0.1,0.1,0,0,0,0.2c0,0,0,0.2,0,0.2l0.1,0.1c0.2,0.1,0.3,0,0.3,0
		c0.1,0,0.1,0.1,0.2,0.1c0.2,0,0.1,0,0.2,0c0.1,0,0.2-0.1,0.2-0.2C-306.9,50-306.9,50-306.9,49.9C-306.9,49.9-306.9,49.9-306.9,49.9
		L-306.9,49.9z"/>
	<path class="st6" d="M-302.6,45.5c0,0,0.1,0,0.1,0c0,0,0.1,0,0.1,0.1c0,0,0,0,0,0.1c0,0,0,0.1,0,0.1l0,0c0,0-0.2,0-0.2,0
		c0,0-0.1,0-0.1,0c-0.1,0-0.1,0-0.2,0c0,0-0.1,0-0.1,0c0,0,0,0-0.2,0c0,0-0.1,0-0.1,0c0,0-0.1,0-0.1,0c-0.1,0-0.2,0.1-0.3,0
		c0,0,0-0.1,0-0.2c0.1,0,0.5-0.1,0.6-0.1L-302.6,45.5C-302.7,45.6-302.7,45.6-302.6,45.5 M-302.6,45.5
		C-302.7,45.5-302.7,45.5-302.6,45.5C-302.7,45.5-302.7,45.5-302.6,45.5c-0.1,0-0.2,0-0.2,0c0,0,0,0-0.1,0c0,0-0.1,0-0.1,0
		c-0.1,0,0,0-0.1,0c-0.2,0-0.1,0-0.2,0c-0.1,0-0.1,0-0.1,0c-0.1,0-0.1,0-0.2,0c-0.1,0-0.2,0-0.2,0.2c0,0,0,0,0,0.1c0,0,0,0,0,0.1
		c0.1,0,0.2,0,0.3,0c0,0,0.1,0,0.1,0c0.1,0,0.1,0,0.1,0c0,0,0.1,0,0.1,0c0,0,0,0,0.1,0c0,0,0.1,0,0.1,0c0.1,0,0,0,0.1,0
		c0,0,0.1,0,0.1,0c0.1,0,0,0,0.1,0c0,0,0.1,0,0.1,0c0.1,0,0,0,0.1,0c0,0,0.1-0.1,0-0.2C-302.5,45.5-302.5,45.5-302.6,45.5"/>
	<path class="st6" d="M-303.8,43.5c-0.1,0-0.1,0.1-0.1,0.1c0,0.1,0.1,0.1,0,0.2c0,0-0.1,0-0.1,0c0,0,0-0.1,0-0.1
		c-0.1-0.2-0.2-0.1-0.2-0.1c0,0.1,0,0.1-0.1,0.1c0-0.1,0-0.1,0.1-0.2c0-0.1-0.1-0.1-0.1-0.2c0,0,0,0,0,0c0,0,0,0,0,0c0,0,0,0,0.1,0
		c0,0,0,0.1,0.1,0.1c0,0,0.1,0,0.1,0c0.1-0.1,0-0.2,0-0.3c0,0,0.1,0,0.1,0c0,0,0,0,0,0.1c0,0.1,0,0.1,0,0.2c0.1,0.1,0.1,0,0.2,0
		c0,0.1,0,0.1,0,0.1C-303.7,43.4-303.8,43.4-303.8,43.5 M-303.8,43.5L-303.8,43.5C-303.8,43.5-303.8,43.5-303.8,43.5
		c0.1,0,0.1,0,0.1,0c0,0,0,0,0-0.1c0-0.2-0.1-0.1-0.2-0.1c-0.1-0.1,0-0.1,0-0.2c-0.1,0-0.1,0-0.2,0.1c0,0.1,0.1,0.1,0,0.2
		c0,0-0.1,0.1-0.2,0c-0.1-0.1-0.1,0-0.2,0c0,0.1,0,0,0.1,0.1l0,0c0,0.1-0.1,0.1-0.1,0.3c0.1,0,0.1-0.1,0.2-0.1
		c0.2,0,0.1,0.2,0.2,0.2c0.1,0.1,0.2,0,0.2-0.1c0-0.1,0-0.1,0-0.1C-303.9,43.5-303.8,43.5-303.8,43.5"/>
	<path class="st6" d="M-307.8,44.4c0.1,0,0.1-0.1,0.1-0.1c0,0,0,0,0.1,0c0.1,0,0.2,0,0.3,0c0.1,0,0.1,0.1,0.2,0.1l0.1,0.1
		c0,0,0,0,0,0.1c0.1,0,0.3-0.1,0.4,0c0.2,0.1,0.2,0.4,0.2,0.6c0,0.1,0,0.2-0.2,0.2c-0.2,0,0-0.3,0-0.3l0,0c0,0-0.1,0.1,0,0.2
		c0,0.1,0.2,0.2,0.3-0.1c0,0,0-0.1,0-0.1c0-0.1,0-0.1,0-0.3c0-0.1-0.1-0.2-0.1-0.3c0,0-0.1-0.1-0.2-0.1c-0.1,0-0.2,0-0.3,0l0,0
		c0,0,0,0,0-0.1c0,0-0.1-0.1-0.1-0.1l0,0c0,0,0,0-0.1,0c0,0,0,0,0,0C-307.4,44.3-307.6,44.3-307.8,44.4
		C-307.7,44.4-307.7,44.4-307.8,44.4L-307.8,44.4C-307.8,44.4-307.7,44.4-307.8,44.4"/>
	<path class="st6" d="M-307.5,49.8C-307.5,49.8-307.4,49.8-307.5,49.8C-307.5,49.8-307.5,49.8-307.5,49.8c-0.1,0-0.1,0-0.2,0
		c0,0,0,0.1-0.1,0.1c0-0.1,0-0.1,0-0.2c0,0,0-0.1,0-0.1c0-0.1,0,0,0-0.1c0,0,0.1,0,0.1,0c0,0,0,0,0.1,0c0.1,0,0.1,0,0.2,0
		c0,0,0-0.1,0-0.1c0,0,0,0,0,0c0-0.1,0-0.1,0.1-0.1c0,0.3,0.1,0.2,0.2,0.2c0,0.2-0.1,0-0.2,0.2c0,0,0,0.1,0,0.1c0,0,0,0.1,0,0.1
		c0,0,0,0,0,0c0,0,0,0,0,0c0.2,0,0-0.2,0-0.2c0-0.2,0.1-0.1,0.2-0.1c0,0,0.1-0.1,0-0.2c0,0,0,0,0,0c0,0-0.1,0-0.1,0
		c-0.1-0.1,0-0.2,0-0.2c0,0-0.1,0-0.1,0c-0.1,0.1,0.1,0.3-0.1,0.3c-0.1,0-0.1,0-0.1-0.1c-0.1,0-0.1,0-0.1,0.1l0.1,0.1
		c0,0.1,0,0.1,0,0.2c-0.1,0.1,0,0.2,0.1,0.1c0,0,0,0,0,0C-307.6,49.9-307.7,49.8-307.5,49.8"/>
	<path class="st6" d="M-304.6,43.2c0,0,0.1-0.1,0.1-0.1c0,0,0.1,0,0.1,0c0,0,0.1,0,0.1,0c0.1,0,0-0.1,0.2-0.2c0.1,0,0.2-0.1,0.2-0.1
		c0.1,0,0.2,0.1,0.2,0.1c0,0.1,0.1,0.1,0.1,0.1c0.1,0,0.2,0.3,0.1,0.3c0,0.1,0,0.1-0.1,0.2c-0.1,0.1-0.1,0-0.1,0.1
		c0,0.1-0.1,0.1-0.1,0.2c0,0-0.1,0.1-0.1,0.1l-0.1,0c0.1,0,0.2-0.1,0.3-0.2c0.1-0.1,0-0.2,0.1-0.2c0,0,0.1,0,0.1-0.2
		c0-0.1,0,0,0-0.2c0-0.1,0-0.1,0-0.1c0,0,0-0.1-0.1-0.1c0,0-0.1-0.1-0.1-0.1c0-0.1,0-0.1-0.1-0.2c0,0,0,0,0,0c-0.1,0,0,0-0.1,0
		c-0.1,0-0.1,0-0.2,0c0,0-0.1,0.1-0.2,0.1c0,0,0,0,0,0l0,0.1c0,0,0,0,0,0C-304.4,43.1-304.5,43.1-304.6,43.2
		C-304.5,43.2-304.5,43.2-304.6,43.2"/>
	<path class="st6" d="M-311.5,45.9C-311.5,45.9-311.5,45.9-311.5,45.9C-311.5,45.9-311.5,45.9-311.5,45.9L-311.5,45.9
		c-0.1,0-0.1,0-0.1,0c-0.1,0-0.2,0-0.3-0.1c0,0,0-0.1,0-0.1c0.1-0.1,0.2,0,0.3,0c0.1,0,0.1,0,0.1,0c0,0,0.1,0,0.2,0c0,0,0.1,0,0.1,0
		c0,0,0,0,0.1,0c0,0,0.1,0,0.2,0c0.2,0,0.2,0.3,0,0.2c-0.1,0-0.1,0-0.1,0c-0.1,0-0.1,0-0.2,0C-311.4,45.9-311.4,45.9-311.5,45.9
		C-311.5,45.9-311.5,45.9-311.5,45.9C-311.4,46-311.4,46-311.5,45.9c0.1,0,0.1,0,0.2,0c0,0,0,0,0.1,0c0.1,0,0.2,0,0.2,0c0,0,0,0,0,0
		c0,0,0-0.1,0-0.1c-0.1-0.1-0.1,0-0.2-0.1c0,0-0.1,0-0.1,0c0,0-0.1,0-0.1,0c0,0-0.1,0-0.1,0c0,0-0.1,0-0.1,0c-0.1,0-0.2,0-0.2,0.1
		c0,0.1,0,0.1,0.1,0.2C-311.8,45.9-311.5,45.9-311.5,45.9"/>
	<path class="st6" d="M-305.7,48.8C-305.7,48.8-305.7,48.8-305.7,48.8c0.1,0.1,0.1,0.3,0.2,0.3l0,0.3c0,0.1,0.1,0.3-0.1,0.3
		c-0.1,0-0.1-0.1-0.1-0.2c0,0,0-0.1,0-0.1c0-0.1,0-0.1,0-0.1c0-0.1,0-0.1,0-0.1c0,0,0-0.1,0-0.1c0,0,0-0.1,0-0.1
		C-305.8,48.8-305.8,48.8-305.7,48.8C-305.7,48.8-305.7,48.8-305.7,48.8 M-305.8,49.2C-305.8,49.2-305.8,49.2-305.8,49.2
		c0,0.1,0,0.1,0,0.2c0,0,0,0.1,0,0.2l0,0.1c0.1,0,0.2,0.1,0.2-0.1c0-0.1,0-0.1,0-0.1c0,0,0-0.1,0-0.1c0-0.1,0,0,0-0.2
		c0-0.1,0-0.1,0-0.1c0-0.1,0-0.2-0.1-0.3c0,0-0.1-0.1-0.1,0c0,0-0.1,0-0.1,0.1c0,0,0,0.1,0,0.2c0,0,0,0,0,0.1
		C-305.8,49.1-305.8,49.2-305.8,49.2"/>
	<path class="st6" d="M-303.6,47.3L-303.6,47.3C-303.6,47.3-303.6,47.3-303.6,47.3c-0.2,0-0.1,0-0.2-0.1c0,0,0,0-0.1,0
		c0,0-0.2,0-0.2-0.1c0-0.1,0-0.1,0-0.1c0.1-0.1,0.1,0,0.2,0c0,0,0.1,0,0.1,0c0,0,0,0,0.1,0c0,0,0.1,0,0.1,0c0.1,0,0.3,0.1,0.3,0.1
		c0.1,0.1,0,0.2,0,0.2C-303.3,47.3-303.5,47.3-303.6,47.3l0.2,0.1c0,0,0.1,0,0.1,0l0,0c0.1-0.1,0-0.3-0.1-0.3c-0.2,0,0,0-0.3,0
		c0,0,0,0,0,0c0,0-0.1,0-0.1,0c-0.1,0-0.1,0-0.2,0c-0.1,0-0.1,0-0.2,0c0,0,0,0,0,0c0,0,0,0,0,0c0,0,0,0,0,0c-0.1,0.1-0.1,0.1,0,0.2
		c0,0,0,0,0,0c0,0,0,0,0,0c0,0,0,0,0,0c0,0,0,0,0,0c0,0,0.3,0.1,0.3,0.1C-303.7,47.3-303.6,47.3-303.6,47.3"/>
	<path class="st6" d="M-308.7,47c0,0-0.1,0-0.1,0c0,0,0,0,0,0c0,0,0,0-0.1,0c-0.1-0.1-0.2-0.1-0.2-0.2c-0.1-0.1,0-0.1-0.1-0.1
		c-0.1-0.1,0-0.1,0-0.2c-0.1-0.2,0.1-0.3,0.2-0.2c0,0,0,0.2,0,0.2c0,0,0,0,0,0c0,0,0,0.1,0.1,0.1c0-0.1-0.1-0.1-0.1-0.2
		c0-0.1,0-0.2,0-0.2l0,0c-0.1,0-0.1,0-0.2,0c0,0-0.1,0.1-0.1,0.2c0,0.1,0,0.1,0,0.2c0,0.1,0,0,0,0.1c0.1,0.1,0,0.1,0.2,0.2
		c0,0,0,0,0,0c0.1,0.1,0,0,0.1,0.1C-309,47-308.8,47.1-308.7,47C-308.7,47.1-308.7,47.1-308.7,47"/>
	<path class="st6" d="M-308.2,42.4c0,0,0,0.1,0,0.1c0,0,0,0,0,0.1c0,0.1,0,0,0,0.1c0,0,0,0.1,0,0.1c0,0,0,0,0,0c0,0,0,0,0,0.1
		c0,0.1,0,0,0,0.1c0.1,0,0.1,0,0.2,0c0-0.1,0-0.1,0-0.2c0,0,0,0,0-0.1c0-0.2,0-0.1,0-0.2c0-0.1,0,0,0-0.2l0-0.1l0.1,0.4
		c0,0,0,0,0,0.1c0,0,0.1,0.1,0,0.2c-0.1,0-0.1,0-0.1,0c0-0.1,0-0.1-0.1-0.2c0,0,0-0.1,0-0.1c0,0,0,0,0-0.1
		C-308.2,42.5-308.2,42.4-308.2,42.4L-308.2,42.4z"/>
	<path class="st6" d="M-304.5,48.6c0-0.1-0.3-0.3-0.3-0.4c0,0,0.1-0.1,0.1-0.1c0,0,0.1,0.1,0.2,0.2l0.3,0.3c0,0,0,0,0,0c0,0,0,0,0,0
		c0,0,0,0,0,0c0,0,0,0,0,0l-0.1-0.1c-0.1-0.1,0,0-0.1-0.1l-0.1-0.1c-0.1-0.1-0.1-0.2-0.2-0.2c-0.1,0-0.2,0.1-0.2,0.2c0,0,0,0,0,0
		c0,0,0,0,0,0l0,0c0,0,0,0,0,0.1L-304.5,48.6C-304.6,48.6-304.6,48.6-304.5,48.6"/>
	<path class="st6" d="M-303.9,44.1c-0.1,0-0.2,0-0.3-0.1c-0.1-0.1-0.3,0.1-0.4-0.1c-0.1-0.2,0-0.3-0.1-0.4c0,0.2,0,0.1,0,0.2
		c0,0,0,0.1,0.1,0.2c0,0.1,0.2,0.1,0.3,0.1c0.1,0,0-0.1,0.1,0c0,0,0,0,0,0c0,0,0.1,0,0.1,0C-303.9,44.1-303.9,44.1-303.9,44.1"/>
	<path class="st6" d="M-304.2,49C-304.2,49-304.2,49-304.2,49l0.2,0.3c0,0,0,0,0,0c0,0,0.1,0,0.1,0c0,0,0.1,0,0.1,0c0,0,0,0,0-0.1
		c0-0.1-0.1-0.2-0.1-0.3l-0.1-0.1c0,0-0.1-0.1-0.1-0.1l0.2,0.3c0.1,0.1,0.1,0.1,0.1,0.2c0,0.1-0.1,0.1-0.1,0.1c0,0-0.1,0-0.1,0
		C-304,49.2-304.1,49.1-304.2,49L-304.2,49C-304.2,49-304.2,49-304.2,49C-304.2,49-304.2,49-304.2,49C-304.2,49-304.2,49-304.2,49"
		/>
	<path class="st6" d="M-309.3,49.2c0,0,0-0.1,0-0.1c0,0,0-0.1,0-0.1c0-0.1,0-0.1,0-0.1l0,0c0,0,0,0,0.1,0c0.1,0,0.1,0.1,0.1,0.2
		c0,0.1,0,0.1,0,0.1c0,0.1,0,0.1,0,0.1c0,0,0,0,0,0c0,0,0,0,0,0c0,0,0-0.1,0-0.1c0,0,0.1-0.2,0-0.3c0,0,0,0,0,0c0,0-0.1,0-0.2,0
		c0,0.1,0,0,0,0.1c0,0.1,0,0,0,0.1C-309.2,49.1-309.3,49.1-309.3,49.2"/>
	<path class="st6" d="M-288.4,99.3c0.2,0,0.3,0.2,0.3,0.3c0,0.2-0.1,0.3-0.3,0.3c-0.2,0-0.3-0.2-0.3-0.3
		C-288.8,99.4-288.6,99.3-288.4,99.3"/>
</g>
<g>
	<defs>
		<path id="SVGID_6_" d="M-288.3,58c0,18.3,14.8,33.1,33,33.1c18.2,0,33-14.8,33-33.1c0-18.3-14.8-33.1-33-33.1
			C-273.5,24.9-288.3,39.7-288.3,58"/>
	</defs>
	<linearGradient id="SVGID_7_" gradientUnits="userSpaceOnUse" x1="-288.2566" y1="57.9903" x2="-222.2943" y2="57.9903">
		<stop  offset="0" style="stop-color:#FFC75E"/>
		<stop  offset="1" style="stop-color:#F03EA1"/>
	</linearGradient>
	<use xlink:href="#SVGID_6_"  style="overflow:visible;fill:url(#SVGID_7_);"/>
	<clipPath id="SVGID_8_">
		<use xlink:href="#SVGID_6_"  style="overflow:visible;"/>
	</clipPath>
	
		<linearGradient id="SVGID_9_" gradientUnits="userSpaceOnUse" x1="-149.7707" y1="308.3883" x2="-149.2714" y2="308.3883" gradientTransform="matrix(0 139.9859 139.9859 0 -43425.2852 20988.8086)">
		<stop  offset="0" style="stop-color:#FFC75E"/>
		<stop  offset="1" style="stop-color:#F03EA1"/>
	</linearGradient>
	<rect x="-288.3" y="24.9" class="st12" width="66" height="66.2"/>
</g>
<g>
	<defs>
		<rect id="SVGID_10_" x="-387.1" y="-72.8" width="255.7" height="255.7"/>
	</defs>
	<clipPath id="SVGID_11_">
		<use xlink:href="#SVGID_10_"  style="overflow:visible;"/>
	</clipPath>
	<path class="st13" d="M-232.1,63.9c0.7-2.8,0.6-5.6,0.6-8.5c-1.3-5-1.2-7.1-3.9-11.2c-2.1-3.1-4.5-5.7-7.6-7.8
		c-6.8-4.4-16.2-5.6-24.5-2c-6.5,2.8-12.2,8.9-14.4,16.5c-2,7.1-0.8,15.4,3.5,21.5l1.2,1.6c0.6,0.6,0,0.2,0.8,0.6
		c0-5.5,0-10.9,0.1-16.1c0.1-16.2,15.9-23.9,27.9-17.8c18.1,9.2,11.6,36.4-8.5,36.5l-0.1,6.4C-244.1,83.5-235.6,75.6-232.1,63.9
		 M-263.3,56.4c2.1-7.8,13-5.4,12.7,1.9c-0.4,7.6-11.6,8.2-12.8,0.8L-263.3,56.4z M-269.6,62.4c0.2-1.8,0.1-3.4,0.1-5.2
		c0-0.8,0.1-1.6,0.3-2.4c0.1-0.4,0.1-0.7,0.2-1l0.3-0.7c0-0.1,0.1-0.2,0.1-0.2c0.5-2.4,3.2-5.1,4.6-6.2c1.9-1.5,4.7-2.7,7.9-2.8
		c13.4-0.3,18.6,16.5,9.4,24c-7.6,6.2-13.3,2.3-15.9,1.8l0,14.5c-2.7-0.5-4.7-1.7-6.8-2.7L-269.6,62.4z"/>
	<path class="st13" d="M-218.9,99.7l-3.4-3.4v2.2c-2.5,0-4.6,2-4.6,4.6c0.9-1.7,2.8-2.6,4.6-2.3v2.2L-218.9,99.7z"/>
	<polygon class="st14" points="-257.3,-1.4 -256,1.1 -253.3,1.5 -255.3,3.4 -254.8,6.2 -257.3,4.9 -259.7,6.2 -259.3,3.4 
		-261.3,1.5 -258.5,1.1 	"/>
</g>
</svg>
