<?xml version="1.0" encoding="utf-8"?>
<!-- Generator: Adobe Illustrator 23.0.1, SVG Export Plug-In . SVG Version: 6.00 Build 0)  -->
<svg version="1.1" id="Layer_1" xmlns="http://www.w3.org/2000/svg" xmlns:xlink="http://www.w3.org/1999/xlink" x="0px" y="0px"
	 viewBox="0 0 512 512" style="enable-background:new 0 0 512 512;" xml:space="preserve">
<style type="text/css">
	.st0{fill:#C3C3C3;}
</style>
<g>
	<path class="st0" d="M448,313.3c0,4.6,0,9.2,0,13.7c-1.1,4.1-2,8.2-3.4,12.3c-9,25.9-33.6,42.6-62.7,42.6
		c-81.6,0.1-163,0-244.6,0.1c-3.2,0-6.4,0-9.6-0.1c-28.4-1.2-50.8-17-59.7-42.2c-1.6-4.7-2.7-9.6-3.9-14.5c0-4.6,0-9.2,0-13.7
		c0.3-0.7,0.6-1.4,0.7-2.1c2.4-15.2,10-27.5,21.8-36.9c13.4-10.6,18.2-24.3,17.6-41c-0.6-16.3-0.8-32.6,0.2-48.9
		c4.1-63.7,51-118.6,113.2-133.3c8.2-1.9,16.8-3,25.1-4.6c6.5-0.7,13-0.7,19.8,0c1.4,0.3,4.9,0.6,6.2,0.8
		c44.4,4.7,80.8,24,108.5,59.1c20.6,26.1,29.4,56.5,30.3,89.4c0.5,16.8,0.4,33.5,0.4,50.3c0,7.6,2.7,13.9,8.1,19.2
		c4.8,4.7,9.5,9.4,14.2,14.3c7.3,7.6,12.9,16.2,15.7,26.5C446.6,307.4,447.3,310.3,448,313.3z M256.3,340.8L256.3,340.8
		c33.5,0.1,66.9,0.1,100.4,0c8.9,0,17.7,0.1,26.6-0.2c10-0.4,17-5.7,20.2-14.5c3.3-9.3,0.8-17.1-6.4-23.6c-5.7-5-11.5-10-17.5-14.8
		c-6.1-4.9-10.7-11.1-12.1-18.9c-1.1-6-1.5-12.1-1.6-18.1c-0.3-18.3,0.2-36.7-0.5-54.9c-0.5-17-3.4-33.6-11.1-49.2
		c-21.1-43-69.7-68.1-116.8-59.6c-40.5,7.2-69.6,29.6-84.2,68.5c-9.3,24.7-9.4,50.7-7.1,76.4c2.7,29.1-2.9,53.5-30,69.7
		c-7.1,4.3-10.2,12.1-8.6,20.8c1.6,9.2,7.5,14.9,16.4,17c4.1,1,8.4,1.1,12.7,1.1C176.6,340.8,216.4,340.8,256.3,340.8z"/>
	<path class="st0" d="M250,467.2c-5.8-1.2-11.6-2.1-17.3-3.6c-14.5-3.7-27-11-37.8-21.4c-1.7-1.6-3.4-3.6-4.8-5.5
		c-5.6-8.1-5.6-16.6-0.1-23.7c5.9-7.6,14.8-10.4,23.6-7.1c3.8,1.5,7.4,3.7,10.5,6.1c22,17.4,41.1,17.5,63.3,0
		c2.5-1.9,5.2-3.8,8.1-5.1c9.7-4.7,19.3-2.5,25.8,5.7c6.1,7.6,6,17-0.9,25.6c-8.6,10.4-19.6,18-32.3,22.5c-8,2.8-16.4,4.4-24.6,6.5
		C259.2,467.2,254.6,467.2,250,467.2z"/>
</g>
</svg>
