<svg xmlns="http://www.w3.org/2000/svg" width="512" height="512" viewBox="0 0 512 512">
  <defs>
    <style>
      .cls-1 {
        fill: #fff;
        fill-rule: evenodd;
      }
    </style>
  </defs>
  <path class="cls-1" d="M378.609,46c1.347,3.8,4.853,8.911,3.525,11.1-1.905,3.133-7.189,5.346-11.287,5.843-22.759,2.755-39.552,18.207-42.4,39.186,13.787,0,27.67.022,41.551-.01,5.939-.013,11.249,1.336,11.322,8.416,0.074,7.063-5.05,8.61-11.105,8.558-9.7-.081-19.485-0.762-29.047.374-3.7.44-9.291,4.781-9.778,7.985-0.841,5.549,1.889,11.73,9.632,11.178,27.051-1.929,45.429,17.229,67.233,27.829,3.107,1.511,5.309,9.874,4.069,13.873s-6.922,8.145-11.392,9.239c-6.443,1.58-13.637,1.157-20.352.318-8.854-1.1-12.478,2.686-15.416,10.623-7.2,19.445-15.749,38.391-23.2,57.749-2.446,6.352-5.992,8.855-12.679,8.7-8.966-.2-17.948.43-26.925,0.614-5.882.121-8.372,1.975-6.764,8.628,3.911,16.173,4.693,18.053,18.05,29.129-14.037,7.56-10.668,20.724-10.732,32.818-0.121,22.927.041,45.855-.066,68.783-0.066,13.977-6.91,22.022-18.168,21.8-10.779-.215-17.092-7.879-17.16-21.588-0.142-28.659-.047-57.319-0.049-85.978v-12.57c-23.228,0-45.061-.443-66.861.213-9.064.272-19.871,23.356-15.461,31.223,3.283,5.857,6.615,11.687,10.126,17.883-6.074,2.416-11.508,4.12-16.493,6.69-5.048,2.6-9.652,6.063-14.256,9.022-12.682-14.592-18.043-31.35-15.954-51.045-8.875,10.921-20.747,19.022-19.557,35.606,1.175,16.395.4,32.941,0.19,49.419-0.163,12.555-6.965,19.888-17.695,19.74-10.567-.146-17.222-7.729-17.316-20.262-0.149-19.7-.528-39.424.227-59.1a29.331,29.331,0,0,1,6.413-16.352c10.532-12.767,11.342-27.076,8.961-45.009L96.863,305.548l-2.791-.9V264.5c0-8.6-.069-17.2.017-25.794,0.187-18.618,10.5-28.739,29.867-28.784,51-.117,102.01-0.481,153,0.284,11.947,0.179,19.207-3.12,24.7-13.583,5.121-9.756,11.878-18.658,18.34-28.588l-26.968-27.4,20.716-2.237c-1.34-10.279-3.894-20.383-3.73-30.443,0.431-26.347,18.2-49.338,43.553-58.282C356.9,48.5,360.2,47.228,363.521,46h15.088ZM115.635,476c-15.13-12.072-14.108-20.557,3.945-28.179,15.877-6.7,26.5-16.867,30.111-34.639,6.024-29.68,23.559-48.3,54.9-51.888,9.5-1.088,11.773-6.149,8.891-15.027a92.892,92.892,0,0,1-4.13-24.048c13.72,6.959,25.209,7.695,33.95-5.073,6.985,6.812,9.319,23.654,6.129,31.012-1.965,4.534-3.361,10.136-2.587,14.864,1.809,11.041-.083,19.841-8.079,28.4-13.186,14.115-13.022,34.441-1.581,50.087,1.636,2.237,1.138,6.028,1.627,9.1-2.891-.456-7.091.124-8.431-1.559-4.523-5.684-8.019-12.178-11.931-18.348-1.785-2.814-3.5-7.78-5.466-7.887-3.134-.172-7.228,2.2-9.5,4.757-3.223,3.626-5.157,8.39-7.155,11.83L209,446.829l-1.53,4.517c-18.32-1.045-36.782-3.9-54.912-2.5-12.063.935-23.726,7.788-35.184,12.855-0.452.2,3.063,9.328,4.73,14.3h-6.467Zm324.731-53.489c3.2,25.383-5.543,35.649-29.143,35.651q-44.149,0-88.3-.021c-3.473,0-6.946-.292-11.45-0.5,3.261-9.589,11.243-10.342,18.05-11.625,7.721-1.454,12.154-3.574,13.524-12.761,1.921-12.87,11.777-20.812,23.1-26.529,4.042-2.041,8.192-3.867,12.593-5.932-6.947-5.9-12.375-3.729-35.818,13.715-1.916-5.8-3.759-11.377-6.394-19.354-4.854,14.435-8.981,26.711-13.11,38.986-2.849,8.473-20.676,23.436-26.09,22.785,15.439-31.112,16.427-66.144,25.116-99.155,2.181-8.286,2.336-17.259,5.468-25.1,5.759-14.427.355-23.271-11.307-31.386-14.314-9.961-13.968-10.455-16.685-29.074l45.651-2.193,3.444-13.152,2.818-.727q34.968,90.82,70.081,182.013c2.325-1.683,5.879-3.984,9.112-6.671C434.022,429,436.671,426.1,440.366,422.511ZM230.085,70.062c5.333,12.5,9,25.923.239,36.77-7.534,9.328-19.183,15.351-28.448,25.3,11.884-.519,23.767-1.037,36.88-1.611-3.526,11.8-9.6,21.03-21.329,23.494-12.654,2.659-26.265,5.608-36.289-7.368-1-1.294-3.949-1.153-6.018-1.551-14.412-2.766-24.356-10.332-30.179-24.357-2.442-5.882-8.748-10.169-13.285-15.167,11.385-9.713,17.019-9.443,29.761,1.1a14.1,14.1,0,0,0,11.1,2.422c2.282-.625,3.281-5.639,5.021-8.593,1.3-2.2,2.4-5.266,4.4-6.19,8.079-3.732,16.729-6.273,24.681-10.229C214.524,80.152,221.844,75.053,230.085,70.062Zm-89.733,27.8L118.884,62.22c20.135-2.525,43.974,17.32,53.612,45.107C159.623,108.639,153.879,87.853,140.352,97.866Z"/>
</svg>
