<svg xmlns="http://www.w3.org/2000/svg" width="512" height="512" viewBox="0 0 512 512">
  <defs>
    <style>
      .cls-1 {
        fill: #fff;
        fill-rule: evenodd;
      }
    </style>
  </defs>
  <path class="cls-1" d="M194.968,448.025c-22.74,7.484-42.744,16.039-63.628,20.524-41.632,8.94-76.263-26.147-69.205-68.144,5.745-34.189,24.086-62.251,44.049-89.3,11.027-14.944,23.842-28.577,35.424-42.3,7.526,5.836,14.024,10.663,20.227,15.842,1.445,1.206,2.184,3.525,2.744,5.476,13.226,46.052,55.13,69.464,102.389,55.458,14.737-4.369,30.194-10.949,41.639-20.777,24.074-20.673,45.71-44.167,68.346-66.5q-1.159-1.48-2.322-2.961c-18.446,5.678-36.879,11.4-55.347,17.008-6.061,1.841-12.139,3.752-18.338,4.994-21.807,4.372-22.517,3.09-35.469-14.381-6.642-8.958-16.1-16.156-25.261-22.826-5.8-4.227-14.54-4.7-19.863-9.274s-8.024-12.167-12.487-19.435c51.421-37.186,104.95-70.554,170.309-78.122,12.035-1.393,24.748-.38,36.723,1.821,23.885,4.391,38.847,22.988,43.816,50.6,5.018,27.887,1.444,55.1-6.951,81.574C429.473,337.6,392.084,397.077,326.31,435.111c-25.131,14.532-52.188,24.052-81.331,26.362C220.3,463.43,212.7,460.9,194.968,448.025ZM124.549,427.7c21.253-.132,45.407-26.261,43.807-47.386-0.911-12.025-9.867-19.926-21.736-19.178-20.67,1.3-43.032,25.742-42.556,46.508C104.351,420.149,112.141,427.776,124.549,427.7Zm184.612-56.34c-14.926,2.83-25.962,7.694-33.728,18.263-8.722,11.869-3.525,24.234,11.13,26.313,13.035,1.85,25-2.353,33.31-12.143,4.2-4.952,7.893-14.184,6-19.388C323.838,378.782,315.022,375.6,309.161,371.358Zm60.561-21.636c12.216,0.151,26.374-9.625,30.246-20.884,3.758-10.927-2.469-19.555-13.961-19.345-11.23.206-25.444,10.216-29.513,20.785C352.23,341.352,357.824,349.576,369.722,349.722Zm29.243-81.3c17.009-.286,32.342-12.858,31.812-23.235-0.452-8.867-6.829-11.8-14.672-11.6-13.092.348-28.693,13.516-26.482,23.542C390.734,262.174,396.925,266.1,398.965,268.423Zm-0.121-66.977c13.746,0.25,26.589-9.587,25.431-18.159-0.52-3.85-5.963-9.223-9.934-9.993-9.766-1.889-23.779,9.749-22.5,18.359C392.469,195.858,397.318,199.438,398.844,201.446ZM56.046,43c4.658,4.767,10.061,9.014,13.833,14.4,10.886,15.539,20.879,31.7,31.656,47.315,17.113,24.8,34.5,49.417,51.926,74,8.356,11.784,6.519,17.681-9.45,28.294-11.176,7.428-19.158,6.439-24.865-5.245Q87.117,136.195,56.424,69.992C53.034,62.681,52.73,53.947,51,45.871ZM312.458,295.58c-19.14,26.3-62.248,40.867-91.477,31.379-17.511-5.685-28.884-17.7-35.564-34.584-2.693-6.806-1.514-12.1,4.448-16.631,5.332-4.057,10.3-8.6,15.354-13.008,12.244-10.682,23.631-11,35.506.1a53.427,53.427,0,0,1,11.946,15.941c7.161,15.42,18.926,21.142,35.273,19.283C295.9,297.151,303.873,296.441,312.458,295.58ZM165.831,205.4c6.349,3.427,10.658,4.88,13.812,7.643A221.45,221.45,0,0,1,197.015,230.4c7.681,8.4,7.152,16.152-1.319,24.222-2.962,2.822-6.069,5.508-9.24,8.1-9.513,7.77-16.935,6.978-24.757-2.706-4.441-5.5-9.916-10.617-12.661-16.892-2.715-6.2-5.653-15.35-2.976-20.148C150.09,215.753,158.92,211.191,165.831,205.4Z"/>
</svg>
