<svg xmlns="http://www.w3.org/2000/svg" width="512" height="512" viewBox="0 0 512 512">
  <defs>
    <style>
      .cls-1 {
        fill: #fff;
        fill-rule: evenodd;
      }
    </style>
  </defs>
  <path class="cls-1" d="M270.011,478H240.494c-3.271-.416-6.549-0.783-9.811-1.258-7.85-1.142-11.724-5.312-12.257-13.171-0.157-2.307-.186-4.623-0.3-6.933-1.22-24.05-22.79-44.617-46.847-44.633-14.694-.01-27.317,5.011-37.843,15.395-5.637,5.561-12.123,5.986-17.882,1.313a218.5,218.5,0,0,1-34.343-34.822c-4.159-5.3-3.886-11.411.539-16.6,1.125-1.319,2.323-2.577,3.507-3.845,19.255-20.624,16.541-54.128-5.71-71.5-9-7.027-19.233-10.119-30.522-10.64-9.789-.453-14.664-5.685-15.126-15.342A46.014,46.014,0,0,0,33,270.528q0-15.192,0-30.384c0.5-3.384.865-6.8,1.532-10.147,1.432-7.2,4.722-10.15,11.939-10.977,4.3-.493,8.655-0.667,12.889-1.485,23.864-4.608,39.781-23.922,39.788-48.133,0-14.092-5.745-25.645-15.554-35.5-5.533-5.561-5.9-12.075-1.191-17.9a217.342,217.342,0,0,1,35.157-34.649c5.2-4.067,11.6-3.725,16.632.65,1.527,1.329,2.966,2.761,4.507,4.074,21.211,18.068,58.055,17.42,74.983-12.708a51.117,51.117,0,0,0,6.263-24.46c0.209-9.264,5.122-13.909,14.374-14.418,2.308-.127,4.614-0.565,6.914-0.521,13.138,0.253,26.3.248,39.4,1.074C287.745,35.493,291.5,40.3,292.08,47.5c0.2,2.449.187,4.914,0.3,7.371,1.112,23.812,22.658,44.554,46.4,44.68,14.866,0.079,27.648-4.9,38.3-15.406,5.373-5.3,11.83-6.045,17.2-1.778a206.227,206.227,0,0,1,35.574,36.044c3.552,4.638,3.14,10.666-.576,15.232-1.367,1.68-2.891,3.234-4.369,4.823-18.7,20.1-16.009,53.679,5.542,70.6,8.979,7.054,19.2,10.254,30.426,11.076,11.124,0.814,15.225,5.285,15.747,16.517,0.074,1.587.456,3.17,0.417,4.748-0.343,13.56-.426,27.141-1.282,40.671-0.393,6.224-5.656,10.145-11.889,10.472-2.885.151-5.771,0.272-8.654,0.444-22.585,1.347-42.98,22.476-43.9,45.1-0.63,15.522,4.548,28.513,15.516,39.438,5.708,5.687,5.981,12.269,1.1,18.229a223.136,223.136,0,0,1-34.517,34.077c-5.588,4.4-11.962,4.181-17.328-.51-1.415-1.238-2.762-2.554-4.184-3.784-18.956-16.4-52.5-18.11-71.227,6.7a48.309,48.309,0,0,0-10.034,28.934c-0.2,10.967-4.758,15.391-15.613,15.927A39.2,39.2,0,0,0,270.011,478ZM383.184,255.608c-0.348-70.94-57.663-128.1-128.1-127.756-70.951.349-128.117,57.655-127.769,128.082,0.352,70.946,57.659,128.1,128.1,127.755C326.368,383.339,383.53,326.037,383.184,255.608Zm-36.822-15.116c6.581,14.429,7.214,29.512,6.941,44.778-0.215,12-.014,24-0.056,36.007-0.028,8.173-4.407,12.6-12.486,12.693-4.338.047-8.68,0.088-13.015-.047-6.3-.2-10.718-4.742-10.854-11.1-0.086-4.02-.016-8.043-0.016-12.371H193.568c0,4.019.046,7.889-.009,11.757-0.1,7.077-4.548,11.6-11.617,11.74-4.626.09-9.259,0.109-13.882-.034-6.081-.188-10.792-4.7-10.82-10.72-0.088-18.653-.548-37.333.29-55.951,0.4-8.927,3.4-17.737,5.069-25.868-2.832-2.131-7.286-3.874-8.782-7.021-1.828-3.845-1.813-8.927-1.425-13.371,0.446-5.1,5.459-7.737,10.8-6.5,3.343,0.775,6.64,1.749,10.281,2.721,3.3-7.966,6.486-15.668,9.672-23.37,4.712-11.388,12.019-16.3,24.381-16.307q47.726-.023,95.451,0c12.286,0.006,19.642,5,24.321,16.423,2.624,6.406,5.39,12.759,7.8,19.245,1.168,3.149,2.514,4.541,5.965,3a31.475,31.475,0,0,1,6.669-1.81c5.616-1.126,10.191,2.2,10.7,7.869a46.3,46.3,0,0,1,.015,8.233C357.946,235.98,353.778,239.5,346.362,240.492Zm-91.29,1.749c22.129,0,44.258.038,66.387-.022,7.433-.02,9.416-3,6.65-9.826q-7.389-18.249-14.932-36.436c-2.661-6.419-7.577-9.646-14.523-9.65q-43.606-.025-87.213,0c-4.9,0-9.909,1.4-11.891,5.809-6.5,14.438-12.4,29.149-18.205,43.884-1.258,3.191.747,5.566,4.32,5.982a44.954,44.954,0,0,0,5.191.251Q222.964,242.258,255.072,242.241Zm-57.413,46.673c5.047,0,10.094-.015,15.141,0,3.411,0.014,5.048-1.8,5.108-5.061,0.08-4.325.026-8.652,0.023-12.977,0-3.531-1.861-5.432-5.3-5.462-9.661-.087-19.323-0.052-28.985-0.023-3.7.011-5.568,1.966-5.59,5.65-0.024,4.038-.017,8.075,0,12.112,0.012,3.819,1.661,5.909,5.767,5.793C188.427,288.819,193.045,288.92,197.659,288.914ZM311.9,288.92c4.77,0,9.542-.1,14.309.029,4.1,0.108,5.763-1.791,5.635-5.785-0.13-4.042-.117-8.094,0-12.138,0.106-3.87-1.856-5.609-5.5-5.627q-14.31-.071-28.619,0c-3.42.016-5.437,1.608-5.411,5.276,0.032,4.336.023,8.671,0,13.007-0.019,3.565,1.629,5.318,5.283,5.255C302.358,288.855,307.129,288.917,311.9,288.92Z"/>
</svg>
