<svg xmlns="http://www.w3.org/2000/svg" width="512" height="512" viewBox="0 0 512 512">
  <defs>
    <style>
      .cls-1 {
        fill: #fff;
        fill-rule: evenodd;
      }
    </style>
  </defs>
  <path class="cls-1" d="M103.867,376.277c0,8.069.046,15.718-.01,23.366-0.1,13.365-7.912,21.221-21.147,21.286-8.184.04-16.369,0.119-24.551-.018-11.409-.192-19.371-8.25-19.605-19.808-0.167-8.263-.124-16.531-0.187-24.8a4.153,4.153,0,0,0-.429-0.958c-10.9-2.094-13.828-10.165-13.817-20.381,0.035-32.483-.467-64.976.133-97.448,0.517-28.031,16.48-46.071,39.987-58.448,1.813-.955,3.682-1.8,7.117-3.478-9.855-.675-17.925-1.176-25.986-1.795-10.991-.844-14.163-4.77-14.043-17.173,0.095-9.8,4.067-13.711,14.484-14.357,6.027-.375,12.045-0.911,18.074-1.246,13.8-.765,13.8-0.733,25.124,6.185,6.665-12.659,13.376-25.266,19.956-37.942,8.133-15.671,20.106-27.147,36.791-32.656,7.109-2.348,14.841-3.306,22.359-3.769,61.913-3.8,123.838-4.413,185.694,1,21.261,1.862,36.479,13.924,47.091,31.954,6.859,11.653,12.778,23.871,19.139,35.825,0.993,1.867,2.091,3.676,3.452,6.056,7.055-6.929,15.281-7.767,24.113-6.763,6.962,0.791,13.994.934,20.982,1.518,7.861,0.658,11.9,5.1,12.116,13.046,0.385,14.284-2.77,17.68-16.995,18.517-7.088.417-14.166,0.994-22.817,1.611,4.286,2.184,7.23,3.534,10.033,5.135,23.9,13.664,37.534,33.385,37.1,62.13-0.436,28.933-.093,57.879-0.1,86.819,0,2.559.011,5.122-.12,7.676-0.543,10.634-3.609,14.652-14.3,18.2,0,7.771.033,15.789-.007,23.806-0.07,13.83-7.7,21.5-21.416,21.561-7.989.033-15.979,0.086-23.967-.02-11.7-.153-19.71-8.224-19.921-20.125-0.143-8.036-.027-16.076-0.027-24.511h-304.3ZM98.561,189.922a2626.644,2626.644,0,0,1,314.994.055c-10.917-20.232-20.856-40.045-32.123-59.053-7.688-12.969-19.774-20.227-35.282-20.9-11.279-.491-22.525-1.761-33.8-2.181-49.461-1.842-98.913-2.23-148.284,2.176-14.56,1.3-26.26,8.376-33.546,20.844C119.362,149.947,109.4,169.742,98.561,189.922Zm-5.125,98.561V290.8q15.765,0,31.53-.006c7.192-.014,12.13-3.685,12.144-9.948,0.03-13.23-5.883-24.589-19.937-27.327-18.727-3.648-37.507-7.02-56.281-10.413-8.911-1.61-14.78,3.251-15.081,12.457-0.18,5.5-.152,11.022-0.038,16.529,0.2,9.894,6.2,16.114,16.14,16.336C72.415,288.665,82.928,288.483,93.435,288.483Zm324.68,2.3q0-1.156,0-2.313c10.9,0,21.8.217,32.692-.067,9.211-.24,15.161-6.53,15.434-15.822,0.162-5.5.122-11.022-.012-16.529-0.24-9.889-6.054-14.591-15.762-12.8-17.615,3.245-35.211,6.6-52.834,9.8-13.766,2.5-20.336,9.21-22.444,23.218-1.435,9.539,2.963,14.578,12.562,14.528C397.873,290.739,407.994,290.78,418.115,290.78Z"/>
</svg>
