<svg xmlns="http://www.w3.org/2000/svg" width="512" height="512" viewBox="0 0 512 512">
  <defs>
    <style>
      .cls-1 {
        fill: #fff;
        fill-rule: evenodd;
      }
    </style>
  </defs>
  <path class="cls-1" d="M324.909,281.042c1.29,5.058,2.4,9.419,3.558,13.948,19.07,0,37.82.045,56.568-.12,1.073-.01,2.753-1.577,3.087-2.727,1.314-4.521,2.258-9.154,3.226-13.77a6.249,6.249,0,0,1,4.7-5.333c6.6-2.244,12.869-5.448,19.416-7.877a8.277,8.277,0,0,1,6.05.247c5.025,2.653,9.757,5.861,14.128,8.56l42.187-42.308c-2.5-4.067-5.78-8.931-8.511-14.083a8.277,8.277,0,0,1-.243-6.045c2.417-6.548,5.577-12.828,7.857-19.417,1.111-3.209,2.7-4.515,6.068-4.407V482.541H71.864c4.627-8.379,4.194-17.444,4.268-26.483,0.01-1.235,1.379-2.808,2.54-3.631,12.227-8.679,24.538-17.237,36.265-25.436,5.7,2.776,10.77,6.39,16.395,7.786,19.546,4.846,37.636-9.245,38.6-29.425a16.968,16.968,0,0,0,.012-3.907c-1.824-9.595,2.7-14.92,10.559-20.282,45.918-31.316,91.388-63.291,137.01-95.042C319.778,284.547,322.058,283,324.909,281.042ZM221.473,391.131L327.9,317.047l-8.862-12.7L212.62,378.435Zm246.012-1.9H452.224v15h15.261v-15Zm-15.216,31.2v15.258h15V420.43h-15Zm-360.412,46.5h15.088v-15.1H91.857v15.1Zm46.586-15H123.355v15.074h15.088V451.931Zm16.031,15.108H169.7V451.9h-15.23v15.141ZM452.218,451.8v15.087h15.1V451.8h-15.1ZM193.08,410.87l12.566-8.765-8.887-12.65-12.575,8.789C187.344,402.729,190.115,406.663,193.08,410.87ZM99.669,224.482v86.175c9.927,0,19.659-.008,29.39,0,15.674,0.017,25.213,9.573,25.221,25.294q0.018,34.245-.018,68.492c-0.019,8.01-5.821,14.754-13.269,15.725a15.673,15.673,0,0,1-17.376-11.063,20.943,20.943,0,0,1-.6-5.784c-0.048-14.514,0-29.028-.035-43.543-0.032-11.524-6.344-17.806-17.912-17.827-17.287-.032-34.575.022-51.863-0.019-14.274-.033-24.164-10-24.184-24.366-0.029-20.548-.065-41.1.007-61.643C29.138,225.219,53.252,201.143,84,201.04c20.713-.07,41.426-0.1,62.137.034a29.941,29.941,0,0,0,19.045-6.3c16.086-12.234,32.348-24.237,48.436-36.469a18.977,18.977,0,0,1,13.077-4.316c6.449,0.351,11.1,3.385,13.071,9.107,1.871,5.442.312,10.884-4.656,14.79-14.735,11.586-29.79,22.779-44.27,34.672A50.727,50.727,0,0,1,155.3,224.636C136.918,224.018,118.5,224.482,99.669,224.482Zm358.973,5.633c-8.267,8.28-16.206,16.233-24.575,24.614-3.963-2.428-8.1-5.25-12.517-7.512a6.791,6.791,0,0,0-5.587-.054A124.388,124.388,0,0,1,382.7,260.891a6.781,6.781,0,0,0-3.928,4.025c-1.478,4.6-2.337,9.4-3.462,14.21H340.528c-1.081-4.624-2.207-9.168-3.189-13.741-0.56-2.611-1.9-3.824-4.559-4.836-10.895-4.154-21.673-8.635-32.335-13.357-2.525-1.119-4.271-1.548-6.641.079-3.872,2.659-7.97,4.991-11.565,7.211l-24.774-24.767c2.054-3.341,4.379-7.414,7-11.284,1.665-2.456,1.524-4.324.2-7.061-4.234-8.755-8.031-17.729-11.756-26.718a7.413,7.413,0,0,1,.2-5.049c7.035-17.71.012-33.585-17.819-40.007-0.955-.345-1.852-0.849-2.775-1.279q-0.052-.728-0.1-1.456c4.233-1.066,8.417-2.453,12.713-3.106,3.965-.6,5.257-2.588,6.6-6.3,3.8-10.5,8.379-20.734,13.011-30.909,1.151-2.527,1.538-4.273-.083-6.638-2.657-3.874-4.994-7.967-7.211-11.556l24.783-24.794c3.48,2.148,7.474,4.942,11.785,7.1,1.653,0.829,4.491,1.01,6,.133a125.619,125.619,0,0,1,33.293-13.677c1.552-.381,3.274-2.492,3.8-4.156,1.426-4.478,2.25-9.148,3.362-13.958h34.788c1.038,4.321,2.228,8.814,3.17,13.357,0.582,2.808,1.882,4.106,4.787,5.188C394,51.557,404.62,56,415.125,60.68c2.651,1.181,4.506,1.779,7.055.01,3.852-2.673,7.965-4.971,11.7-7.267l24.629,24.7c-2.255,3.666-4.6,7.738-7.216,11.633-1.533,2.283-1.833,4.125-.247,6.625A111.869,111.869,0,0,1,464.779,129.1c0.429,1.686,2.608,3.566,4.375,4.149,4.446,1.466,9.12,2.242,13.845,3.328v34.855c-4.631,1.079-9.42,1.894-13.976,3.408a8.293,8.293,0,0,0-4.323,4.248c-4.631,10.7-8.786,21.612-13.525,32.263-1.212,2.722-1.531,4.576.18,7.054C453.94,222.144,456.182,226.121,458.641,230.115ZM358,60.042c-51.552-.053-94.012,42.328-94.066,93.893-0.055,51.528,42.351,94.011,93.9,94.069s94.018-42.344,94.069-93.9S409.572,60.094,358,60.042ZM91.9,107.059a39.134,39.134,0,1,1-39.385,38.876A38.945,38.945,0,0,1,91.9,107.059ZM29.206,349.76c9.491,6.665,19.68,8.626,30.679,7.754a20.513,20.513,0,0,1,.4,2.678q0.028,53.56,0,107.121a15.615,15.615,0,0,1-30.54,4.673,16.059,16.059,0,0,1-.692-4.787q-0.057-56.984-.024-113.969C29.024,352.314,29.117,351.4,29.206,349.76Zm328.56-117.449a78.289,78.289,0,1,1,78.446-78.149A78.123,78.123,0,0,1,357.766,232.311Zm0.228-125.266c-25.659-.057-47.086,21.352-47.057,47.017,0.028,25.48,21.118,46.7,46.655,46.937,25.6,0.242,47.152-21.074,47.3-46.781C405.043,128.583,383.686,107.1,357.994,107.045Zm-31.381,46.9a31.3,31.3,0,1,1,31.225,31.384A31.085,31.085,0,0,1,326.613,153.941Z"/>
</svg>
