<svg xmlns="http://www.w3.org/2000/svg" width="512" height="512" viewBox="0 0 512 512">
  <defs>
    <style>
      .cls-1 {
        fill: #fff;
        fill-rule: evenodd;
      }
    </style>
  </defs>
  <path class="cls-1" d="M257.212,35.052c47.98,0.4,95.643,3.171,140.9,21.5a148.849,148.849,0,0,1,22.9,11.814c18.779,11.746,28.748,27.095,27.885,51.44-2.623,73.969-9.37,146.991-36.7,216.513-19.3,49.1-47.047,91.963-92.423,120.693-32.774,20.751-67.744,30.725-104.548,12.425-18.9-9.4-37.661-20.8-53.258-34.927-40.18-36.4-61.631-84.49-76.251-135.932-17.8-62.635-23.5-126.865-22.687-191.72,0.1-7.873,4.392-16.82,9.307-23.276,11.229-14.748,27.728-22.518,44.619-28.844,41.579-15.574,85.046-18.969,128.884-19.676C249.637,35,253.425,35.052,257.212,35.052Zm-102.82,271c12.311,28.222,28.219,52.619,53.856,68.821,25.037,15.823,51.245,17.372,77.211,2.8,27.829-15.622,45.46-40.571,58.444-69.24,0.113-.247-0.7-0.923-1.993-2.527C280.039,351.471,217.419,350.876,154.392,306.054Zm80.793-105.923c-39.4-10-78.016-13.016-117.106,1.866C157.525,251.339,199.523,248.031,235.185,200.131Zm41.1-.008c38.847,50.1,80.945,49.166,117.243,1.67C354.8,187.1,316.23,190.348,276.289,200.123Z"/>
</svg>
