<svg xmlns="http://www.w3.org/2000/svg" width="512" height="512" viewBox="0 0 512 512">
  <defs>
    <style>
      .cls-1 {
        fill: #fff;
        fill-rule: evenodd;
      }
    </style>
  </defs>
  <path class="cls-1" d="M143.135,108.83c0,12.272,0,23.208,0,34.144-0.008,25.077.053,50.154-.148,75.23a11.319,11.319,0,0,1-2.694,6.92c-15.164,16.662-14.645,41.748,1.406,57.245a40.7,40.7,0,0,0,56.505.007c16.062-15.639,16.588-40.52,1.337-57.22-1.345-1.473-2.7-3.663-2.707-5.525-0.154-36.676-.111-73.352-0.1-110.027,0-.615.123-1.229,0.289-2.776,6.489,1.506,12.959,2.431,19.037,4.5,59.307,20.225,93.542,61.841,104.517,123.18a64.066,64.066,0,0,0,2.684,10.881c7.96,21.591,16.094,43.119,24.155,64.674,4.206,11.247-.262,17.679-12.288,17.721-4.207.014-8.414,0-13.228,0v5.473c0.007,15.36.107,30.719,0,46.078-0.138,19.324-11.484,30.646-30.731,30.719-18.957.073-37.914,0.014-56.871,0.013h-6.328c2.521,24.5,5,48.549,7.506,72.926H96.069c0-2.988-.2-5.779.031-8.532,3.818-44.9-8.574-85.263-34.518-121.634-13.755-19.284-23.489-40.164-28.334-63.4-14.5-69.517,20.471-141.131,83.722-170.661C125.109,114.973,133.795,112.344,143.135,108.83ZM368.35,215.645c0-12.38-.1-24.761.027-37.139,0.128-12.823,8.727-21.662,21.465-21.826q23.729-.3,47.462-0.038c12.878,0.127,21.62,8.746,21.7,21.579q0.243,37.608-.012,75.217c-0.088,12.4-8.6,21.108-20.945,21.326q-24.429.432-48.869-.009c-12.227-.221-20.686-9.156-20.823-21.5-0.138-12.535-.03-25.073-0.03-37.608h0.022Zm66.441-73.383H392.585c-0.089-1.681-.25-3.319-0.251-4.958q-0.026-48.409-.01-96.818c0-8.532,1.986-10.469,10.544-10.475,7.986-.006,15.974-0.07,23.96,0,5.478,0.051,8.3,2.644,8.305,7.969q0.075,51.228-.021,102.455A13.322,13.322,0,0,1,434.791,142.262Zm-1.762,222.761c1.438-4.57,2.466-7.817,3.481-11.069,1.227-3.928,3.857-5.912,8-5.9,10.18,0.017,20.361-.063,30.54.034,4.7,0.045,7.842,2.935,7.949,6.916,0.113,4.177-3.094,7.1-8.1,7.15-7.36.075-14.726,0.176-22.08-.052-3.04-.1-4.44.886-5.254,3.808-2.143,7.686-4.625,15.279-6.876,22.936-1.111,3.782-3.048,6.707-7.332,6.715s-6.2-2.924-7.413-6.656q-7.985-24.558-16.106-49.071c-0.478-1.451-1.019-2.882-1.848-5.216-0.8,1.952-1.358,3.106-1.753,4.314q-7.166,21.861-14.273,43.739c-1.232,3.809-2.336,7.733-7.158,8.247s-6.7-3.192-8.762-6.569c-4.642-7.622-9.193-15.305-14.1-22.754a7.533,7.533,0,0,0-5.114-2.858c-5.3-.374-10.641-0.058-15.965-0.154-5.182-.093-8.207-2.769-8.211-7.029s3.017-7.033,8.163-7.108c7.36-.109,14.723.025,22.083-0.049a8.6,8.6,0,0,1,8.116,4.555c3.423,5.769,6.992,11.453,10.92,17.856,0.713-1.793,1.25-2.961,1.649-4.174,5.62-17.1,11.259-34.19,16.8-51.315,1.244-3.847,2.924-7.059,7.549-7.05,4.652,0.01,6.266,3.317,7.5,7.124C421.1,328.8,426.841,346.175,433.029,365.023ZM182.213,213.208H157.592a28.771,28.771,0,0,1-.293-3.258c-0.016-32.887.042-65.774-.075-98.66-0.012-3.511.8-5.116,4.576-5.169,6.68-.1,13.353-0.592,20.413-0.939V213.208ZM143.49,252.855a26.479,26.479,0,1,1,26.357,26.709A26.279,26.279,0,0,1,143.49,252.855ZM177.467,236.1A8.075,8.075,0,0,0,170,228.521a7.888,7.888,0,0,0-7.523,7.456,7.789,7.789,0,0,0,7.4,7.544A7.941,7.941,0,0,0,177.467,236.1Zm17.018,16.846a7.495,7.495,0,1,0-14.987.274A7.495,7.495,0,0,0,194.485,252.95Zm-17.017,17.392c0.117-3.779-3.478-7.563-7.324-7.707a7.83,7.83,0,0,0-7.637,7.306,7.641,7.641,0,0,0,7.237,7.646A7.9,7.9,0,0,0,177.468,270.342Zm-24.361-9.831a7.845,7.845,0,0,0,7.312-7.635c-0.139-3.774-4.02-7.45-7.732-7.323a7.882,7.882,0,0,0-7.22,7.742A7.615,7.615,0,0,0,153.107,260.511Z"/>
</svg>
