<svg xmlns="http://www.w3.org/2000/svg" width="512" height="512" viewBox="0 0 512 512">
  <defs>
    <style>
      .cls-1 {
        fill: #fff;
        fill-rule: evenodd;
      }
    </style>
  </defs>
  <path class="cls-1" d="M217.3,466.927c0-20.645,0-40.784,0-60.924q0-45.228.012-90.457c0-8.673,2.627-11.226,11.5-11.237,12.44-.016,24.882.106,37.317-0.132,1.679-.032,3.25-2.449,5-2.648,3.761-.427,8.7-1.589,11.167.211,3.837,2.8,6.037,3.827,8.629-.081,1.638-2.469,9.962-2.415,11.581.076,2.332,3.587,6.006,3.639,8.281.116,1.834-2.838,9.788-2.637,11.645.3,1.988,3.138,6.15,3.054,8.234-.166,1.67-2.58,9.576-2.718,11.655-.56,1.289,1.339,3.338,2.729,5.07,2.761,12.824,0.225,25.654.075,38.483,0.126,7.06,0.029,10.113,2.815,10.12,9.63q0.075,75.189,0,150.377a24.268,24.268,0,0,1-.323,2.613H217.3ZM163.412,227.086c1.01,2.01,1.739,4.226,3.072,6,10.91,14.5,26.909,18.371,43.836,20.642,9.757,1.309,19.352,3.8,29.109,5.114,3.23,0.434,6.758-1.1,10.118-1.866a58.046,58.046,0,0,0,9.529-2.588c1.907-.8,3.3-2.753,5-4.085a8.4,8.4,0,0,1,2.833-1.589c26.767-7.147,53.548-14.244,81.037-21.538,0.267,3.915.906,7.34,0.655,10.7-0.781,10.431-2.333,12.049-12.545,14.747-17.442,4.605-34.951,8.989-52.268,14.012-5.573,1.618-9.612.623-12.732-3.69-2.244-3.1-4.656-3.233-7.929-2.244-5.732,1.732-11.548,3.191-17.71,4.868,1.725,7.011.79,13.378-5.518,17.375-2.759,1.747-6.713,3.139-9.8,2.654-17.619-2.773-35.213-5.815-52.664-9.467-10.629-2.225-18.605-9.445-26.037-16.8-8.768-8.671-17.026-17.845-26.518-26.339,1.921,3.456,3.224,7.486,5.873,10.261,9.049,9.474,18.636,18.443,27.846,27.771,1.415,1.434,2.784,3.778,2.708,5.643-0.447,11.067.535,22.344-4.277,32.9-0.663,1.454-.358,3.406-0.273,5.117q3.206,64.47,6.5,128.936c0.605,11.632-3.3,19.2-12.112,22.513-8.726,3.278-16.257.568-24.08-8.987-0.693.908-1.291,1.735-1.933,2.528-5.51,6.8-13.543,9.338-21.29,6.725-7.724-2.605-12.687-9.411-12.715-18.1-0.091-28.052-.051-56.1-0.056-84.156,0-12.682.033-25.362,0-38.044-0.02-8.594.652-17.2-2.737-25.542-1.1-2.7-.787-6.081-0.64-9.128,1.366-28.4,2.6-56.806,4.361-85.182,1.145-18.446,13.286-31.858,30.193-34.544,17.829-2.831,32.376,5.949,40.628,22.955,3.193,6.579,8.783,12.094,13.731,17.707,0.9,1.021,4.5.975,5.966,0.05,10.623-6.7,21.276-13.4,31.392-20.805,6.361-4.658,12.138-9.093,20.54-5.214,0.815,0.376,2.636-.358,3.439-1.134C246.83,176.688,255.6,168,264.2,159.532a4.789,4.789,0,0,0-.381-1.571c-9.062-9.448-10.152-7.977.831-18.657,4.989-4.852,9.971-9.713,14.841-14.681,2.938-3,5.586-2.885,8.47.019q7.967,8.021,16.073,15.907c2.942,2.878,2.84,5.58-.077,8.429-6.5,6.348-13.047,12.655-19.345,19.194-3.6,3.742-6.723,4.047-10.2.038-1.374-1.582-3.043-2.914-5.091-4.843-9.169,9.117-18.224,18.009-27.068,27.1-0.836.859-.739,3.076-0.392,4.5,1.33,5.463.7,10.609-3.556,14.377-14.372,12.735-29.589,24.263-47.762,31.454-5.168,2.045-9.208,1.588-12.967-2.659-3.8-4.293-7.956-8.278-11.956-12.4Q164.515,226.416,163.412,227.086Zm102.7-76.41c6.826-6.547,13.153-12.613,19.477-18.679-2.974-3.173,1.019-5.719-18.061,13.068C266.091,146.481,262.087,148.092,266.114,150.676Zm33.328-5.115-0.765-1.72c-1.289.074-3.072-.365-3.79,0.306-5.479,5.127-10.787,10.435-16.037,15.8-0.6.611-.508,1.881-0.737,2.846,1.123-.069,2.661.307,3.3-0.277C287.512,156.954,293.455,151.234,299.442,145.561Zm-7.788-8.763-2.359-.972c-5.489,5.642-11.033,11.235-16.407,16.983-0.794.849-.781,2.434-1.142,3.68,1.258-.337,2.884-0.291,3.715-1.072q7.573-7.118,14.783-14.609C291.142,139.872,291.206,138.155,291.654,136.8ZM132.2,100.739c2.27-8.4,4.547-15.915,6.212-23.562a10.326,10.326,0,0,0-1.4-7.119c-4.218-6.452-4.561-13.4-.284-19.362,4.031-5.625,10.922-7.734,18.065-6.023a8.862,8.862,0,0,0,6.107-.806c11.824-7.332,25.195-3.943,31.815,8.036a10.118,10.118,0,0,0,5.313,4.2c7.228,2.363,11.9,7.468,12.356,14.335,0.5,7.493-3.117,12.887-10.28,16.417a9.511,9.511,0,0,0-4.47,5.052c-2.421,7.645-4.318,15.451-6.573,23.8Zm20.875,62.2c-11.826-.431-22.57-6.443-29.173-18.633s-5.626-24.318,1.718-36.083c1.922-3.08,4.041-4.068,7.633-3.087,17.394,4.751,34.806,9.445,52.282,13.887,3.893,0.989,5.189,2.893,5.483,6.671C192.556,145.5,175.8,163.044,153.07,162.944Zm157.189,131.64-3.605-8.532-3.76,9.077c-4.833-9.109-.865-16.418,3.2-23.9C312.889,277.709,314.6,287.544,310.259,294.584Zm-29.666-53.305c-6.556.1-11.019-3.76-11.135-7.956-0.111-4,2.1-6.016,6.038-6.029,4.34-.015,9.262,4.33,8.632,8.323C283.755,237.983,281.412,240.045,280.593,241.279Zm45.9,33.7c3.5,6.377,6.7,12.183,3.05,20.093l-3.175-6.814c-1.3,2.358-2.317,4.189-3.333,6.017C319.77,288.651,320.668,282.941,326.5,274.975Zm-35.74,20.752-3.3-7.523-3.667,6.785c-3.3-7.523-.613-13.485,3.243-20.137C291.776,281.306,293.558,287.4,290.755,295.727Zm30.379-74.27c3.552-3.291,5.768-5.937,8.6-7.489,0.6-.328,4.48,3.087,5.027,5.231,0.958,3.755-3.267,8.51-6.551,7.725C326.112,226.423,324.455,224.126,321.134,221.457ZM298.6,220.1c-2.724-3.045-4.454-4.978-6.183-6.912,1.7-1.429,3.8-4.306,5.008-3.979,2.336,0.631,4.518,2.839,5.958,4.935C303.732,214.653,300.931,217.271,298.6,220.1Zm14.5,11.978-13,3.4c0.64-4.938,2.456-8.2,7.017-8.826C310.757,226.156,312.418,228.508,313.1,232.082Z"/>
</svg>
