<svg xmlns="http://www.w3.org/2000/svg" width="512" height="512" viewBox="0 0 512 512">
  <defs>
    <style>
      .cls-1 {
        fill: #fff;
        fill-rule: evenodd;
      }
    </style>
  </defs>
  <path class="cls-1" d="M283.678,344.977l-24.168-1.72c15.71-23.081,29.259-44.364,44.246-64.588,12.8-17.275,22.339-33.809,14.85-56.908-2.937-9.06,1.582-20.523-.208-28.648-9.4-21.813-20.44-43.1-27.62-65.62-4.913-15.4,1.563-30.874,14.228-41.59,17.2-14.551,34.919-28.59,53.365-41.5,4.229-2.959,12.33-.42,18.649-0.412-1.433,6.605-.636,15.593-4.708,19.379C358.9,75.843,344.005,86.826,329.129,97.627c-13.418,9.742-14.555,20.529-11.564,36.871,9.455,51.666,88.961,56.8,119.3,35.6,4.685-3.274,7.475-10.379,9.365-16.279,6.318-19.713,11.039-39.972,18.159-59.371,2-5.433,10.648-12.619,15.369-12.028,10.589,1.325,10.358,10.373,7.627,19.473q-8.675,28.9-16.212,58.137c-5.408,20.968-18.179,33.942-39.437,38.814-7.5,1.719-14.8,4.34-22.221,6.416-24.473,6.841-30.5,17.647-19.334,41.328,8.538,18.1,20.309,34.7,30.8,51.873,7.669,12.549,15.6,24.938,25.529,40.768l-53.8,2.942c3.113,27.331,6.116,53.529,9.071,79.734q1.593,14.12,3,28.26c1.2,12.215-4.746,19.846-16.543,20.9-11.948,1.074-18.679-5.979-20.046-17.834-3.666-31.756-8.353-63.445-10.5-95.3-1.1-16.39-10.024-15.892-21.39-15.161-14.379.925-14.28,10.536-11.547,20.273q11.023,39.286,23.385,78.2c4.043,12.792,4.5,24.156-10.51,28.965-15.383,4.928-21.224-5.451-25.022-17.92-8.273-27.166-16.95-54.211-24.9-81.47C285.454,363.046,285.138,354.716,283.678,344.977ZM138.354,280.029c-16.9,52.041-32.792,100.993-48.689,149.943-0.548,1.687-1.178,3.35-1.691,5.047C84.053,447.99,79.661,462.18,62,456.709c-18.628-5.771-13.568-20.216-9.321-33.811,12.7-40.672,23.758-81.912,38.023-122.024,9.307-26.171,11.174-51.472,4.918-78.109-2.829-12.046-4.206-24.433-6.62-38.934-8.319,4.2-15.482,7.821-22.644,11.441-13.665,6.912-18.5,17.461-13.94,32.327q7.815,25.452,14.983,51.1c2.354,8.474,6.155,18.559-6.067,22.368-12.063,3.758-15.034-5.8-17.553-14.755-5.129-18.231-10.508-36.395-15.407-54.688-6.857-25.612,1.177-42.923,24.048-56.746,22.9-13.843,46.646-22.938,74.019-19.814,19.315,2.205,31.958-5.235,40.574-23.754,11.968-25.723,26.267-50.449,40.953-74.771,3.28-5.431,13.826-11.727,18.4-10.135,11.794,4.1,7.037,13.864,2.589,22.046-12.17,22.379-23.014,45.6-36.783,66.956-14.979,23.231-18.982,47.844-21.917,74.846-3.793,34.908,2.468,63.832,26.685,89.1,18.866,19.689,24.278,43.419,22.5,70.219-1.566,23.6-.681,47.38-0.373,71.075,0.17,13.106-4.09,23.048-18.384,23.038-14.138-.008-18.757-9.653-18.5-22.9,0.432-22.506-.576-45.06.433-67.529,0.92-20.486-3.762-38.315-16.935-54.425C156.16,307.194,148.26,294.24,138.354,280.029ZM338.886,132.5c6.275-9.339,11.1-20.257,19.176-27.636,11.231-10.26,30.621-3.756,42.177-17.346,1.047-1.231,18.006,8.035,24.55,15.179,7.224,7.885,3.364,15.83-6.427,21.5-3.044,1.764-3.542,8.725-4.288,13.451-3.114,19.746-19.195,33.482-38.262,32.284C357.137,168.759,342.839,153.734,338.886,132.5ZM82.275,109.135a35.468,35.468,0,0,1,35.375-36.6,36.147,36.147,0,0,1,36.235,34.219c0.887,19.733-14.91,36.833-34.741,37.609C99.412,145.136,82.688,129.157,82.275,109.135Z"/>
</svg>
