<svg xmlns="http://www.w3.org/2000/svg" width="512" height="512" viewBox="0 0 512 512">
  <defs>
    <style>
      .cls-1 {
        fill: #fff;
        fill-rule: evenodd;
      }
    </style>
  </defs>
  <path class="cls-1" d="M415.921,153.573l29.118-25.659c1.792,1.339,3.612,2.555,5.265,3.957,12.729,10.794,19.537,24.428,19.574,40.834q0.2,89.481.023,178.962c-0.053,29.859-24.744,53.931-55.422,53.955q-158.942.124-317.883,0C66.038,405.6,41.253,381.668,41.174,352q-0.24-89.635-.005-179.272c0.076-30.145,25.007-53.866,56.53-53.907q111.386-.147,222.774-0.034h5.615c-0.86,1.084-1.352,1.8-1.938,2.426-9.342,10.05-18.738,20.052-28.006,30.164a6.693,6.693,0,0,1-5.517,2.282q-95.748-.085-191.5-0.051c-10.244,0-17.6,4.28-20.726,12.468a23.422,23.422,0,0,0-1.5,8.162q-0.121,88.086-.046,176.17c0.005,12.137,8.588,20.522,21.063,20.525q157.666,0.033,315.33,0c12.292,0,20.925-8.409,20.932-20.336q0.048-88.24.008-176.481c0-10.28-6.069-17.619-16.4-20.1C417.321,153.889,416.843,153.785,415.921,153.573Zm-160.4,281.583q98.129,0,196.258,0c9.74,0,17.727,7.178,18.2,16.417,0.483,9.518-6.3,17.23-16.11,18.279a32.714,32.714,0,0,1-3.5.144Q255.543,470,60.721,470c-9.506,0-16.25-4.318-18.806-11.978-3.688-11.049,4.267-22.136,16.392-22.822,1.273-.072,2.553-0.025,3.829-0.025H255.521v-0.013ZM388.659,82.425c12.273,11.96,24.259,23.64,36.377,35.447-9.181,8.092-18.624,16.417-28.069,24.739q-44.332,39.057-88.665,78.114c-5.39,4.75-11.592,5.275-17.287.885A55.941,55.941,0,0,1,282,212.883c-4.493-5.473-3.988-11.642.839-16.817q51.978-55.725,103.95-111.452C387.5,83.856,388.138,83.038,388.659,82.425Zm-189,217.059c3.554-15.655,6.972-31.274,10.685-46.827,1.759-7.372,4.452-14.51,9.147-20.651,9.629-12.6,22.6-18,38.515-15.193,15.359,2.706,25.521,11.753,30.1,26.272,2.773,8.8.222,16.934-4.56,24.538-7.955,12.651-19.915,20.04-34.107,24.494-15.92,5-32.324,6.97-48.973,7.414A3.252,3.252,0,0,1,199.662,299.484ZM431,112.637c-12.273-11.95-24.43-23.79-36.837-35.872,2.189-2.36,4.583-4.955,6.99-7.537,7.785-8.348,15.63-16.642,23.329-25.063,2.491-2.724,5.509-3.98,8.8-2.6,4.523,1.891,9.241,3.894,12.962,6.912A149.343,149.343,0,0,1,461.484,63.43c3.284,3.555,5.854,7.775,5.974,12.729,0.048,1.97-.576,4.61-1.944,5.856C454.11,92.4,442.462,102.529,431,112.637Z"/>
</svg>
