<svg xmlns="http://www.w3.org/2000/svg" width="512" height="512" viewBox="0 0 512 512">
  <defs>
    <style>
      .cls-1 {
        fill: #fff;
        fill-rule: evenodd;
      }
    </style>
  </defs>
  <path class="cls-1" d="M38,315.586c7.068-19.862,21.215-27.85,41.888-27.037,20.579,0.809,41.213.177,63.441,0.177-2.051-2.944-3.25-4.915-4.687-6.69-10.533-13.014-21.439-25.74-31.489-39.12-3.2-4.26-6.038-10.32-5.782-15.39,0.641-12.683,1.678-25.709,5.231-37.8,6.308-21.467,25.386-33.622,50.373-34.524,51.819-1.873,101.073,8.453,147.635,31.545,18.828,9.337,32.989,22.992,38.476,44.009,8.269,31.666-9.616,54.14-43.989,53.578,5.964-9.049,11.6-17.288,16.908-25.736,5.968-9.5,6.231-19.421.446-29.043-5.611-9.332-14.252-13.592-25.018-12.942-9.083.547-15.959,5.192-20.971,12.724-7.861,11.816-15.858,23.546-23.444,35.539-2.589,4.1-5.008,5-9.651,3.426a129.46,129.46,0,0,0-27.219-6.078c5.734,6.981,11.6,13.859,17.117,21.012,1.523,1.974,3.188,5,2.776,7.148-4.2,21.872-1.046,28.884,18.244,38.929-0.471,14.759-15.412,28.055-34.767,28.269q-69.923.772-139.858-.013c-17.59-.19-29.122-10.455-35.659-26.61V315.586Zm434-20.5c-1.079,3.195-2.17,6.387-3.234,9.588-10.235,30.789-42.654,48.3-73.536,39.206,0.171-2.031.389-4.194,0.529-6.363,0.886-13.714-6.181-24.486-19.053-28.807-4.28-1.437-8.68-2.513-13.023-3.756-12.691-3.63-12.808-3.783-13.391-17.456-1.261-29.538,19.961-56.607,48.8-62.241a60.871,60.871,0,0,1,69.488,39.91c1.093,3.158,2.28,6.283,3.423,9.423v20.5Zm-182.769-5.857,79.182,22.749c2.17,0.624,4.375,1.144,6.506,1.881,11.865,4.106,18.088,15.5,14.728,26.881a21.294,21.294,0,0,1-26.685,14.748c-25.852-7.114-51.6-14.606-77.39-21.951-11.673-3.325-23.38-6.533-35-10.035-16.736-5.045-22.462-20.12-12.973-34.757q18.286-28.206,37.2-56c7.734-11.435,20.533-14.137,30.916-6.962,9.955,6.879,12.17,19.69,5,30.949C304.035,267.231,297.005,277.506,289.231,289.234Z"/>
</svg>
