<svg xmlns="http://www.w3.org/2000/svg" width="512" height="512" viewBox="0 0 512 512">
  <defs>
    <style>
      .cls-1 {
        fill: #fff;
        fill-rule: evenodd;
      }
    </style>
  </defs>
  <path class="cls-1" d="M352.594,470.969V213.605h72.458V470.969H352.594ZM262.783,255.914h73.894V470.841H262.783V255.914ZM222.029,170.92C172.8,218.6,125.38,264.514,77.045,311.323c0-12.8-.172-25.061.159-37.31,0.06-2.195,1.748-4.772,3.45-6.439q69.115-67.713,138.434-135.232a24.5,24.5,0,0,1,3.542-2.165l42.311,43.793c41.389-41.667,80.746-81.287,120.1-120.907l2.49,1.41-12.943-1.219V40H433V89.245H419.225c-0.367-6.556-.7-12.461-1-17.807L268.213,216.248ZM174.04,299.448h73.665V470.859H174.04V299.448ZM85.448,471V342.248h72.531V471H85.448Z"/>
</svg>
