<svg xmlns="http://www.w3.org/2000/svg" width="512" height="512" viewBox="0 0 512 512">
  <defs>
    <style>
      .cls-1 {
        fill: #fff;
        fill-rule: evenodd;
      }
    </style>
  </defs>
  <path class="cls-1" d="M255.111,272.685c-11.842.49-23.5-3.843-35.248-7.747q-94.185-31.3-188.343-62.678a39.466,39.466,0,0,1-8.91-4.151c-6.166-3.991-6.132-9.157.121-13.1a39.548,39.548,0,0,1,9.575-4.322Q132.728,150.477,233.2,120.416a78.189,78.189,0,0,1,45.983.092q99.954,30.026,199.91,60.041a41.771,41.771,0,0,1,10.767,4.923c5.55,3.645,5.5,8.6-.009,12.264a40.15,40.15,0,0,1-9.457,4.546q-99.312,33.13-198.68,66.092A77.583,77.583,0,0,1,255.111,272.685Zm-143.8-24.359c12.837,4.262,25,8.3,37.155,12.335,27.256,9.046,54.542,18,81.756,27.167a78.691,78.691,0,0,0,51.5.035q57.326-19.167,114.717-38.142c1.267-.421,2.551-0.792,4.314-1.337v4.021c0,28.527-.141,57.055.108,85.581a21.259,21.259,0,0,1-6.5,15.845c-6.341,6.514-13.918,11.306-21.91,15.462-21.58,11.223-44.67,17.856-68.556,21.7-44.9,7.226-89.255,4.925-132.825-8.6-15.677-4.868-30.729-11.185-44.256-20.68a77.158,77.158,0,0,1-6.9-5.557c-5.872-5.225-8.914-11.311-8.779-19.686,0.451-28.066.173-56.143,0.174-84.216v-3.925Zm355.456-21.909v4.557c0,19.771-.08,39.543.091,59.313a20.167,20.167,0,0,0,2.033,8.35c4.716,9.711,9.48,19.365,11.793,30.019,2.03,9.348-.052,17.824-6.388,24.731-4.475,4.879-9.954,8.862-15.161,13.024a4.061,4.061,0,0,1-3.856.131c-5.443-4.4-11.2-8.594-15.847-13.761-6.579-7.317-8.612-16.457-5.416-25.809,3.4-9.945,7.916-19.5,11.836-29.277a17.379,17.379,0,0,0,1.509-6.123q0.173-27.61,0-55.221c-0.02-2.756.77-4.016,3.45-4.768C456,230.126,461.09,228.28,466.766,226.417Z"/>
</svg>
