<svg xmlns="http://www.w3.org/2000/svg" width="512" height="512" viewBox="0 0 512 512">
  <defs>
    <style>
      .cls-1 {
        fill: #fff;
        fill-rule: evenodd;
      }
    </style>
  </defs>
  <path class="cls-1" d="M152.091,476.134c3.653-7.718,7.5-15.354,10.918-23.169,8.913-20.388,17.849-40.772,26.356-61.323,4.832-11.676,8.68-23.736,13.259-35.518,5.847-15.045,7.265-30.635,6.713-46.526a40.171,40.171,0,0,1-.166-4.552c0.809-10.11-4.136-17.894-10.362-25.284-5.234-6.213-10.543-12.413-15.186-19.043a28.651,28.651,0,0,1-4.3-24.784c4.9-18.174,9.651-36.4,17.293-53.728,4.371-9.909,10.186-18.822,20.08-24.421a22.076,22.076,0,0,1,7.994-2.609c-1.517,2.929-3.064,5.844-4.548,8.79-5.9,11.722-12.318,23.234-17.523,35.245-4.969,11.463-8.217,23.514-4.55,36.173a83.035,83.035,0,0,0,15.45,29.017c1.607,2,3.2,2.4,5.416.791,17.331-12.6,30.216-27.877,31.751-50,1.483-21.36,6.8-41.7,17.081-60.673a52.338,52.338,0,0,1,7.5-10.147c1.088-1.19,3.5-1.229,5.308-1.793,0.038,1.731.459,3.562,0.02,5.169-0.608,2.227-1.936,4.257-2.826,6.423-1.914,4.663-1.111,7.062,3.636,8.917,10.875,4.247,21.9,8.133,32.778,12.366a57.358,57.358,0,0,1,18.537,11.057c2.231,2.062,2.621,3.985,1.731,6.8-7.465,23.647-14.7,47.364-22.193,71-6.555,20.667-12.59,41.486-14.539,63.087a187.56,187.56,0,0,0,.1,32.828c0.939,10.9,6.668,20.393,12.8,29.358,21.163,30.944,46.688,58.25,74.093,83.964,0.86,0.807,1.62,1.716,2.426,2.577H152.091Zm94.161-439.09c3.67,1.022,7.386,1.908,11,3.091,11.581,3.788,20.312,11.178,26.96,20.983A6.864,6.864,0,0,0,289.3,64.33c13.541,2.289,27.15,4.327,40.541,7.294a74.746,74.746,0,0,1,27.675,12.03,21.648,21.648,0,0,1,4.614,4.827c1.859,2.538,1.429,5.426-1.531,6.847-5,2.4-10.146,5.12-15.529,6.044-15.065,2.585-30.227,4.952-45.455,6.247-24.954,2.122-50,1.818-75.023.708-6.316-.28-12.625-0.711-19.925-1.13,0.963,4.995,1.474,9.717,2.817,14.2,3.086,10.307,8.539,19.071,19,23.784,10.615,4.784,20.642,4.649,29.323-4.134a4.381,4.381,0,0,1,1.012-.5c-8.66,12.32-25.953,13.7-36.989,3.079-9.281-8.933-14.11-20.123-16.484-32.385-0.646-3.329-1.894-4.53-5.48-4.783-15.9-1.127-31.656-3.293-46.975-7.791a31.739,31.739,0,0,1-6.478-2.962c-3.976-2.24-4.432-5.349-.711-8.032,4.007-2.889,8.279-5.77,12.9-7.439,10.068-3.64,20.459-6.425,30.646-9.769,1.843-.605,4.044-1.846,4.891-3.408,8.9-16.4,22.76-26.033,41.294-29.53a8.41,8.41,0,0,0,1.328-.483h11.5Z"/>
</svg>
