<svg xmlns="http://www.w3.org/2000/svg" width="512" height="512" viewBox="0 0 512 512">
  <defs>
    <style>
      .cls-1 {
        fill: #fff;
        fill-rule: evenodd;
      }
    </style>
  </defs>
  <path class="cls-1" d="M153.539,253.957C159.559,177.8,197.538,123,265.1,85.941c-49.659,16.924-118.882,69.148-133.17,167.587h-19.19c-0.016-48.922,15.962-91.88,49.266-127.982q50.158-54.373,125.457-58.255v-9.8c-4.094-1.112-8.095-1.816-11.741-3.348-1.847-.777-3.958-2.91-4.234-4.691-0.183-1.18,2.427-3.5,4.215-4.15a51.566,51.566,0,0,1,36.468.063c1.757,0.648,4.027,2.772,4.084,4.286,0.054,1.447-2.222,3.42-3.923,4.379a16.062,16.062,0,0,1-7.047,2.178c-4.142.133-5.491,1.866-4.94,5.737a43.073,43.073,0,0,1,.04,5.581c63.472,4.3,112.372,33.191,146.52,86.068,23.252,36.006,29.259,76.883,27.723,100.366H153.539ZM429.881,183.3c-1.4-32.5-32.95-73.658-61.25-79.336,31.324,17.846,48.634,43.964,51.306,79.336h9.944ZM76.227,374.411c0-15.436.255-30.876-.1-46.3-0.193-8.309,3.552-14.259,9.763-18.887,12.971-9.665,28.387-11.97,43.944-13.6,12.864-1.351,24.977,1.5,36.843,6.27,31.678,12.726,63.431,25.27,95.155,37.884,1.01,0.4,2.046.739,3.041,1.171,16.684,7.243,20.613,21.027,10.258,35.959-7.887,11.373-18.444,15.25-31.557,10.91-10.89-3.6-21.565-7.843-32.337-11.8-1.747-.641-3.47-1.367-5.257-1.877-9.305-2.653-16.52,2.252-17.331,11.862-0.4,4.76,2.4,7.278,6.616,8.852,12.8,4.775,25.564,9.66,38.338,14.511,2.611,0.992,5.269,1.89,7.8,3.054,7.3,3.352,13.959,2.191,20.826-1.689q56.547-31.942,113.316-63.5c9.01-5.012,18.761-7.326,29.2-5.487,12.329,2.172,19.566,12.907,16.568,24.968-2.512,10.109-7.7,18.01-17.38,23.351Q354.4,417.39,305.37,445.611c-9,5.161-17.293,11.537-26.081,17.09-13.938,8.808-28.438,10.733-44.49,5.146-26.85-9.345-53.374-19.372-79.507-30.569-22.1-9.468-45.479-10.89-69.148-6.943-8.4,1.4-9.915.326-9.916-8.232Q76.225,398.256,76.227,374.411ZM490,262.427v15.215H98.15V262.427H490ZM68.881,376.856c0,13.887.026,27.772-.01,41.658-0.021,8.168-4.144,12.28-12.258,12.312q-10.741.043-21.481,0c-7.589-.045-12.033-4.411-12.068-12.192-0.088-19.439-.031-38.88-0.032-58.32,0-8.486-.07-16.972.024-25.458,0.087-7.894,4.528-12.372,12.421-12.5,7-.118,14.01-0.107,21.013,0,8.022,0.118,12.359,4.484,12.381,12.39C68.909,348.776,68.881,362.816,68.881,376.856ZM52.049,347.721A8.473,8.473,0,0,0,60.385,340a8.35,8.35,0,1,0-16.693-.5A8.431,8.431,0,0,0,52.049,347.721Z"/>
</svg>
