<svg xmlns="http://www.w3.org/2000/svg" width="512" height="512" viewBox="0 0 512 512">
  <defs>
    <style>
      .cls-1 {
        fill: #fff;
        fill-rule: evenodd;
      }
    </style>
  </defs>
  <path class="cls-1" d="M137.378,113.027c2.666,0,5.342.151,8-.025,15.011-1,29.252,1.613,43.473,6.8,25.567,9.328,52.36,10.608,79.324,9.723a213.008,213.008,0,0,0,67.276-13.339,57.574,57.574,0,0,1,18.045-3.023c14.65-.422,29.334.241,43.978-0.27a34.419,34.419,0,0,1,25.129,9.117c21.141,18.914,37.07,41.214,41.524,69.921,5.673,36.554,10.992,73.173,15.69,109.864,2,15.65,3.187,31.56-2.3,47.069a84.851,84.851,0,0,1-23.426,35.5C437.8,399.019,419.491,404,398.2,396.719c-26.12-8.934-49.764-22.54-71.843-38.712-17.385-12.734-36.508-20.282-57.383-24.254a68.861,68.861,0,0,0-27.271.39c-18.9,3.955-36.69,10.289-52.511,21.952-20.7,15.26-42.782,28.251-66.736,37.865-18.881,7.578-37.386,9.467-55.208-2.912a82.257,82.257,0,0,1-33.805-48.535c-3.447-13.4-2.312-27.006-.547-40.322,5.079-38.32,10.177-76.672,16.836-114.736,4.948-28.286,21.752-50.073,43.7-67.912a29.46,29.46,0,0,1,20.457-6.589C121.705,113.284,129.547,113.027,137.378,113.027ZM159.262,255.2h41.352V232.853H159.256v-40.69H136.393v40.986H95.534v22.218h41.214v40.487h22.514V255.2Zm153.573,12.281c12.436-.028,22.517-10.007,22.345-22.121A22.4,22.4,0,1,0,312.835,267.476Zm42.637-42.184c12.559,0.027,22.357-9.616,22.327-21.975A22.276,22.276,0,1,0,355.472,225.292Zm42.937,42.181a21.947,21.947,0,1,0-22.294-21.979C376.091,257.884,385.843,267.5,398.409,267.473ZM377.8,287.686c-0.018-12.348-9.84-21.928-22.422-21.867A21.932,21.932,0,1,0,377.8,287.686Z"/>
</svg>
