<svg xmlns="http://www.w3.org/2000/svg" width="512" height="512" viewBox="0 0 512 512">
  <defs>
    <style>
      .cls-1 {
        fill: #fff;
        fill-rule: evenodd;
      }
    </style>
  </defs>
  <path class="cls-1" d="M336.767,38c3.15,0.757,6.432,1.174,9.43,2.329,16.54,6.369,25.054,19.419,26.94,36.194,1.157,10.286-.359,20.916-1.1,31.363-1.616,22.77-3.5,45.523-5.273,68.2a2.4,2.4,0,0,0,.836.544c14.3-.186,28.726.694,42.88-0.863,19.887-2.187,33.867-21.059,32.627-41.683-1.164-19.392-17.833-35.74-37.293-36.471-3.824-.143-7.369-0.716-9.881-3.937a9.326,9.326,0,0,1-1.177-10.387c1.842-3.825,5.077-5.593,9.283-5.572A57.493,57.493,0,0,1,441.914,91.7a59.356,59.356,0,0,1-37.873,104.746q-128.276.151-256.552,0.043c-39.384-.01-71.588,26.343-79.269,64.974-8.486,42.682,21.926,86.037,64.961,92.465a96.391,96.391,0,0,0,13.969,1.007c34.746,0.085,69.492.042,104.238,0.078a27.412,27.412,0,0,1,6.321.583,9.732,9.732,0,0,1,.049,18.8,22.524,22.524,0,0,1-5.469.586c-34.746.034-69.493,0.16-104.238-.008-48.547-.234-88.419-31.8-98.688-77.87C36.713,240.366,76.347,183.917,134.145,177.8c18.526-1.963,37.384-.936,56.091-1,35.739-.114,71.478-0.028,107.217-0.025h4.409c-2.056-26.37-4.089-52.437-6.164-79.038-1.514-.078-3-0.221-4.487-0.223-12.2-.02-24.394.106-36.589-0.04a49.908,49.908,0,0,1-48.835-44.106c-0.769-6.52.115-12.154,6.721-15.367h5.957c4.683,2.629,6.74,6.433,7.059,11.993,0.8,13.954,11.684,26.243,24.971,27.024,14.668,0.861,29.427.2,44.453,0.2,0.3-1.469.543-3.141,0.979-4.763,4.347-16.157,12.813-28.615,29.98-33.172,1.9-.5,3.834-0.855,5.753-1.278h5.107Zm10.041,138.543c0.784-9.809,1.566-19.394,2.31-28.983q2.4-30.973,4.779-61.951a28.437,28.437,0,0,0-5.442-19.642c-5.156-7.042-12.221-9.574-19.681-7-6.6,2.278-13.014,11.342-12.949,18.7q8.879,0,17.779,0c4.544,0,8.006,1.877,9.8,6.141,2.818,6.7-2.012,13.478-9.776,13.668-5.913.145-11.832,0.029-18.077,0.029,2.09,26.646,4.136,52.74,6.2,79.035h25.058ZM331.66,474c-5.4-2.458-7.211-6.844-7.642-12.575-3.221-42.855-6.649-85.694-9.985-128.542q-4.046-51.967-8.009-103.943c-0.477-6.29,1.646-10.185,6.053-11.875,6.423-2.463,12.97,1.883,13.556,9.211,1.8,22.481,3.489,44.97,5.224,67.455q1.342,17.394,2.709,34.787a4.2,4.2,0,0,0,1.177,2.634q1.442-18.348,2.882-36.695c1.754-22.626,3.448-45.258,5.273-67.878,0.526-6.519,5.06-10.565,10.823-10.1,5.824,0.473,9.434,5.177,8.921,11.725q-6.029,77-12.071,153.99-3.147,40.3-6.146,80.612c-0.392,5.4-2.808,9.035-7.658,11.191H331.66Zm-185.537,0c-8.918-2.638-15.9-7.554-18.675-16.864-2.479-8.323-1.08-16.163,4.806-22.656a226.831,226.831,0,0,1,16.855-16.832,13.165,13.165,0,0,1,8.026-3.024q48.293-.3,96.588.038a15.524,15.524,0,0,1,9.016,3.711c5.078,4.284,9.586,9.254,14.243,14.027,13.832,14.174,8.611,34.911-10.241,40.84a9.319,9.319,0,0,0-1.466.76H146.123Zm59.581-19.74c17.577,0,35.155.088,52.731-.119,2.052-.024,5.21-1.22,5.808-2.7,0.591-1.464-1.018-4.3-2.365-5.959-2.4-2.959-5.441-5.383-7.99-8.231a8.553,8.553,0,0,0-7.052-2.963c-23.814.109-47.653,0.682-71.434-.212-11.173-.42-19.877,1.985-26.19,11.279-1.241,1.826-1.871,4.067-2.783,6.116,2.181,0.929,4.351,2.637,6.543,2.665C170.547,454.354,188.126,454.258,205.7,454.259Zm-0.277-109c-15.592,0-31.183-.079-46.773.049a14.316,14.316,0,0,1-11.331-4.693c-4.356-4.657-9.024-9.02-13.483-13.583-7.476-7.649-9.514-16.584-5.6-26.562,3.629-9.252,12.278-14.684,22.8-14.689q54.426-.026,108.854-0.014c10.744,0,18.481,4.841,22.933,14.54,4.091,8.91,1.907,19.061-5.425,26.621-4.639,4.783-9.48,9.369-14.093,14.177a13.276,13.276,0,0,1-10.257,4.183C237.176,345.216,221.3,345.259,205.427,345.259Zm0.69-39.761c-18.143,0-36.287-.075-54.427.121a6.683,6.683,0,0,0-5.021,2.756c-0.592,1.087.576,3.711,1.693,5.031,2.646,3.129,5.887,5.75,8.581,8.843,2.174,2.494,4.644,3.17,7.836,3.156,23.671-.106,47.364-0.667,71,0.209,11.163,0.415,19.86-2.04,26.149-11.328,1.225-1.81,2.906-4.541,2.311-6.009s-3.767-2.639-5.824-2.663C240.986,305.409,223.551,305.5,206.117,305.5Zm-0.609,99.156q-23.159,0-46.318-.02a27.457,27.457,0,0,1-5.488-.415,9.749,9.749,0,0,1-1.146-18.659,19.534,19.534,0,0,1,5.846-.786q47.168-.078,94.335-0.038c7.726,0,12.519,4.156,12.189,10.434-0.291,5.521-4.308,9.294-10.551,9.424-8.354.172-16.714,0.058-25.071,0.061Q217.406,404.661,205.508,404.654Z"/>
</svg>
