<svg xmlns="http://www.w3.org/2000/svg" width="512" height="512" viewBox="0 0 512 512">
  <defs>
    <style>
      .cls-1 {
        fill: #fff;
        fill-rule: evenodd;
      }
    </style>
  </defs>
  <path class="cls-1" d="M257.032,101.312c16.733-11.939,35.561-22.951,56.38-30.629,28.984-10.689,58.636-14.612,88.862-5.8,35.068,10.226,58.828,32.828,73.276,64.331,17.137,37.361,17.069,75.651,4.53,114.122-12.108,37.151-34.214,68.736-61.579,97.177C375.524,385.184,323.46,418.086,267.537,446.1c-8.494,4.256-14.927,4.466-23.578.13-49.207-24.662-95.558-53.088-135.525-90.2-32.318-30.012-59.217-63.7-74.479-104.612-16.8-45.021-17.167-89.755,7.137-132.661,18.652-32.928,47.8-53,87.241-57.767,27.226-3.292,53.412,1.952,77.865,13.274C223.308,82.185,239.5,91.9,257.032,101.312ZM233.547,221.436c2.64,8.225,4.963,15.4,7.247,22.591q11.217,35.292,22.4,70.6c1.445,4.575,3.572,8.451,9.258,8.93,5.126,0.432,8.041-2.427,10.375-6.343,9.5-15.954,19.187-31.814,28.585-47.823,1.719-2.928,3.615-3.978,7.113-3.914,25.06,0.461,50.122.76,75.184,1.027,6.634,0.071,10.808-3.457,10.963-8.893,0.164-5.75-3.943-9.447-10.826-9.538-27.77-.369-55.544-0.61-83.312-1.1-5.608-.1-9.2,1.963-11.868,6.541-6.559,11.256-13.347,22.39-20.07,33.56-0.683,1.136-1.54,2.177-2.686,3.778-10.153-31.888-20.069-62.935-29.9-94.008-1.408-4.452-3.441-8.108-8.848-8.714-5.64-.633-8.6,2.509-10.962,6.865-8.693,16-17.739,31.836-26.2,47.949-2.713,5.169-5.641,8.2-12.17,7.09-3.282-.56-6.757-0.094-10.144-0.1-20.154-.057-40.308-0.162-60.463-0.155-7.331,0-11.506,4.2-10.7,10.427,0.665,5.135,4.612,7.8,12.056,7.849q36.072,0.251,72.146.383c18.272,0.074,16.322,1.07,24.722-14.187C221.3,243.631,227.157,233.021,233.547,221.436Z"/>
</svg>
