<svg xmlns="http://www.w3.org/2000/svg" width="512" height="512" viewBox="0 0 512 512">
  <defs>
    <style>
      .cls-1 {
        fill: #fff;
        fill-rule: evenodd;
      }
    </style>
  </defs>
  <path class="cls-1" d="M89.723,384.714c40.317-13.181,54.906-52.613,33.092-87.281-2.443-3.883-5.809-7.807-9.755-10.111-7.454-4.352-20.836-6.1-22.454-11.508-3.482-11.645-1.07-24.926-1.07-39.548,47.789,16.391,94.747,31.818,140.983,49.039,7.512,2.8,16.675,13.438,16.855,20.644,1.4,55.68.77,111.408,0.77,170.025-15.792-4.884-30.631-9.679-45.6-14.054-23.844-6.967-47.678-13.994-71.692-20.38C94.3,431.821,87.529,423,89.723,384.714Zm332.075-.732c3.654,35.686-4.764,47.578-37.992,56.855-33.936,9.475-67.678,19.593-101.521,29.382-6.511,1.883-13.092,3.543-20.909,5.648,0-54.668-1.045-107.486.883-160.2,0.385-10.53,9.7-26.361,19.021-30.035,46.024-18.135,93.435-33,142.155-49.637,0,11.947.93,22.049-.406,31.865-0.635,4.669-4.558,10.964-8.753,12.809-27.36,12.034-35.827,26.122-33.573,58.916C382.472,365.314,391.886,375.738,421.8,383.982ZM259.731,35.031c43.717-.16,75.439,31.664,75.945,76.188,0.5,43.787-32.048,75.308-78.559,76.09-44.016.739-79.207-34.489-78.8-78.881C178.718,65.569,212.4,35.206,259.731,35.031ZM253.562,277.85c-12.594-5.581-26.8-12.5-41.513-18.217-14.648-5.688-29.805-10.161-44.9-15.221,27.9-48.676,137.655-49.837,179.081-.847ZM68,330.458c0.032-29.848,6.1-37.5,28.232-32.449,6.3,1.438,14.184,8.685,15.718,14.617,2.78,10.747,1.9,22.526,1.51,33.841-0.476,13.849-8.031,20.37-23,18.955-13.634-1.288-25.049-3.737-22.559-20.951C68.564,339.885,68,335.134,68,330.458Zm376.016,0.864c0.294,31.187-3.054,36.64-25.331,33.668-7.234-.964-16.913-8.98-19.064-15.68-3.336-10.385-1.794-22.437-1.184-33.725,0.757-14.026,9.571-19.671,23.749-18.9,13.723,0.745,22.454,5.935,21.859,20.623C443.856,321.971,444.016,326.65,444.016,331.322Z"/>
</svg>
