<svg xmlns="http://www.w3.org/2000/svg" width="512" height="512" viewBox="0 0 512 512">
  <defs>
    <style>
      .cls-1 {
        fill: #fff;
        fill-rule: evenodd;
      }
    </style>
  </defs>
  <path class="cls-1" d="M141.913,278.626c-28.079,3.866-55.044,4.388-81.218-5.493-21.757-8.213-35.28-24.167-41.95-46.018-7.434-24.357-6.836-49.126-2.956-73.926,0.345-2.2,3.208-5.426,5.282-5.747,27.159-4.2,54.2-4.856,80.573,4.7,23.381,8.469,37.372,25.389,43.956,48.738,6.438,22.828,5.956,45.965,2.629,70.452-5.307-5.26-9.928-9.84-14.551-14.42-9.189-9.1-18.514-18.074-27.459-27.406a12.9,12.9,0,0,1-3.242-7.859c-0.356-11.09-.144-22.2-0.143-33.3,0-3.648.246-8-4.858-7.893-4.634.095-4.549,4.2-4.542,7.708q0.025,13.63.006,27.263l-1.356.889Q79.746,203.741,67.4,191.178c-4.668-4.729-9.431-9.366-14.1-14.095-2.339-2.369-4.886-3.359-7.491-.739-2.433,2.446-1.436,5,.768,7.044,5.468,5.072,11.035,10.04,16.563,15.048q-0.6.843-1.206,1.682c-6.931.5-13.862,1-20.794,1.482-3.491.24-6.885,0.963-6.4,5.372,0.444,4.01,3.75,4.187,7.03,3.947,8.808-.644,17.615-1.334,26.434-1.778,1.8-.092,4.219.217,5.394,1.336,10.525,10.016,20.837,20.255,30.8,31.8H90.833c-5.77,0-11.54.056-17.308-.027-3.278-.047-6.054.933-6.189,4.458-0.155,4.038,2.945,4.764,6.347,4.751,11.719-.042,23.442.123,35.156-0.118,4.266-.089,7.46.968,10.444,4.162,6.124,6.557,12.667,12.728,19.015,19.081C139.376,275.664,140.339,276.858,141.913,278.626Zm99.192-18.111c13.242,8.21,27.672,8.317,40.765-.039,4.971,3.9,9.123,7.729,13.82,10.716,9.4,5.978,19.506,10.928,28.587,17.327,14.323,10.09,21.5,25.134,26.082,41.439,1.318,4.689-2.211,5.681-6.155,5.687-20.538.033-41.075,0.162-61.613,0.183-34.025.035-68.049-.016-102.073,0.043-7.675.012-9.426-1.854-6.973-8.831,5.293-15.058,12.185-29.39,25.617-38.926,9.05-6.426,19.27-11.2,28.7-17.133C232.439,268.107,236.4,264.279,241.105,260.515Zm258.881-48.721c-2,19.941-10.307,41.063-25.276,59.577-4.7,5.811-10.828,6.88-17.515,4.923a53.133,53.133,0,0,0-30.84-.017c-7.43,2.208-13.684.407-18.624-5.982-13.832-17.885-22.57-37.888-24.221-60.39-1.65-22.477,14.551-33.463,35.54-24.795,15.248,6.3,30.467,6.378,45.622-.2,5.968-2.591,12.07-3.639,18.411-1.988C494.968,186.016,500.1,193.762,499.986,211.794ZM202.731,192.046c6.158,0.265,10.916,1.119,15.5.555a145.755,145.755,0,0,0,63.658-23.485c0.574-.383,1.214-0.672,1.74-0.959,10.563,7.812,17.9,22.143,34.833,15.968,4.983,10.673-.5,24.144-11.806,29-1.177.506-2,2.3-2.564,3.661a94.708,94.708,0,0,1-20.529,31.219c-13.469,13.422-30.488,13.355-43.844-.109a97.969,97.969,0,0,1-20.164-30.2c-0.892-2.037-3.386-3.4-5.2-5.015-2.106-1.875-5.133-3.277-6.242-5.6C205.721,202.07,204.3,196.6,202.731,192.046ZM115.208,144.23c29.417-50.4,93.1-91.976,171.539-80.957C360.253,73.6,407.461,127.545,422.084,172.185c-4.376-.858-8.827-1.4-13.03-2.721-1.651-.518-3.174-2.567-4.031-4.278C381.2,117.731,343.411,88.035,290.937,77.7,228.518,65.4,163.15,93.683,129.16,147.022c-0.764,1.2-1.576,2.369-2.6,3.9Zm170.8,12.79c-11.871,6.217-22.853,13.25-34.784,17.85-11.457,4.415-23.894,6.323-35.909,9.3-4.086,1.013-5.825-.791-6.433-4.819-3.95-26.175,15.339-56.278,41.006-63.492,13.574-3.816,25.957-.784,37.39,7.07,2.031,1.4,4.45,2.226,6.535,3.554,2.843,1.81,6.13,3.367,8.2,5.871,9.178,11.133,12.751,24.282,12.317,38.46-0.2,6.6-3.322,8.228-8.657,4.282-5.874-4.348-11.037-9.65-16.45-14.6A43.231,43.231,0,0,1,286.009,157.02ZM231.358,407.934c0,11.1.021,22.2-.007,33.3-0.02,7.835-1.924,9.661-9.991,9.685-5.408.017-10.819,0.1-16.225-.019-5.452-.117-7.851-2.514-7.861-7.966q-0.067-35.182.018-70.365c0.014-5.56,2.344-7.958,7.766-8.083q8.917-.2,17.843-0.032c6.217,0.127,8.4,2.357,8.436,8.565C231.405,384.658,231.358,396.3,231.358,407.934Zm59.89-.421c0-11.454-.024-22.907.011-34.361,0.02-6.518,2.128-8.614,8.746-8.684q8.38-.089,16.76.021c6.067,0.081,8.355,2.1,8.377,7.977q0.138,35.166.015,70.333c-0.02,5.971-2.206,8-8.238,8.1-5.946.1-11.9,0.133-17.839,0.012-5.521-.113-7.769-2.388-7.808-7.966C291.187,431.135,291.246,419.325,291.248,407.513Zm-123.764,1.969c0-8.758-.032-17.515.01-26.273,0.035-7.188,2.179-9.31,9.284-9.36,1.8-.013,3.6-0.074,5.4,0,5.548,0.241,8.083,2.454,8.115,7.868,0.115,18.588.053,37.176,0,55.765-0.016,4.99-2.741,7.519-7.717,7.713-0.9.035-1.8,0.007-2.7,0-11.377-.027-12.355-0.989-12.357-12.129q0-5.9-.009-11.8t0-11.795h-0.021Zm187.523-.05c0,9.116.047,18.231-.02,27.346-0.044,6.093-2.361,8.326-8.5,8.421-2.158.034-4.321,0.059-6.478-.037-5.172-.23-7.628-2.508-7.652-7.636q-0.132-27.88,0-55.764c0.024-5.432,2.407-7.648,7.971-7.888,2.156-.094,4.322-0.1,6.478-0.023,5.815,0.218,8.134,2.489,8.183,8.236C355.067,391.2,355.01,400.318,355.007,409.432Zm9.45-41.128-12.7-7.483c26.152-18.4,45.755-42.378,57.531-72.493l13.735,1.851C411.139,322.139,391.424,348.05,364.457,368.3Zm-262.2-74.621c4.72,0,8.5-.211,12.222.118a5.065,5.065,0,0,1,3.5,2.478c12.123,26.317,30.293,47.611,54.09,64.369l-13.438,6.9C133.593,348.864,114.856,324.419,102.252,293.683ZM470.993,153.109c0.041,16.317-10.79,27.745-26.548,28.947-4.282.328-6.765-1.126-7.924-5.325-4.8-17.409,5.2-33.1,23.164-36.152,7.492-1.271,9.678.29,10.88,7.89C470.844,150.228,470.9,152.021,470.993,153.109ZM285.652,416.655h-48.9V402.473h48.9v14.182ZM162.11,403.006v14.9c-3.6-1.377-7.411-1.744-9.118-3.82-1.495-1.818-1.815-6.383-.5-8.233,1.663-2.348,5.5-3.179,8.394-4.664ZM360.5,418.282v-17.2c3.744,1.526,7.6,2.013,9.423,4.184,1.463,1.744,1.627,6.431.257,8.184C368.389,415.744,364.517,416.427,360.5,418.282Z"/>
</svg>
