<?xml version="1.0" encoding="utf-8"?>
<!-- Generator: Adobe Illustrator 23.0.1, SVG Export Plug-In . SVG Version: 6.00 Build 0)  -->
<svg version="1.1" id="Layer_1" xmlns="http://www.w3.org/2000/svg" xmlns:xlink="http://www.w3.org/1999/xlink" x="0px" y="0px"
	 viewBox="0 0 512 512" style="enable-background:new 0 0 512 512;" xml:space="preserve">
<style type="text/css">
	.st0{fill:#FFFFFF;}
</style>
<path class="st0" d="M256.5,127c4.9-4.5,10.8-9.4,16.1-14.8c18.9-19.1,41.2-32.3,67.9-36.5c41.1-6.5,75.2,6.2,101.3,38.9
	c13.1,16.4,21.7,35,25.1,55.9c3.2,19.7,1.2,39-4.5,58c-7.2,24.1-19.3,45.8-33.7,66.2c-18.7,26.6-40.9,50.1-64.5,72.3
	c-33.1,31.2-69.1,58.8-105.8,85.5c-1.4,1-2.3,0.9-3.7,0c-35.6-25.9-70.6-52.7-102.9-82.8c-26.4-24.6-51.2-50.7-71.4-80.8
	c-13.7-20.3-25-41.7-31.1-65.6c-11.9-46.6-0.7-87.2,33.2-120.9c20.8-20.8,46.9-29.6,76.2-28.2c32.4,1.6,59.2,15.3,81.8,38.1
	C245.9,117.6,251.7,122.5,256.5,127z"/>
</svg>
