<svg xmlns="http://www.w3.org/2000/svg" width="512" height="512" viewBox="0 0 512 512">
  <defs>
    <style>
      .cls-1 {
        fill: #fff;
        fill-rule: evenodd;
      }
    </style>
  </defs>
  <path class="cls-1" d="M33,276.834V252.773a31.912,31.912,0,0,0,.745-3.742c1.353-16.646,4.64-32.909,11.019-48.3C72.936,132.752,123.275,94.281,195.856,86.888c38.526-3.924,74.729,5.137,107.318,26.23,49.662,32.142,77.537,78.312,82.515,137.866,3.893,46.577-9.263,88.28-38,124.817-6.551,8.33-14.121,15.839-21.328,23.844,1.278-.527,2.572-0.981,3.8-1.575q69.354-33.587,97.893-105.81a187.945,187.945,0,0,0,12.761-67.91c0.068-8.054,3.84-13,10.714-14.323,7.47-1.437,12.616,1.717,16.467,10.092v17.187c-0.936,7.212-1.621,14.468-2.847,21.629-9.113,53.241-33.992,97.555-74.675,132.485-35.559,30.53-76.774,48.043-123.413,51.234-18.466,1.263-37.056.738-55.591,0.865-26.993.185-52.943-5.037-77.2-17.1q-79.613-39.579-97.948-127.6C34.826,291.574,34.089,284.167,33,276.834ZM182.518,195.89c-0.065-22.521-18.658-41.158-40.973-41.071-22.223.087-40.491,18.945-40.615,41.486-0.121,21.976,19.055,41.2,41.023,41.086C163.791,237.276,183.031,218.066,182.518,195.89Zm135.938,0.183c0.01-22.579-17.969-40.314-40.828-40.276a40.309,40.309,0,0,0-40.762,40.4c-0.172,22.022,18.994,41.24,40.878,41.2S318.88,218.156,318.456,196.073ZM182.518,333.651a40.8,40.8,0,0,0-81.593-.2c-0.276,22.168,18.933,41.393,40.723,41.433C163.641,374.922,182.9,355.7,182.518,333.651Zm135.938-.151a40.8,40.8,0,0,0-81.591.1c-0.208,22.1,19.011,41.32,40.871,41.282C299.661,374.844,318.913,355.615,318.456,333.5ZM209.88,306.041c21.822,0.346,40.949-19.195,40.656-41.4a40.823,40.823,0,0,0-81.638.334C168.749,286.994,187.911,306.567,209.88,306.041Z"/>
</svg>
