<svg xmlns="http://www.w3.org/2000/svg" width="512" height="512" viewBox="0 0 512 512">
  <defs>
    <style>
      .cls-1 {
        fill: #fff;
        fill-rule: evenodd;
      }
    </style>
  </defs>
  <path class="cls-1" d="M437.026,278.03c-0.006,19.228.152,38.458-.048,57.684-0.224,21.59-12.515,33.6-34.141,33.766-4.045.032-8.094,0.1-12.135-.032-17.743-.564-31.033-12.94-31.207-30.6q-0.6-61.22.023-122.45c0.183-17.091,12.639-28.925,29.568-29.915,1.009-.059,2.024-0.013,3.032-0.089,34.421-2.578,46.979,11.543,45.074,44.078C436.267,246.275,437.032,262.175,437.026,278.03Zm-362.037-.139c0-19.228-.14-38.458.035-57.685,0.2-21.981,11.936-33.575,33.869-33.8,4.718-.047,9.448-0.147,14.155.115,16.469,0.917,29.147,12.542,29.359,29q0.8,62.227,0,124.47c-0.211,16.543-13.612,28.7-30.249,29.417-5.047.216-10.113,0.15-15.167,0.045-18.969-.393-31.3-12.708-31.978-31.859-0.024-.675-0.023-1.35-0.023-2.024Q74.989,306.734,74.989,277.891Zm332.76-113.94c-1.63,1.466-4.638,6.105-6.942,5.779-3.263-.463-7.662-4.064-8.671-7.246-3.345-10.546-4.362-21.876-8.1-32.244-21.81-60.486-79.7-96.161-144.083-89.4-60.284,6.334-110.1,55-119.222,116.461-0.247,1.669.26,3.894-.646,4.934a104.809,104.809,0,0,1-8.579,8.069c-2.264-3.526-7.125-7.775-6.378-10.462,5.387-19.374,9.092-39.981,18.6-57.3,27.523-50.1,72.262-77.3,128.62-78.544,80.29-1.78,145.033,56.472,154.888,135.49C407.323,160.164,407.393,160.835,407.749,163.951Zm59.663,206.731c-2.73,52.987-42.5,90.989-95.4,91.484-8.105.076-13.162,1.361-17.258,9.556-6.247,12.5-22.731,18.812-34.326,15.307-16.544-5-26.257-17.291-26.129-33.059a32.973,32.973,0,0,1,23.88-31.6c14.178-3.96,31.113,1.914,37.091,15.493,4.149,9.425,10.36,8.773,17.717,8.666,43.8-.643,76.693-32.425,78.879-76.065,0.314-6.274-2.018-15.654,8.41-14.929C470.231,356.231,466.818,365.4,467.412,370.682ZM59.2,277.144c0.012,17.22-.2,34.444.1,51.659,0.153,8.891-3.961,11.334-12.008,9.857-13.344-2.449-23.91-13.848-24.1-27.341q-0.473-33.42,0-66.851c0.2-14.277,11.893-26.185,25.951-27.777,6.872-.778,10.159,1.625,10.1,8.792C59.089,242.7,59.187,259.923,59.2,277.144Zm429.69,1.286c0,11.141.3,22.293-.08,33.421-0.471,13.665-12.062,25.479-25.633,27.045-6.636.765-10.39-1.319-10.377-8.609q0.1-52.67,0-105.34c-0.011-6.679,3.275-8.873,9.6-8.315,13.867,1.223,25.985,13.342,26.425,27.363C489.177,255.463,488.891,266.951,488.889,278.43ZM255.4,337.376c-29.636-.228-57.492-19.589-67.222-46.861-1.924-5.395-4.694-11.73,3.19-14.491,7.02-2.458,9.1,3.293,11.263,8.514,9.762,23.573,27.368,36.413,52.952,37.077,24.051,0.623,43.874-13.375,53.849-37.248,2.2-5.276,4.428-10.9,11.362-8.3,7.73,2.907,4.9,9.225,2.954,14.614C313.746,318.346,285.476,337.607,255.4,337.376Zm-48.538-97.717a15.336,15.336,0,0,1-15.518-15.325,15.256,15.256,0,0,1,30.5-.5A15.372,15.372,0,0,1,206.863,239.659Zm99.029-30.119A14.789,14.789,0,0,1,320.231,224.6c-0.18,7.9-7.1,14.763-14.879,14.742-8.134-.022-15.239-7.582-14.835-15.786A14.9,14.9,0,0,1,305.892,209.54Z"/>
</svg>
