<svg xmlns="http://www.w3.org/2000/svg" width="512" height="512" viewBox="0 0 512 512">
  <defs>
    <style>
      .cls-1 {
        fill: #fff;
        fill-rule: evenodd;
      }
    </style>
  </defs>
  <path class="cls-1" d="M111.127,414.688c16.267-6.707,31.142-4.8,45.068,5.086,17.431-30.776,57.133-31.805,76.6-3.723,16.533-8.185,32.6-7.128,48.247,3.869,7.637-13.855,18.866-22.482,34.28-24.172,15.274-1.675,27.99,4.1,38.217,15.865,15.236-9.815,30.763-10.532,46.834-2.38,0.912-1.22,1.749-2.322,2.565-3.438,16.325-22.34,47.882-24.24,66.358-3.752a14.771,14.771,0,0,1,3.466,8.838c0.323,17.363.172,34.736,0.15,52.105-0.009,7.464-2.5,10-9.83,10Q342.535,473,221.981,473H50.831c-8.547,0-10.748-2.242-10.749-10.985,0-18.485.1-36.971-.07-55.454a11.249,11.249,0,0,1,5.067-10c21.012-15.536,50.832-8.957,63.886,14.195C109.651,411.971,110.313,413.205,111.127,414.688Zm241.212-23.744c-18.666-10.887-37.507-12.534-56.552-3.073-5.761,2.863-10.8,7.372-15.889,11.484-1.911,1.541-3.234,2.272-5.713,1.381a60.982,60.982,0,0,0-33.535-2.015,6.35,6.35,0,0,1-4.824-1.3c-25.271-22.284-57.3-21.746-81.836,1.363a5.663,5.663,0,0,1-4.72,1.138c-8.727-2.733-17.484-4.5-26.592-2.447-2.858.643-4.74-.089-6.72-2.592A57.124,57.124,0,0,0,84.675,374.5c-1.193-.308-2.369-0.682-3.9-1.126,0.587-1.432,1.028-2.718,1.62-3.924q24.08-49.046,48.133-98.1a9.373,9.373,0,0,1,6.36-5.528q14.8-4.209,29.431-9.033c2.8-.919,4.489-0.366,6.47,1.739,6.8,7.225,13.785,14.264,20.736,21.338,4.747,4.83,7.783,5.026,12.917.671,9.34-7.925,18.669-15.865,27.856-23.973,2.1-1.852,3.7-2,6.149-.808,17.662,8.61,35.407,17.039,53.075,25.635a8.525,8.525,0,0,1,3.649,3.37Q324.778,337.039,352.2,389.43A6.231,6.231,0,0,1,352.339,390.944Zm23.517-201c-28.981-.109-52.275-24.2-52.173-53.957,0.1-29.315,23.845-53.33,52.514-53.114,28.988,0.218,52.148,24.384,51.933,54.187C427.92,166.18,404.327,190.048,375.856,189.94ZM200.35,265.069c-7.143-7.435-14.034-14.336-20.6-21.551-3.576-3.929-7.308-4.637-12.132-2.924-8,2.843-16.137,5.3-25.151,8.223,1.659-3.361,2.8-5.735,3.993-8.081,13.348-26.234,26.631-52.5,40.086-78.68,8.043-15.648,25.91-20.508,39.057-10.622a25.315,25.315,0,0,1,7.188,7.978c17.225,32.765,34.216,65.658,51.739,99.414a40.371,40.371,0,0,1-3.872-1.368c-12.441-6.14-24.966-12.114-37.251-18.567-5.6-2.945-9.892-2.6-14.7,1.81C219.7,248.965,210.2,256.666,200.35,265.069Zm191.234,47.273c-6.63,3.9-12.857,7.727-19.276,11.179-1.108.6-3.245,0-4.543-.725-9.393-5.259-18.706-10.668-28.015-16.084-4.485-2.608-8.828-5.854-14.265-1.433-4.549-9.047-8.863-17.461-12.952-25.989-0.479-1-.024-2.772.517-3.932,2.945-6.308,5.923-12.607,9.136-18.773,4.293-8.235,11.091-12.918,20.244-12.971,8.952-.051,15.883,4.325,20.112,12.379C372.244,274.469,381.683,293.09,391.584,312.342ZM334.1,320.818c9.463,5.389,19.07,10.533,28.335,16.261,5.276,3.263,9.737,3.531,15-.024,6.574-4.437,13.609-8.156,20.868-12.434,8.917,17.262,17.724,34.311,26.809,51.9a62.882,62.882,0,0,0-27.527,15.273,3.726,3.726,0,0,1-2.542.421c-7.558-.551-15.124-1.05-22.658-1.859-1.547-.166-3.671-1.17-4.344-2.446-11.654-22.078-23.123-44.259-34.632-66.418ZM448.941,188.75c-4.63-2.989-9.3-5.921-13.864-9.011a17.254,17.254,0,0,1-2.793-3.051c-2.633-2.971-3.081-6.283-.874-9.587,2.352-3.521,5.944-4.4,9.449-2.479a153.556,153.556,0,0,1,14.593,9.347c3.044,2.146,3.7,5.476,2.4,8.943C456.427,186.736,453.214,187.739,448.941,188.75Zm-139.613-82.1c-3.054-1.969-7.726-4.9-12.295-7.984a16.776,16.776,0,0,1-2.78-3.05c-2.754-3.15-3.162-6.582-.644-9.972,2.38-3.2,5.786-4,9.144-2.1,5.022,2.839,9.861,6.047,14.616,9.343,2.884,2,3.614,5.085,2.6,8.482C318.935,104.831,315.9,106.67,309.328,106.646Zm-7.224,82.94c-4.171-.276-7.217-1.8-8.372-5.908-1.145-4.073.529-7.026,4.007-9.152,3.72-2.272,7.293-4.8,11.026-7.045,4.512-2.717,8.62-1.674,11.172,2.638,2.5,4.229,1.463,8.4-2.92,11.352-3.1,2.087-6.211,4.185-9.448,6.039A35.6,35.6,0,0,1,302.1,189.586Zm30.082,30.859c-5.778.408-8.823-6.6-6.609-10.458,3.142-5.479,6.343-10.956,9.98-16.091,2.248-3.172,5.736-3.631,9.2-1.678,3.262,1.837,4.906,6.067,3.094,9.456a128.942,128.942,0,0,1-9.455,15.3C337.113,218.733,334.3,219.322,332.186,220.445Zm88.056,1.826c-2.324-1.58-5.214-2.7-6.851-4.839a114.961,114.961,0,0,1-8.268-13.22,7.542,7.542,0,0,1,2.508-10.371c3.526-2.193,7.751-1.245,10.143,2.532,2.951,4.659,5.852,9.364,8.507,14.2C429.248,215.988,426.363,221.481,420.242,222.271ZM430.765,98.706c0.65-.891,1.716-3.291,3.527-4.642,4.242-3.163,8.78-5.929,13.313-8.655a7.2,7.2,0,0,1,10.426,2.623,7.318,7.318,0,0,1-2.781,10.252,161.038,161.038,0,0,1-16.279,8.559C434.568,108.8,430.651,105.419,430.765,98.706Zm-133.71,30.069c2.171,0,4.351-.121,6.513.028,4.459,0.306,7.292,3.366,7.261,7.656a7.185,7.185,0,0,1-6.918,7.5c-4.951.248-9.931,0.231-14.884,0a7.514,7.514,0,0,1-7.166-7.383,7.648,7.648,0,0,1,7.286-7.769C291.771,128.62,294.418,128.774,297.055,128.775ZM383.344,55.24c0,2.386.144,4.782-.031,7.153-0.333,4.524-3.432,7.406-7.612,7.3a7.178,7.178,0,0,1-7.175-7.242c-0.211-5.079-.232-10.182.017-15.257a7.492,7.492,0,0,1,7.334-7.2,7.592,7.592,0,0,1,7.4,7.143c0.228,2.683.043,5.4,0.043,8.1h0.023Zm71.992,88.778c-2.481,0-4.976.17-7.441-.038a7.283,7.283,0,0,1-6.912-7.521c-0.027-4.094,2.66-7.388,6.8-7.6a143.35,143.35,0,0,1,15.346.025,7.318,7.318,0,0,1,6.78,7.693c-0.329,4.128-2.613,6.825-6.675,7.349a62.28,62.28,0,0,1-7.9.061C455.336,144,455.336,144.008,455.336,144.018ZM383.36,218.361c0,2.226.115,4.458-.02,6.676-0.272,4.465-3.375,7.689-7.317,7.774a7.569,7.569,0,0,1-7.505-7.532c-0.206-4.92-.2-9.862,0-14.782,0.186-4.546,3.331-7.448,7.508-7.388s7.056,3,7.308,7.621C383.469,213.267,383.356,215.817,383.36,218.361ZM412.307,79.946c-6.038-.831-9.33-5.934-6.689-11a102.951,102.951,0,0,1,8.537-13.562c2.462-3.332,6.019-3.7,9.54-1.48a7.284,7.284,0,0,1,2.376,9.973,80.382,80.382,0,0,1-6.992,11.2C417.393,77.175,414.6,78.352,412.307,79.946Zm-72.42-.1c0.665,0,.353.024,0.044,0-5.476-.494-16.03-15.46-14.073-20.708a9.675,9.675,0,0,1,5.726-5.357c2.012-.508,5.453.827,6.819,2.55a79.636,79.636,0,0,1,8.469,13.659C349.381,74.97,346.122,79.957,339.887,79.848Z"/>
</svg>
