<?xml version="1.0" encoding="utf-8"?>
<!-- Generator: Adobe Illustrator 23.0.1, SVG Export Plug-In . SVG Version: 6.00 Build 0)  -->
<svg version="1.1" id="Layer_1" xmlns="http://www.w3.org/2000/svg" xmlns:xlink="http://www.w3.org/1999/xlink" x="0px" y="0px"
	 viewBox="0 0 512 512" style="enable-background:new 0 0 512 512;" xml:space="preserve">
<style type="text/css">
	.st0{fill:#FFFFFF;}
</style>
<path class="st0" d="M77.3,192.8c3.6-9.3,6.8-11.6,16.8-11.6c25-0.1,50.1-1.1,75.1,0.2c31.7,1.6,59.8-8.2,85.4-25.2
	c19.4-12.9,37.5-27.9,55.8-42.4c5.2-4.1,10.4-6,16.3-3.6c5.9,2.4,7.8,7.5,7.8,13.9c-0.2,22.5-0.2,45.1,0.2,67.6
	c0.1,3.3,1.8,7.5,4.3,9.7c25.3,22.7,25.1,59-0.5,81.5c-2.2,1.9-3.7,5.6-3.8,8.5c-0.3,22.5-0.2,45.1-0.1,67.6
	c0,6.4-1.4,11.9-7.8,14.6c-6.4,2.7-11.7,0.4-16.7-4.2c-23.6-21.9-49.1-41.2-78.6-54.6c-17.8-8.1-36.3-12.8-56.1-12.4
	c-26.8,0.5-53.7,0.2-80.6,0.1c-10.9,0-13.5-1.8-17.5-11.5c-25.7-2.6-42.2-21.2-42.3-47.8C34.6,214.2,49.9,196.1,77.3,192.8z
	 M203.2,228.2c0,17.4,0,33.9,0,50.4c39.9,8.1,72.6,28.9,104.3,53.5c0-60.6,0-119.9,0-179.9c-1.6,0.9-2.5,1.4-3.4,2
	c-12.1,8.4-23.8,17.5-36.4,25.2c-29.4,17.9-60.8,29.3-96,28.2c-20.9-0.6-41.9-0.1-62.8-0.1c-7.8,0-12.5,4.1-12.4,10.4
	c0.1,6.1,4.5,10.1,12,10.3c9.3,0.2,18.7,0.1,28,0.1C158.3,228.2,180.2,228.2,203.2,228.2z"/>
<path class="st0" d="M413,164.9c6.1-7.6,11.8-14.8,17.6-22.1c71.6,50.9,67.5,154.2,0.2,201c-5.7-7.1-11.4-14.3-17.1-21.5
	C472.9,278.3,461.1,198.5,413,164.9z"/>
<path class="st0" d="M110.8,319.9c15.5,0,30.6,0,45.8,0c3.9,0,7.7,0,11.6,0c11.9,0,18.2,5,16.2,16.5c-2.6,14.8,2.1,24.5,13.8,33
	c7.1,5.2,10.5,13.5,10.4,22.8c-0.1,6.5-3.5,10.2-10,10.3c-16.8,0.2-33.5,0.5-50.3,0c-3.3-0.1-8.3-3.1-9.5-6
	c-9.7-24.2-18.6-48.8-27.7-73.2C110.8,322.4,110.9,321.5,110.8,319.9z"/>
<path class="st0" d="M397,301.2c-6.2-7.7-12-14.9-18.2-22.7c12-8.5,19.5-19.9,19.6-34.6c0.1-14.8-6.8-26.5-19.6-35.3
	c5.9-7.6,11.7-15,17.8-22.9c18.4,13.7,29.5,30.9,30.6,53.7C428.4,265.2,417.8,285.3,397,301.2z"/>
</svg>
