<?xml version="1.0" encoding="utf-8"?>
<!-- Generator: Adobe Illustrator 23.0.1, SVG Export Plug-In . SVG Version: 6.00 Build 0)  -->
<svg version="1.1" id="Layer_1" xmlns="http://www.w3.org/2000/svg" xmlns:xlink="http://www.w3.org/1999/xlink" x="0px" y="0px"
	 viewBox="0 0 512 512" style="enable-background:new 0 0 512 512;" xml:space="preserve">
<style type="text/css">
	.st0{fill:#FFFFFF;}
</style>
<path class="st0" d="M312.4,346.3c0.9-39.6,33.7-71.5,72.6-70.7c39.8,0.9,71.3,33.7,70.5,73.5c-0.8,40.3-34.1,70.9-76,69.7
	C343,417.9,311.5,383.9,312.4,346.3z"/>
<path class="st0" d="M188.1,346.4c0.9,37.5-30.7,71.5-67.1,72.5c-42,1.1-75.1-29.5-75.9-69.8c-0.8-39.8,30.7-72.6,70.5-73.4
	C154.5,274.8,187.2,306.7,188.1,346.4z"/>
<path class="st0" d="M321.7,169.5c-0.3,39-32.5,71-71.5,71c-39.5,0-71.6-32.6-71.4-72.5c0.2-39.6,32.7-71.4,72.1-70.8
	C290.8,97.9,322,129.7,321.7,169.5z"/>
</svg>
