<svg xmlns="http://www.w3.org/2000/svg" width="512" height="512" viewBox="0 0 512 512">
  <defs>
    <style>
      .cls-1 {
        fill: #fff;
        fill-rule: evenodd;
      }
    </style>
  </defs>
  <path class="cls-1" d="M263.454,138.279L287.8,158.188c0-14.139-1.138-25.463.454-36.4,0.867-5.958,5.125-12.82,9.973-16.593C329.892,80.556,376.192,61.259,422.99,52c0.014,23.082-19.7,50.659-55.819,77.174h29.6c-10.963,29.233-19.282,58.6-39.133,81.9-5.577,6.545-18.3,7.279-27.9,10.172-3.7,1.113-7.827.814-12.28,3.834l24.428,5.851c-17.327,22.024-36.116,40.024-66.56,40.772l15.861,5.222c-22.929,15.635-45.2,29.032-71.322,36.426a668.741,668.741,0,0,0,106.851-161.5c-43.674,48-84.235,98.835-136.5,138.951,10.992-25.909,21.984-51.817,33.263-78.4l16.695,10.057C235.376,189.736,240.567,161.179,263.454,138.279ZM213.219,357.423c3.258,1.11,6.8,2.041,10.113,3.487,42.091,18.376,47.454,51.926,30.883,91.975-3.167,7.651-16.328,15.3-25.278,15.8-33.646,1.851-67.471,1.312-101.2.46-13.588-.344-24.515-8.242-28.31-21.543-11.055-38.75-8.474-70.184,38.578-88.338,2.59-1,5.585-4.805,5.667-7.389,0.1-3.124-2.639-6.375-4.275-9.506-2.563-4.905-8.19-10.642-7.05-14.387,1.226-4.025,9.335-9.331,13.451-8.6,26.467,4.706,44-8.427,60.113-26.375,28.217-31.435,56.819-62.531,85.243-93.783,2.654-2.918,5.2-5.935,8.665-8.216A584.78,584.78,0,0,1,199.2,318.221c6.676,0.352,11.819-.532,15.866,1.162,3.958,1.657,8.772,5.52,9.57,9.194,0.789,3.637-1.877,9.459-4.952,12.185C212.6,347.042,212.13,346.515,213.219,357.423ZM140.09,377.461C121.1,376.125,116.8,387,112.253,396.443c-6.3,13.09-3.755,30.919,7.12,42.19C114.688,413.923,123.44,395.537,140.09,377.461Z"/>
</svg>
