<svg xmlns="http://www.w3.org/2000/svg" width="512" height="512" viewBox="0 0 512 512">
  <defs>
    <style>
      .cls-1 {
        fill: #fff;
        fill-rule: evenodd;
      }
    </style>
  </defs>
  <path class="cls-1" d="M116.147,450V323.221H77.995V288.91H374.709V322.4H337.518V450H116.147ZM316.79,281.671H210.847V233.434l-4.269-.689c-3.564,16.041-7.129,32.082-10.856,48.853H96.009c-2.5-5.318-1.793-8.436,5.347-8.308,9.025,0.162,18.055.039,25.654,0.039,4.456-22.574,8.653-43.835,12.786-64.774L125.842,216,118.831,206c14.68-10.411,29.226-20.414,43.351-30.955a36.266,36.266,0,0,0,9.158-11.028c4.027-7.019,9.76-10.937,17.754-9.44,7.806,1.462,12.816,6.553,13.164,14.818,0.369,8.78-4.572,15.66-12.716,16.1-31.077,1.687-41.019,23.218-47.633,47.255-3.438,12.492-3.871,25.773-5.807,39.751h28.21c5.159-18.124,8.851-36.223,15.479-53.23,11.108-28.5,26.287-37.564,57.421-37.6,16.023-.021,32.078.552,48.052-0.313,5.425-.294,12.042-2.863,15.743-6.619,34.319-34.834,68.118-70.156,102.074-105.332,8.832-9.15,19.589-9.945,26.249-1.966,5.728,6.864,4.86,14.515-3.1,22.78q-50.85,52.826-101.96,105.407c-5.08,5.2-7.88,10.087-7.69,17.618C317.155,235.875,316.79,258.523,316.79,281.671ZM263.047,169.743c-25.288-.211-44.129-18.8-43.827-43.252,0.311-25.252,19.264-43.164,45.34-42.848,24.709,0.3,42.925,19.181,42.75,44.311C307.145,151.464,287.567,169.947,263.047,169.743Z"/>
</svg>
