<svg xmlns="http://www.w3.org/2000/svg" width="512" height="512" viewBox="0 0 512 512">
  <defs>
    <style>
      .cls-1 {
        fill: #fff;
        fill-rule: evenodd;
      }
    </style>
  </defs>
  <path class="cls-1" d="M354.411,420.989V384.93c-19.358-3.148-38.64-3.421-55.566-9.759-21.191-7.934-43.043-17.883-60.023-32.2-41.049-34.624-40.393-88.608-1.512-125.565,54.753-52.047,162.079-53.638,218.706-3.243,44.022,39.178,44.253,94.845-1.474,132.365C423.357,372.111,389.765,394.869,354.411,420.989Zm9.079-201.747H338.259V295.7H363.49V219.242Zm-25.764,116.4H363.5V311.753H337.726v23.892Zm-40.36-165.572c-24.054,15.289-46.886,27.267-66.588,43.019-20.906,16.714-31.227,40.668-30.435,67.5,0.34,11.539-4.23,13.786-14.128,14.1-9.789.313-19.533,1.99-30.426,3.193v36.649c-5.459-3.374-9.043-5.246-12.239-7.619Q102.66,296.562,61.9,266.044c-54.647-40.89-54.464-104.295.386-144.963,55.21-40.936,147.346-39.987,201.129,2.3C280.023,136.443,292.962,152.18,297.366,170.073ZM163.708,209.622c9.608-10.282,16.086-17.944,23.332-24.825,16.751-15.907,12.373-41.036-8.807-48.852-17.627-6.5-39.221-.648-52.113,14.493q6.332,5.943,12.666,11.89c3.5-1.858,5.891-4.216,8.256-4.19,8.53,0.093,17.051.989,25.575,1.581-3.478,6.374-5.7,14-10.707,18.848-9.116,8.818-15.6,17.526-11.951,31.055h13.749ZM147.3,245.1h23.809V223.862H147.3V245.1Z"/>
</svg>
