<?xml version="1.0" encoding="utf-8"?>
<!-- Generator: Adobe Illustrator 23.0.1, SVG Export Plug-In . SVG Version: 6.00 Build 0)  -->
<svg version="1.1" id="Layer_1" xmlns="http://www.w3.org/2000/svg" xmlns:xlink="http://www.w3.org/1999/xlink" x="0px" y="0px"
	 viewBox="0 0 512 512" style="enable-background:new 0 0 512 512;" xml:space="preserve">
<style type="text/css">
	.st0{fill:#FFFFFF;}
</style>
<path class="st0" d="M53.1,377.9c0-9.4,0-18.1,0-22.8c21.5-11.7,42.2-20.9,60.3-33.9c9.6-6.8,14.5-20.2,22.5-32
	c-7.4-2.8-12-4.7-16.7-6.3c-43.1-15.1-68-58.5-58.6-102c9.2-42.9,50.4-74,92.9-70.2c45.9,4.1,80.6,40.4,82.5,86.3
	c3.8,91.9-83,182.3-174.8,182.1C58.7,378.9,56.3,378.3,53.1,377.9z"/>
<path class="st0" d="M283,377.9c0-10.1,0-18.9,0-28.9c38.6-4.6,66.9-22.6,81.1-61.3c-6.1-1.9-10.9-3.4-15.7-5
	c-42.8-15-66.6-57.3-57.8-102.4c8-41.1,49.3-72.6,91.2-69.8c44.4,3,79.3,37.1,83,81.2C472.9,287.8,379.9,384.1,283,377.9z"/>
</svg>
