<?xml version="1.0" encoding="utf-8"?>
<!-- Generator: Adobe Illustrator 23.0.1, SVG Export Plug-In . SVG Version: 6.00 Build 0)  -->
<svg version="1.1" id="Layer_1" xmlns="http://www.w3.org/2000/svg" xmlns:xlink="http://www.w3.org/1999/xlink" x="0px" y="0px"
	 viewBox="0 0 512 512" style="enable-background:new 0 0 512 512;" xml:space="preserve">
<style type="text/css">
	.st0{fill:#FFFFFF;}
</style>
<path class="st0" d="M88,454.5c-2.8-1.2-5.9-2.1-8.5-3.8c-6.3-4.1-9.4-10.3-9.5-17.7c-0.1-44-0.1-88.1,0-132.1
	c0-11.4,7.9-20.5,19.3-21c17.3-0.7,34.7-0.2,52-0.1c4.9,0,9.1,2.4,12.7,5.7c0.7,0.7,2.4,1.3,3.1,0.9c9.5-5.2,19.6-9.5,27.4-17.4
	c6.6-6.7,11.2-14.6,14.3-23.4c5-14,10-27.9,15.1-41.8c2.7-7.4,5.5-8.9,13.1-6.5c4.5,1.4,9.1,2.7,13.4,4.6
	c9.5,4.1,16.5,11.1,20.8,20.6c1.1,2.4,2.4,2.9,4.8,2.9c17.5-0.1,34.9,0,52.4-0.1c3.9,0,6.9,1.2,9.6,4c7.4,7.6,14.9,15.1,22.5,22.9
	c1.2-1.1,2.1-1.8,3-2.7c6.9-6.9,13.8-13.7,20.6-20.7c2.4-2.5,5.2-3.6,8.7-3.6c15.2,0.1,30.4,0,45.7,0c7.3,0,9.9-2.6,9.9-10
	c0-39.8,0-79.6,0-119.4c0-7.3-2.6-9.9-10-9.9c-97.7,0-195.4,0-293.1,0c-7.3,0-9.9,2.6-9.9,10c0,39.8,0,79.6,0,119.4
	c0,7.3,2.6,9.9,10,9.9c3.5,0,7-0.1,10.5,0c4.6,0.2,7.9,3.3,8,7.3c0.1,4.2-3.2,7.5-8,7.6c-3.9,0.1-7.7,0-11.6,0
	c-14.2-0.1-23.7-9.6-23.8-23.8c-0.1-26,0-51.9,0-77.9c0-13.1,0-26.2,0-39.3c0-16.9,3.4-22,18.7-28.3c101.8,0,203.7,0,305.5,0
	c2,0.8,3.9,1.4,5.9,2.3c7.2,3.2,10.7,9.3,12.9,16.4c0,43.9,0,87.9,0,131.8c-6.3,15.4-11.3,18.7-28.3,18.7c-12.6,0-25.2,0.1-37.8-0.1
	c-2.5,0-4.2,0.7-5.8,2.5c-7.7,7.8-15.5,15.6-23.2,23.3c-5.6,5.5-9.1,5.6-14.6,0.1c-7.9-7.8-15.6-15.8-23.6-23.5
	c-1.3-1.3-3.6-2.2-5.4-2.3c-14.7-0.2-29.4-0.1-44.2-0.1c-1.6,0-3.2,0-4.8,0c0.3,0.2,0.7,0.5,1,0.7c-3.8,12.7-7.5,25.4-11.4,38.4
	c1.3,0,2.7,0,4,0c17.8,0,35.7-0.1,53.5,0c14.4,0,24.8,7.6,28.5,20.7c1.9,7,1,13.8-2.4,20.2c25.1,9.4,26,42.3,1.3,52.9
	c4.1,7.6,4.9,15.5,1.7,23.7c-3.1,8.2-9.3,13.2-17.1,16.5c4.8,11,4.5,19.5-0.8,28.2c-4.5,7.4-11.5,11.1-19.7,12.9
	c-37.4,0-74.9,0-112.3,0c-11.6-1.6-22.8-4.6-33.7-9c-0.6-0.2-1.8,0-2.2,0.5c-3.4,4.6-8.4,6.8-13.6,8.5
	C124.4,454.5,106.2,454.5,88,454.5z M226.7,213.1c-0.6,1.4-1.1,2.7-1.6,3.9c-4.2,11.7-8.5,23.4-12.7,35.1
	c-5.3,14.8-14.2,26.9-27.3,35.6c-6.7,4.5-14,8.2-21.1,12c-2.5,1.3-3.5,2.8-3.5,5.7c0.2,15.6,0.1,31.2,0.1,46.8c0,24.8,0,49.7,0,74.5
	c0,1.7-0.3,3.2,2,4.2c12.7,5.3,25.7,8.7,39.5,8.6c25.5-0.2,50.9-0.1,76.4-0.1c7.5,0,15,0.1,22.5-0.1c7.1-0.2,12.4-5.6,12.4-12.4
	c0-6.7-5-12.2-11.9-12.4c-8-0.3-16-0.1-24-0.2c-1.6,0-3.3-0.1-4.8-0.4c-3.6-0.7-5.8-3.6-5.8-7.2c0.1-3.5,2.5-6.5,6-7
	c1.5-0.2,3-0.3,4.5-0.3c12,0,24,0,35.9,0c1.7,0,3.5-0.1,5.2-0.3c7.2-1.1,11.8-8.2,10-15.3c-1.5-5.9-6.3-9.4-13.1-9.5
	c-13.4-0.1-26.7,0-40.1,0c-5.1,0-8.2-2.8-8.4-7.1c-0.2-4.5,3-7.5,8.2-7.8c1-0.1,2,0,3,0c17.2,0,34.4,0,51.7,0c4.1,0,7.7-1,10.4-4.1
	c3.4-3.9,4.3-8.5,2.2-13.2c-2.1-4.9-6.1-7.5-11.5-7.5c-17.8,0-35.7,0-53.5-0.1c-1.7,0-3.5-0.1-5.2-0.6c-3.4-0.9-5.2-3.3-5.3-6.9
	c-0.1-4.6,3-7.5,8.3-7.5c12.4-0.1,24.7,0,37.1,0c2,0,4-0.1,5.9-0.6c6-1.5,9.9-7.6,9-13.7c-1-6.8-6.1-10.8-14-10.8
	c-22.2,0-44.4,0-66.6,0c-8.3,0-11.2-4.1-8.5-12.1c3.5-10.4,7.1-20.7,10.5-31.2C254.3,233.3,245.2,217.4,226.7,213.1z M107.8,294.5
	c-5.9,0-11.1-0.2-16.3,0.1c-4.4,0.2-6.5,2.8-6.5,7.6c0,43.2,0,86.4,0,129.5c0,5.4,2.4,7.8,7.8,7.8c15.1,0.1,30.2,0.1,45.3,0
	c5.1,0,7.5-2.5,7.5-7.7c0-43.3,0-86.6,0-129.9c0-4.9-2.4-7.3-7.3-7.5c-3.7-0.1-7.5,0.2-11.2-0.1c-3.6-0.3-4.3,1-4.3,4.4
	c0.1,28.1,0.1,56.2,0.1,84.2c0,1.7,0,3.5-0.4,5.2c-0.6,3.5-3.6,5.9-7.2,5.8c-3.6,0-6.5-2.4-7.1-5.9c-0.3-1.7-0.3-3.5-0.3-5.2
	c0-27.7,0-55.4,0-83.1C107.8,298.1,107.8,296.5,107.8,294.5z"/>
<path class="st0" d="M394.6,192.4c-2.4-1.2-6.6-2.8-10.4-5.1c-3.4-2.1-6.2-2.2-9.5,0.1c-2.5,1.7-5.2,3-7.9,4.1
	c-8.8,3.6-17.8-3.4-16.5-12.7c0.5-3.6,1.4-7.1,1.7-10.7c0.1-1.5-0.5-3.4-1.5-4.5c-2.2-2.7-4.9-4.9-7.4-7.4
	c-3.4-3.5-4.6-7.6-3.1-12.4c1.6-4.9,5.2-7.4,10.2-8.2c3.3-0.5,6.7-0.8,10-1.6c1.4-0.4,3-1.5,3.8-2.8c1.8-3,3.1-6.2,4.7-9.3
	c2.3-4.3,5.8-6.7,10.8-6.7c5,0,8.5,2.5,10.8,6.8c1.7,3.2,3.1,6.5,4.9,9.6c0.6,1.1,2.1,2.1,3.3,2.4c3.3,0.7,6.6,1.1,10,1.6
	c5,0.7,8.6,3.2,10.3,8c1.8,5,0.3,9.3-3.3,13c-2.1,2.1-4.1,4.4-6.4,6.2c-2.3,1.8-2.6,3.9-2.1,6.6c0.7,3.5,1.4,7.1,1.7,10.7
	C409.2,187,403.6,192.6,394.6,192.4z M401,150.3c-5.2-1.6-10.2-2-13.7-4.6c-3.5-2.6-5.4-7.3-7.8-10.7c-2.4,3.4-4.3,8.2-7.7,10.7
	c-3.5,2.6-8.6,3-13.9,4.6c9.8,5.6,11.7,14,8.5,24.5c8.9-6.7,17.5-6.6,26.4,0C389.3,164.3,391.7,156.2,401,150.3z"/>
<path class="st0" d="M159.8,178.8c0.5-2.9,0.9-6.9,1.8-10.7c0.5-2.2-0.1-3.5-1.7-4.9c-2.5-2.3-4.9-4.6-7.2-7
	c-3.5-3.6-4.8-7.9-3.1-12.7c1.7-4.8,5.4-7.3,10.4-8c0.7-0.1,1.5-0.4,2.2-0.3c8.3,0.6,12.5-3.9,15-11.2c1.8-5.3,5.6-8.8,11.7-8.9
	c4.7,0,8.2,2.1,10.5,6c1.7,3,3.2,6.2,4.7,9.4c1,2.2,2.2,3.6,4.9,3.7c3.1,0.1,6.2,0.8,9.2,1.3c5,0.8,8.6,3.4,10.2,8.2
	c1.5,4.6,0.4,8.9-3,12.4c-3,3.1-7.6,5.7-8.8,9.4c-1.2,3.7,1,8.4,1.6,12.7c0.6,4.9-0.8,9.2-5,12.1c-4.2,2.9-9.1,3.3-13,0.3
	c-7.7-5.8-14.4-5.1-22.5,0C169.2,195.9,159.6,189.7,159.8,178.8z M175.8,174.8c8.9-6.7,17.5-6.6,26.5-0.1
	c-3.7-10.6-0.7-18.6,8.1-25.2c-11.3,0.3-17.9-5-21.4-15.4c-3.2,10.8-10.2,15.7-21.3,15.5C176.8,156.1,179.3,164.3,175.8,174.8z"/>
<path class="st0" d="M284.2,115.1c5,0,8.5,2.4,10.8,6.7c1.6,3,3.1,6,4.5,9c0.9,2,2.1,3.1,4.4,3.2c3.3,0.2,6.7,0.8,10,1.4
	c9.9,1.8,13.8,12.3,7.2,19.9c-2.5,2.9-5.6,5.4-8.1,8.3c-0.8,0.9-1.4,2.6-1.2,3.8c0.4,4.1,1.5,8.1,1.7,12.2
	c0.5,9.4-8.1,15.2-16.7,11.5c-3.5-1.5-6.8-3.6-10.3-5.2c-1.1-0.5-2.9-0.5-4,0c-3.3,1.5-6.4,3.3-9.6,5c-4.4,2.2-8.8,2-12.7-0.8
	c-4.1-3-6.2-7.4-4.7-12.1c2.9-9,1.3-15.9-6.7-21.5c-4.2-2.9-5.4-7.8-3.8-12.8c1.6-5.1,5.6-7.8,10.9-8.4c0.7-0.1,1.5-0.4,2.2-0.4
	c8,0.6,12-3.7,14.5-10.8C274.2,118.9,277.9,115.1,284.2,115.1z M284.3,134.1c-3.3,10.8-10.4,15.6-21.5,15.7
	c9.8,6.2,11.3,14.7,8.5,25.1c9-7.3,17.5-6.3,26.4-0.1c-4.1-10.6-1.1-18.6,7.9-25.3C294.4,149.8,287.6,144.7,284.3,134.1z"/>
<path class="st0" d="M185.5,232.8c0,4-3.3,7.5-7.2,7.5c-4,0-7.4-3.3-7.4-7.4c0-4,3.3-7.5,7.2-7.5
	C182.1,225.4,185.5,228.7,185.5,232.8z"/>
<path class="st0" d="M122.7,413.6c0,4.1-3.1,7.4-7.2,7.5c-4.1,0.1-7.4-3-7.5-7.2c-0.1-4.2,3.3-7.8,7.4-7.8
	C119.3,406.1,122.6,409.5,122.7,413.6z"/>
</svg>
