<svg xmlns="http://www.w3.org/2000/svg" width="512" height="512" viewBox="0 0 512 512">
  <defs>
    <style>
      .cls-1 {
        fill: #fff;
        fill-rule: evenodd;
      }
    </style>
  </defs>
  <path class="cls-1" d="M358.454,277.6h-39.69l53.52,84.881c26.619,42.214-4.693,96.408-55.7,96.408h39.689c51.006,0,82.318-54.194,55.7-96.408Zm58.892,81.7-22.121-35.085a6.409,6.409,0,0,0-8.657-2.023,6.006,6.006,0,0,0-2.084,8.4l22.121,35.084a55.127,55.127,0,0,1,1.137,57.859c-10.583,18.315-29.822,29.25-51.465,29.25H177.721c-21.643,0-40.881-10.935-51.464-29.251a55.121,55.121,0,0,1,1.135-57.858l51.678-81.963H354.929l14.753,23.4a6.332,6.332,0,0,0,5.375,2.923,6.418,6.418,0,0,0,3.28-.9,6.006,6.006,0,0,0,2.085-8.4L324.788,212.5V86.461c10.458-.525,18.8-8.943,18.8-19.218,0-10.611-8.9-19.244-19.835-19.244H210.243c-10.936,0-19.834,8.634-19.834,19.244,0,10.274,8.342,18.694,18.8,19.217v52.018a6.3,6.3,0,0,0,12.592,0V86.486h13.64a6.111,6.111,0,1,0,0-12.217h-25.2a7.03,7.03,0,1,1,0-14.054h113.51a7.03,7.03,0,1,1,0,14.054h-59.92a6.111,6.111,0,1,0,0,12.216H312.2V214.216a5.968,5.968,0,0,0,.927,3.187l34.1,54.089H186.772l34.1-54.089a5.977,5.977,0,0,0,.924-3.187v-48.19a6.3,6.3,0,0,0-12.592,0V212.5L116.651,359.3a66.885,66.885,0,0,0-1.378,70.206c12.84,22.226,36.185,35.5,62.448,35.5H356.277c26.261,0,49.607-13.269,62.448-35.5a66.883,66.883,0,0,0-1.379-70.2h0ZM245.982,202.039h36.637a6.111,6.111,0,1,0,0-12.217H245.982A6.111,6.111,0,1,0,245.982,202.039Zm0,27.224h22.674a6.111,6.111,0,1,0,0-12.217H245.982A6.111,6.111,0,1,0,245.982,229.263Zm0,27.223h22.674a6.111,6.111,0,1,0,0-12.217H245.982A6.111,6.111,0,1,0,245.982,256.486Zm165.994,106L358.457,277.6H175.541l-53.52,84.882c-26.614,42.213,4.7,96.407,55.7,96.407H356.277C407.28,458.89,438.59,404.7,411.976,362.483Zm-165.994-9.321h22.674a6.111,6.111,0,1,1,0,12.216H245.982A6.111,6.111,0,1,1,245.982,353.162Zm-6.3-21.114a6.2,6.2,0,0,1,6.3-6.109h22.674a6.111,6.111,0,1,1,0,12.217H245.982A6.205,6.205,0,0,1,239.686,332.048Zm6.3,48.338h22.674a6.111,6.111,0,1,1,0,12.217H245.982A6.111,6.111,0,1,1,245.982,380.386Zm36.637,39.44H245.982a6.111,6.111,0,1,1,0-12.217h36.637A6.111,6.111,0,1,1,282.619,419.826Zm0-108.894H245.982a6.111,6.111,0,1,1,0-12.217h36.637A6.111,6.111,0,1,1,282.619,310.932Z"/>
</svg>
