<svg xmlns="http://www.w3.org/2000/svg" width="512" height="512" viewBox="0 0 512 512">
  <defs>
    <style>
      .cls-1 {
        fill: #fff;
        fill-rule: evenodd;
      }
    </style>
  </defs>
  <path class="cls-1" d="M131.219,430.509c-13.751,0-26.18.02-38.61,0-29.84-.053-49.572-18.936-49.591-47.6Q42.949,280.4,43,177.882c0.011-23.879,13.841-41.5,36.568-46.369a71.242,71.242,0,0,1,14.514-1.177c25.212-.107,50.424-0.045,75.636-0.042h5.994l1.363-1.683a19.684,19.684,0,0,1-3.825-1.871q-26.606-21.114-53.132-42.317c-5.5-4.375-7.451-9.928-5.535-16.409,1.771-5.991,6.4-9.352,12.717-10.328,5.6-.865,10.008,1.691,14.151,5.009q36.375,29.128,72.828,58.164c8.224,6.573,8.179,6.571,17.8,1.7q86.188-43.588,172.4-87.14c9.168-4.631,18.34-2.4,22.616,5.368,4.211,7.651,1.153,16.221-7.643,20.693Q385.2,78.9,350.848,96.146q-30.973,15.624-61.957,31.229a6.94,6.94,0,0,0-3.161,2.917h5.682c43.2,0,86.393-.065,129.589.034,22.814,0.053,40.374,11.656,46.518,30.971a54.367,54.367,0,0,1,2.39,16.158q0.231,103,.086,205.993c-0.017,27.946-20.03,47.041-49.149,47.062-11.39.008-22.78,0-35.12,0,1.52,1.694,2.376,2.778,3.366,3.733,6.519,6.285,13.182,12.437,19.573,18.84,6.124,6.136,6.065,15.164.175,20.9a15.853,15.853,0,0,1-22.149-.111q-20.821-19.694-41.324-39.695a11.975,11.975,0,0,0-9.186-3.749q-78.157.19-156.314,0.016a10.3,10.3,0,0,0-7.851,3.272q-20.742,20.113-41.694,40.025a15.687,15.687,0,0,1-16.7,3.705c-5.948-1.96-9.24-6.3-10.009-12.225-0.644-4.957,1.255-9.138,4.939-12.639q9.31-8.85,18.55-17.771C128.246,433.712,129.293,432.529,131.219,430.509ZM256.361,400.7H420.718c12.258,0,18.281-5.734,18.281-17.447q0.007-102.012,0-204.025c0-14.072-5.367-19.243-20.018-19.244q-163.1-.006-326.193,0c-12.914,0-18.778,5.621-18.779,18Q74,280.725,74.01,383.465c0,11.376,6.133,17.227,17.993,17.227Q174.182,400.686,256.361,400.7Zm-30.14-22.21q-53.187,0-106.374,0c-11.714,0-17.73-5.692-17.734-16.868q-0.031-81.223-.014-162.446c0-11.138,6.1-16.992,17.712-16.994q107.133-.016,214.265.013c11.295,0,17.443,5.855,17.449,16.7q0.048,81.707,0,163.412c-0.006,10.256-6.264,16.176-16.912,16.181Q280.417,378.51,226.221,378.49Zm0.453-9.783q53.184,0,106.368,0c6.871,0,8.221-1.315,8.221-7.93q0.006-80.49,0-160.981c0-6.261-1.468-7.752-7.911-7.753q-106.366-.027-212.735-0.006c-6.8,0-8.275,1.446-8.276,7.945q-0.011,80.007.009,160.015c0,7.586,1.184,8.713,8.969,8.715Q174,368.715,226.674,368.707Zm149.809-81.539c0.027-9.491,8.042-17.107,17.974-17.077,9.964,0.03,17.94,7.591,18.045,17.1,0.105,9.486-8.472,17.64-18.335,17.431C384.24,304.413,376.457,296.73,376.483,287.168ZM394.4,367.807c-9.905-.014-17.887-7.711-17.882-17.242s8.028-17.222,17.941-17.217c9.825,0,17.983,7.861,17.94,17.278C412.354,360.127,404.293,367.822,394.4,367.807Zm0.328-160.953c9.9,0.114,17.866,7.979,17.674,17.453-0.195,9.553-8.232,16.979-18.254,16.862-9.917-.114-17.784-7.89-17.633-17.427S384.723,206.738,394.726,206.854Z"/>
</svg>
