<svg xmlns="http://www.w3.org/2000/svg" width="512" height="512" viewBox="0 0 512 512">
  <defs>
    <style>
      .cls-1 {
        fill: #fff;
        fill-rule: evenodd;
      }
    </style>
  </defs>
  <path class="cls-1" d="M303.655,475.972c-9.476,0-18.953.024-28.428-.008-7.491-.026-10.232-2.766-10.7-10.142-2.268-35.328-4.633-70.648-6.879-105.977a54.733,54.733,0,0,1,6.24-30.022c10.013-18.4,20.507-36.525,30.9-54.71a42.5,42.5,0,0,1,19.028-17.39c17.038-8.329,33.691-17.459,50.591-26.081,10.289-5.25,21-.324,23.26,10.422,1.432,6.8-1.9,13.461-8.881,17.119-14.366,7.529-28.811,14.9-43.2,22.389-5.586,2.907-7.59,7.652-5.434,12.482,2.346,5.254,7.736,6.921,13.55,3.92,14.275-7.371,28.494-14.855,42.731-22.3,7.322-3.831,14.8-7.4,21.874-11.654a23.979,23.979,0,0,0,8.329-8.044c11.867-20.716,23.321-41.675,34.981-62.513,3.4-6.075,8.752-8.71,14.39-7.414,8.194,1.884,12.268,10.248,8.716,18.5-4.328,10.051-8.94,19.976-13.434,29.954-6.456,14.332-13.013,28.619-19.326,43.015a29.328,29.328,0,0,1-11.428,12.918q-34.473,22.466-68.994,44.855-15.248,9.859-30.736,19.335c-2.44,1.5-3.067,3.009-2.654,5.956,4.757,33.954,9.31,67.936,13.938,101.907,1.384,10.152-1.388,13.477-11.373,13.484Q317.181,475.98,303.655,475.972Zm-95.221,0c-9.633,0-19.266.044-28.9-.012-7.4-.044-10.683-3.742-9.689-11.148,4.5-33.535,9-67.07,13.72-100.574,0.735-5.223.041-8.377-4.972-11.522-31.162-19.546-61.974-39.659-93-59.433a44.708,44.708,0,0,1-17.866-20.932c-9.686-22.684-20.2-45.007-30.291-67.515-2.618-5.838-1.581-11.432,2.453-15.4,3.853-3.787,9.761-5.077,14.353-2.209a20.947,20.947,0,0,1,6.732,7.255c11.632,20.508,22.9,41.226,34.613,61.687a21.271,21.271,0,0,0,8.005,7.754c21.306,11.446,42.8,22.545,64.236,33.736,6,3.134,11.28,1.969,13.872-2.987,2.606-4.981.591-10.105-5.422-13.236-14.392-7.493-28.859-14.838-43.233-22.363-7.17-3.755-10.363-11.01-8.323-18.191,2.061-7.256,8.415-11.98,15.849-11.334a20.564,20.564,0,0,1,7.358,2.277c18.531,9.479,37.111,18.874,55.392,28.83a29.633,29.633,0,0,1,10.918,10.218c11.978,20.1,23.672,40.394,34.836,60.969,6.421,11.832,5.743,25.046,4.839,38.115-1.846,26.689-3.531,53.388-5.275,80.084-0.363,5.556-.608,11.121-1.065,16.669-0.515,6.256-3.607,9.187-9.789,9.238C228.005,476.029,218.219,475.97,208.434,475.97Zm25.259-373.544c-21.323-18.778-16.205-44.419-3.355-56.5,14.768-13.879,37.3-13.188,51.421,1.844,12.025,12.8,15.636,37.778-6.188,55.505,6.231,5.49,12.232,11.092,18.558,16.291,18.082,14.861,26.644,33.991,26.2,57.521-0.279,14.838-.02,29.685-0.074,44.528-0.031,8.217-3.962,12.324-12.069,12.337q-54.318.088-108.635,0c-6.712-.01-11.317-3.3-11.329-9.551-0.039-21.3-.412-42.676,1.262-63.869,1.219-15.408,9.867-28.011,21.447-38.205C218.408,115.746,225.924,109.215,233.693,102.426ZM334.3,216.556c0-15.088.021-29.431-.006-43.773a79.3,79.3,0,0,0-10.5-39.814c-2.887-5.051-6.458-9.7-9.927-14.845l8.949-8.118c-8.843-7.513-12.9-16.867-11.486-28.336a28.1,28.1,0,0,1,9.941-18.23,29.007,29.007,0,0,1,40.189,2.272c12.051,13.1,10.513,29.018-4.659,45.294,5.391,4.73,10.74,9.5,16.166,14.169,13.111,11.288,19.779,25.588,19.786,43.032,0.006,12.832.041,25.663-.019,38.494-0.027,5.718-2.763,9.154-7.783,9.627-3.336.316-6.713,0.215-10.073,0.22C361.6,216.568,348.32,216.556,334.3,216.556ZM186.434,110.909l8.156,7.362c-0.616.86-1.091,1.621-1.658,2.3-13.15,15.812-19.209,34.153-19.145,54.706,0.038,12.214-.082,24.43.06,36.642,0.038,3.21-.538,4.725-4.214,4.676-14.666-.2-29.336-0.026-44-0.107-6.752-.038-10.075-2.8-10.143-9.216-0.158-14.835-.373-29.7.327-44.508,0.712-15.1,7.664-27.424,18.974-37.243,5.79-5.028,11.559-10.078,17.756-15.482-8.655-7.355-12.989-16.518-11.7-27.778A28.689,28.689,0,0,1,151.522,62.92a29,29,0,0,1,40.124,3.391C203.16,79.163,201.338,95.773,186.434,110.909Z"/>
</svg>
