<svg xmlns="http://www.w3.org/2000/svg" width="512" height="512" viewBox="0 0 512 512">
  <defs>
    <style>
      .cls-1 {
        fill: #fff;
        fill-rule: evenodd;
      }
    </style>
  </defs>
  <path class="cls-1" d="M219.628,481.3C160.579,485.579,111.443,462.544,67.16,426.5c-5.75-4.682-7.427-8.959-1.628-14.556C98.772,379.864,135.7,354.23,183.069,346c62.609-10.88,117.815,4.364,166.254,44.048,7.792,6.379,14.93,13.512,22.609,20.031,6.925,5.881,7.464,10.715-.16,16.917-44.029,35.826-92.9,58.475-152.144,54.3m-49.007-60.637q-0.53,1.507-1.06,3.017,5.2,5.845,10.4,11.7c3.793-4.516,7.586-9.03,12.284-14.621h7.5c4.861,6.176,8.13,10.327,11.4,14.481l11.907-12.506-1.8-1.875h13.9q-0.939,1.152-1.878,2.3l9.955,12.264,12.8-14.644h10.4l-1.983,2.319q5.556,6.189,11.114,12.377c3.594-4.247,7.189-8.493,10.339-12.219,4.542-3.763,8.837-7.322,13.134-10.879q-6.757-5.637-13.51-11.274c-3.04-3.916-6.265-8.072-9.486-12.227q-5.819,6.373-11.634,12.746,0.876,0.908,1.751,1.819H252.091q0.969-1.121,1.941-2.236l-9.848-12.417L231.3,403.364H220.364l1.952-2.32-10.09-12.183-12.743,14.747h-10.1l1.737-1.969L180.229,388.75l-12.308,14.813H157.08q1.024-1.239,2.049-2.484-5.523-6.14-11.045-12.283c-3.642,4.276-7.283,8.555-9.4,11.037-5.774,5-9.989,8.658-14.2,12.31,4.649,3.79,9.3,7.578,12.059,9.828l10.645,13.257c4.312-4.376,8.625-8.754,14.358-14.57h9.074Zm42.551-253.741L189.187,188.7q-48.921-48.072-99.353-97.624c20.961-18.782,47.643-30.382,79.514-34.438C170.438,98.666,184.233,135.136,213.172,166.917ZM38.477,184.394c4.4-31.354,16.318-57.109,36.446-79.113,33.538,32.843,66.435,65.059,100.326,98.25l-25.626,21.658C119.253,199.1,82.027,185.383,38.477,184.394ZM222.63,153.787c-24.068-27.46-36.639-60.147-36.881-98.756,39.149,0.568,72.862,12.141,101.3,36.7C265.755,112.244,244.726,132.5,222.63,153.787ZM139.753,237.63c-21.877,21.395-42.62,41.677-63.364,61.957-21.912-17.027-39.59-61-39.168-98.969C76.086,200.1,109.545,212.854,139.753,237.63Zm100.485-18.046c15.646-12.161,31.292-24.321,44.644-34.7,17.2,11.861,31.718,21.879,46.243,31.882,11.469,7.9,11.25,33.7-.353,41.26-3.433,2.237-7.317,4.037-10.206,6.817-14.573,14.008-30.333,15.295-47.092,4.4-4.025-2.615-8.033-6.106-10.392-10.121-3.511-5.973-5.143-12.97-8.326-19.165-3.2-6.218-7.312-11.987-11.024-17.953Zm-87.459,31.227c19.563,21.628,31.3,47.5,35.763,76.555-16.315,4.826-31.636,9.493-47.071,13.774a11.327,11.327,0,0,1-7.461-1.114c-15.752-8.226-31.359-16.721-47.54-25.416ZM482.871,313.24c-3.917,14.821-8.362,31.639-13,49.192-18.142-8.4-35.5-4.907-52.239-4.367-14.02.453-19.838-8.679-27.359-16.3-1.643-1.666-.994-6.329-0.194-9.3,3.053-11.351,6.287-22.681,10.158-33.784,1.17-3.355,4.137-6.576,7.115-8.785,12.078-8.963,23.522-8.053,34.979,2.006,6.093,5.353,13.365,9.593,20.576,13.516C468.361,308.387,474.558,310.056,482.871,313.24ZM408.317,185.484c9.118,6.092,20.491,13.687,29.862,19.95-5.256,17.571-9.973,33.107-14.537,48.682-3.154,10.76-16.975,22.757-27.765,23.281-2.29.113-4.855-1.549-7-2.852-5.744-3.488-10.984-7.947-17.044-10.724-13.646-6.255-18.029-16.016-16.928-30.565,0.66-8.76,3.426-13.942,10.661-18.559C379.26,205.956,392.42,196.419,408.317,185.484ZM372.826,334.3c-15.645,0-30.314.35-44.939-.293-2.907-.127-5.656-4.032-8.441-6.235a2.531,2.531,0,0,1-.294-1.047C306.74,289.9,307.3,288.364,342.768,269.38a10.51,10.51,0,0,1,8.667.191,282.7,282.7,0,0,1,28.1,18.347c2.5,1.9,4.1,7.241,3.389,10.421C380.276,310.107,376.489,321.631,372.826,334.3ZM236.537,167.753l65.648-64.427c10.357,17.323,20.364,34.069,28.991,48.5-24.436,10.422-46.567,19.974-68.849,29.191a10.1,10.1,0,0,1-7.926-.554C248.121,176.575,242.322,171.947,236.537,167.753ZM212.565,321.6c7.178-3.778,12.965-5.655,17.172-9.28A312.836,312.836,0,0,0,255.3,287.5c4.608-4.99,8.518-4.532,14.669-2.92,17.351,4.548,27.237,14.265,29.557,32.057,1.158,8.884,4.752,17.467,7.007,25.36-21.791-4.783-43.05-9.722-64.451-13.99-6.912-1.379-14.273-.513-21.269-1.633C217.663,325.875,214.91,323.025,212.565,321.6ZM395.68,426.22c-8.646-17.38,1.222-30.992,8-45.368,2.762-5.856,6.458-8.02,13.07-7.647,10.107,0.567,20.274.03,30.414,0.174,7.288,0.1,11.713,3.972,6.884,10.253C438.679,403.619,418.873,418.165,395.68,426.22ZM480.7,285.715c-0.089,7.381-3.177,10.1-9.761,6.052-10.155-6.239-20.256-12.62-29.862-19.617-2.211-1.612-3.771-6.29-3.145-9.013,2.459-10.69,5.772-21.205,9.042-31.7,2.214-7.114,7-7.866,11.183-2.2A120.9,120.9,0,0,1,480.7,285.715Zm-285.68,1.318c-4.127-7.519-8.436-16.342-13.66-24.614-5.278-8.357-11.463-16.165-17.3-24.284,7.956-7.58,15.937-15.181,26.188-24.945,5.528,6.255,11.884,12.964,17.566,20.181a10.691,10.691,0,0,1,1.752,8.445C205,257.083,199.865,272.191,195.022,287.033ZM386.466,181.361c-12.553,8.633-23.4,16.4-34.651,23.57-2.163,1.381-6.652,1.655-8.738.374-10.144-6.234-19.927-13.044-29.647-19.907-5.5-3.882-5.715-7.918,1.511-9.787a123.85,123.85,0,0,1,63.333-.052C380.923,176.254,383.042,178.866,386.466,181.361Zm-7.189,212.132c-19.215-14.609-37.256-28.328-56.074-42.632,17.086,0,34.539-1.5,51.554.506,12.169,1.439,17.656,16.81,12.173,27.521C384.458,383.719,381.893,388.506,379.277,393.493ZM211.435,287.312c4.829-13.529,10.333-29.31,16.21-44.957,0.743-1.976,3.465-4.529,5.231-4.5,1.86,0.027,3.722,2.787,5.48,4.457a5.123,5.123,0,0,1,.93,1.978c3.234,8.855,11.555,20.181,8.584,26.043-5.666,11.181-17.683,19.342-27.332,28.483-1.167,1.107-5.5,1.239-5.793.632C213.4,296.678,212.972,293.482,211.435,287.312ZM203.1,201.019c6.054-6.25,13.727-14.176,21.652-22.361l20.058,15.1c-8.142,9.263-16.073,18.285-24.9,28.334C214.194,214.926,208.516,207.805,203.1,201.019Z"/>
</svg>
