<?xml version="1.0" encoding="utf-8"?>
<!-- Generator: Adobe Illustrator 23.0.1, SVG Export Plug-In . SVG Version: 6.00 Build 0)  -->
<svg version="1.1" id="Layer_1" xmlns="http://www.w3.org/2000/svg" xmlns:xlink="http://www.w3.org/1999/xlink" x="0px" y="0px"
	 viewBox="0 0 512 512" style="enable-background:new 0 0 512 512;" xml:space="preserve">
<style type="text/css">
	.st0{fill:#FFFFFF;}
</style>
<path class="st0" d="M90.3,304.1c12.1,0,23.5-0.7,34.7,0.4c3.4,0.4,7.4,5.3,9.3,9.1c49.7,99.4,183,116.9,256.6,33.7
	c42.5-48.1,50.4-119.1,19.5-176c-30.6-56.3-95.2-89.5-155.9-80.3c-67.4,10.3-119.6,58.2-132.7,121.7c-0.8,4-1.1,8.2-1.7,13.6
	c22.5,0,44.3,0.2,66.1-0.3c2.6-0.1,5.9-4.2,7.5-7.1c7.4-13.6,14.4-27.5,21.2-41.4c4-8.1,9.4-13.9,18.9-14c10-0.2,15.5,5.9,19.8,14.3
	c13.2,26,26.8,51.7,40.3,77.6c1.7,3.3,3.6,6.5,5.9,10.8c5.3-10.2,10.2-19.2,14.7-28.3c4.1-8.4,10.6-12.6,19.8-12.6
	c11.7-0.1,23.5-0.3,35.2,0.1c12.8,0.5,20.6,8.3,20.4,19.6c-0.3,11.3-8.4,19.8-21.3,18.1c-19.9-2.7-30.8,5.1-36.8,23.5
	c-3,9.2-8.8,17.6-13.2,26.4c-3.9,7.9-8.9,14.1-18.7,14.2c-9.8,0.1-14.9-5.9-18.9-13.8c-13.5-26.3-27.1-52.4-40.6-78.6
	c-1.7-3.3-3.6-6.6-6.2-11.4c-5.3,10.1-10.2,18.9-14.6,27.9c-4.3,8.8-10.9,12.8-20.8,12.8c-47.4-0.2-94.7,0-142.1-0.1
	c-13.6,0-22-7.9-21.7-19.4c0.3-11,8.4-18,21.6-18.4c23.7-0.8,23.7-0.8,28.5-23.2c19.4-91,103.7-155,198.9-150.9
	c90.8,3.8,169.9,76.7,181,166.8c15,121.5-78.9,224-201,219.3c-74.8-2.9-145.3-54.3-170.9-124.5C92,310.8,91.3,307.9,90.3,304.1z"/>
</svg>
