<svg xmlns="http://www.w3.org/2000/svg" width="512" height="512" viewBox="0 0 512 512">
  <defs>
    <style>
      .cls-1 {
        fill: #fff;
        fill-rule: evenodd;
      }
    </style>
  </defs>
  <path class="cls-1" d="M422.5,407.058c-17.579-7.051-33.913-13.922-50.549-20-3.242-1.184-8.23-.3-11.436,1.4-13.41,7.117-26.185,15.413-39.753,22.2-5.335,2.668-7.263,5.832-7.909,11.052-1.847,14.912-4.091,29.778-5.818,44.7-0.589,5.088-2.86,6.608-7.879,6.578-29.112-.175-58.227-0.221-87.339.015-5.754.046-7.466-2.172-8.055-7.4-1.681-14.929-3.464-29.874-6.153-44.646-0.665-3.652-4.264-7.708-7.654-9.8-12.646-7.8-25.993-14.52-38.591-22.392-4.651-2.907-7.914-4.082-13.365-1.711-15.942,6.936-32.259,13.04-49.5,19.9C80.124,392.867,71.754,379.005,63.643,365c-3.132-5.408-6.16-9.633-13.275-11.458-9.614-2.465-14.239-13.477-11.654-23.275,2.336-8.854,11.882-15.219,21.447-14.3,9.969,0.958,19.6,9.674,17.447,19.075-2.725,11.911,3.5,19.725,8.523,28.549,3.485,6.119,7.193,12.116,11.032,18.554,15.472-6.211,30.314-12.531,45.484-17.968,3.205-1.149,8.729-.363,11.285,1.746,16.223,13.39,33.984,24.007,54.117,30.481,5.274,1.7,7.4,4.436,8.052,9.575,1.957,15.492,4.26,30.942,6.5,46.951h31.94V374.815c-7.094-.974-14.179-1.707-21.169-2.95-23.414-4.16-43.417-14.883-61-30.456a22.567,22.567,0,0,0-10.417-4.729c-10.98-2.064-18.688-11.171-17.449-21.5a20.059,20.059,0,0,1,21.4-17.738c10.622,0.583,19.942,9.73,18.645,20.24-0.8,6.5,2.034,9.5,6.234,12.956,18.34,15.07,39.383,22.819,63.972,23.684V325.617c-2.784-.6-5.714-1.361-8.692-1.834-30.99-4.929-50.26-22.634-59.334-51.814-0.814-2.618-3.662-6.574-5.625-6.609-25.283-.448-50.577-0.3-76.1-0.3-0.919,7.452.139,12.131,7.1,15.8,9.806,5.163,12.234,17.32,6.741,26.471a20.331,20.331,0,0,1-26.1,7.773c-9.7-4.572-13.586-15.5-9.637-25.828a33.906,33.906,0,0,0,2.206-11.358c0.235-14.976.416-29.97-.166-44.929-0.151-3.886-2.1-8.89-5.007-11.285-13.4-11.028-27.435-21.315-42.14-32.555q12.081-20.622,24.108-41.145c3.274-5.582,6.97-10.97,9.721-16.788A23.11,23.11,0,0,0,74.049,120.2C73.2,107.988,80.091,98.314,91.434,96.794c9.469-1.27,19.893,5.711,22.076,14.783,2.728,11.338-3.6,20.783-15.715,24.285-2.976.861-6.52,2.666-8.03,5.1C81.156,154.821,73.084,169,64.288,184c12.551,9.633,24.79,19.5,37.578,28.622,5.439,3.88,6.839,7.618,5.015,13.9-1.665,5.739-1.766,11.915-2.7,18.989,26.341,0,51.63.129,76.912-.255,1.914-.029,4.824-3.406,5.495-5.721,8.986-31.022,29.394-49.043,62.149-53.016,5.088-.617,7.03-2.381,6.758-7.485-0.389-7.287-.1-14.608-0.1-22.8-31.089.968-55.884,12.344-75.463,34.534-1.356,1.537-1.129,4.939-.753,7.341,1.942,12.41-3.981,21.786-15.677,24.314-10.085,2.181-20.769-4.076-23.361-13.681-2.984-11.055,3.089-21.016,14.972-25.06,2.764-.94,5.862-2.244,7.688-4.325,22.77-25.932,51.254-40.539,86.225-42.618a24.144,24.144,0,0,0,3.716-.492A9.75,9.75,0,0,0,254.86,135V57.769H222.6c-1.925,13.8-4.171,27.63-5.676,41.537-0.9,8.289-3.361,13.782-12.7,16.29-8.6,2.311-16.587,7.009-24.625,11.074-6.937,3.509-12.662,7.435-14.149,16.581-1.518,9.345-12.885,14.308-23.187,12.271-9.014-1.784-16.039-11.059-15.453-20.4,0.613-9.785,9.045-19.169,18.789-18.007,9.377,1.117,15.963-2.516,22.945-7.006,3.129-2.012,6.341-4.569,9.842-5.243,17.821-3.429,20.821-16.148,21.725-31.012a221.376,221.376,0,0,1,4.13-30.053c0.492-2.445,4.355-6.018,6.712-6.05q44.6-.619,89.211.009c2.29,0.033,6.1,3.77,6.521,6.23,2.5,14.5,4.407,29.1,6.069,43.72,0.729,6.413,3.434,9.777,9.666,12.777,13.113,6.313,25.263,14.524,38.12,21.394,3.219,1.72,8.189,2.8,11.385,1.624,16.881-6.192,33.454-13.2,50.63-20.121L473,189.1c-13.43,10.229-26.407,20.686-40.04,30.242-6.466,4.532-7.984,9.367-7.5,16.915,0.87,13.7.413,27.516-.137,41.259-0.2,5.1.76,8.344,5.182,11.555,14.066,10.215,27.688,21.019,42.361,32.27ZM205.25,254.652a49.672,49.672,0,0,0,48.9,50.112c28.2,0.472,51.059-21.057,51.516-48.522,0.46-27.62-21.477-50.137-49.42-50.726A49.912,49.912,0,0,0,205.25,254.652Z"/>
</svg>
