<svg xmlns="http://www.w3.org/2000/svg" width="512" height="512" viewBox="0 0 512 512">
  <defs>
    <style>
      .cls-1 {
        fill: #fff;
        fill-rule: evenodd;
      }
    </style>
  </defs>
  <path class="cls-1" d="M189.905,179.148l-19.634,10.838c3.508,2.714,5.91,4.867,8.592,6.58,4.447,2.841,5.651,6.884,5.8,11.906a58.246,58.246,0,0,0,1.922,14.163c2.86,10.047-1.466,17.617-11.927,18.763-7.845.858-11.574,5.012-13.912,12.305-2.374,7.4-4.307,15.506-11.347,20.334a9.469,9.469,0,0,1-6.293,1.277c-4.445-.713-8.76-2.2-13.162-3.224-5.347-1.243-16.134,6.227-16.339,11.785-0.066,1.8,1.918,4.585,3.665,5.384,4.98,2.277,10.31,3.795,15.525,5.544,1.735,0.583,3.539.962,6.655,1.793-10.8,4.489-20.395,8.6-30.125,12.375-1.164.452-3.237-.6-4.536-1.482-7.126-4.816-10.408-12.233-12.945-20.036a98.137,98.137,0,0,1-2.69-10.519c-1.492-7.234-5.641-12-11.926-15.978-6-3.8-11-9.186-16.344-13.8-1.6,24.4,2.988,48.624,13.456,72.587L51.55,327.7c-28.963-61.71-19.54-151.28,48.395-208.656a174.54,174.54,0,0,1,84.8-39.421A181.084,181.084,0,0,1,277.5,87.9c30.311,10.879,55.777,28.895,76.728,53.9,0.542-3.087.131-6.377,1.537-7.639a60.83,60.83,0,0,1,12.036-7.952c1.049-.562,3.218.568,4.7,1.278,19.429,9.3,38.79,18.747,58.289,27.895a9.378,9.378,0,0,0,7.015,0c9.868-4.517,19.44-9.68,29.318-14.172a40.554,40.554,0,0,1,13.256-3.824c10.235-.8,15.443,6.893,11.075,16.311a20.762,20.762,0,0,1-7.31,8.391c-10.615,6.718-21.514,13-32.49,19.121-2.6,1.447-3.658,2.826-3.905,5.8-1.656,19.956-3.615,39.886-5.313,59.839-0.322,3.784-1.541,6.3-5.215,7.956-4.336,1.949-8.363,4.586-13.1,7.25,0.441-4.76.8-8.89-3.419-9.218-2.17-17.882-4.27-35.2-6.472-53.346-10.575,5.39-19.887,11.113-29.909,15-12.822,4.974-20.164,13.579-25.252,26.25-2.418,6.023-10.168,9.9-15.5,14.749l-1.3-1.092c0.756-9.757,1.365-19.53,2.355-29.264,0.316-3.1-.573-4.635-3.279-6.052-8.217-4.3-16.276-8.911-24.934-13.7,4.907-3.179,9.177-6.072,13.6-8.713,1-.6,2.523-0.439,3.8-0.4a5.791,5.791,0,0,1,2.457.748c11.211,6.068,21.356,4.645,32.006-2.451,9.989-6.656,21.149-11.551,32.514-17.6-1.521-1.556-2.707-2.884-4.009-4.084-9.265-8.543-18.747-16.861-27.743-25.677-3.8-3.727-7.576-4.894-12.058-3.4,7.642,12.907,15.335,25.9,23.567,39.8-12.718,4.6-22.007,14.429-35.555,13.691a24.014,24.014,0,0,1-7.861-1.857c-9.678-4.083-15.643-2.9-22.893,4.471-11.117,11.3-25.365,12.492-40,11.678-2.416-.134-4.72-2.269-8.259-4.088,3.054-.777,4.65-1.147,6.225-1.591,5.487-1.544,7.743-4.381,7.723-10.086-0.009-2.754-.514-5.5-0.613-8.26-0.368-10.252,7.611-16.414,17.445-13.271,3.751,1.2,7.259,3.15,10.9,4.716,7.2,3.1,14.167,3.643,18.72-6.25,1.949-4.234,6-7.5,9.661-11.9-16.321-21.023-37.781-37.315-64.238-48.213a30.439,30.439,0,0,0,.493,3.839c1.718,6.24.821,10.99-5.2,15.092-10.4,7.082-14.8,18.293-17.9,30.007-3.383,12.759-7.162,14.033-17.525,5.762-1.885-1.5-3.975-2.936-5.369-4.842-6.641-9.083-15.488-14.63-26.1-18.106a41.624,41.624,0,0,1-13.468-7.5c-3.373-2.826-5.7-7.033-8.071-10.891-2.962-4.827-5.344-10.013-8.325-14.828a4.679,4.679,0,0,0-4.174-1.526A149.748,149.748,0,0,0,116.4,137.411c10.613,1.346,20.936,2.583,31.237,3.981,11.745,1.594,20.033,8.008,26.422,17.938C178.452,166.162,184.205,172.119,189.905,179.148ZM78.036,370.139c7.869-2.256,15.708-4.67,23.66-6.625,1.337-.329,3.4,1.024,4.719,2.105,8.478,6.973,16.841,14.086,25.951,21.75,1.66-12.773,3.3-24.085,4.494-35.444,0.324-3.076,1.385-4.292,4.219-5.3,17.675-6.3,35.257-12.869,52.89-19.289a52.915,52.915,0,0,1,5.839-1.381c-1.633,6.359-4.469,8.281-11.356,8.065-5.242-.164-10.281-0.143-14.751,3.339-3.153,2.457-4.386,5.015-3.958,9.273a22.948,22.948,0,0,1-2.049,11.386c-6.175,13.348-16.249,23.417-29.086,32.071,36.516,20.238,74.347,24.888,114.269,15.574a43.615,43.615,0,0,0-3.448-24.046c-2.663-5.794-5.21-11.641-7.846-17.448a17.867,17.867,0,0,1,.091-15.491,152.787,152.787,0,0,1,24.886-39.16c4.923-5.526,11.126-8.919,19.19-8.291,7.418,0.578,10.2-1.893,11.3-8.345,0.64-3.781.64-3.781-7.874-9.271a38.806,38.806,0,0,1,3.3-2.234c11.392-6.106,22.755-12.275,34.271-18.14,1.525-.777,3.869-0.034,5.817.164a7.919,7.919,0,0,1,1.805.971c7.334,3.114,23.922-5.451,26.847-12.864,2.886-7.311,6.063-15.017,11.112-20.8,4.026-4.613,11.059-6.595,17.686-10.258a174.211,174.211,0,0,1-3.674,85.465c-13.891,46.634-42.1,82.314-84.481,106.163C220.278,457.977,124.76,430.266,78.036,370.139ZM37.873,317.226a75.165,75.165,0,0,0-3.631,7.363c-2.087,5.644.1,9.786,6.06,10.544,4.38,0.557,9.154.919,13.324-.214,83.44-22.682,163.963-52.68,238.837-96.584,10.106-5.926,19.887-12.43,29.6-18.99,3.111-2.1,5.7-2.815,8.822-.6a8.782,8.782,0,0,0,1.407.645c9.2,4.292,10.233,6.614,7.01,16.463a6.137,6.137,0,0,1-2.452,3.011c-68.173,42.351-137.608,82.275-213.625,109.207-22.639,8.02-45.768,14.145-70.1,14.176-10.62.014-19.49-4.038-27.112-11-7.044-6.431-8.019-14.1-2.294-21.735,3.719-4.962,8.574-9.071,12.92-13.562ZM236.663,203.57c0.728,0.748,2.683,1.892,2.967,3.36,0.186,0.96-1.977,2.473-3.239,3.564-0.43.371-1.358,0.1-2,.309-2.581.86-5.787,2.556-6.676-1.494-0.857-3.906,2.922-4.367,5.626-5.26A26.589,26.589,0,0,1,236.663,203.57Zm-29.241,37.088c-1.528,1.393-2.423,2.673-3.645,3.21a14.025,14.025,0,0,1-5.393,1.211c-1.315.011-3.57-.676-3.749-1.441-0.307-1.313.3-3.883,1.194-4.237a26.2,26.2,0,0,1,8.279-1.578C205,237.778,205.966,239.354,207.422,240.658Z"/>
</svg>
