<?xml version="1.0" encoding="utf-8"?>
<!-- Generator: Adobe Illustrator 23.0.1, SVG Export Plug-In . SVG Version: 6.00 Build 0)  -->
<svg version="1.1" id="Layer_1" xmlns="http://www.w3.org/2000/svg" xmlns:xlink="http://www.w3.org/1999/xlink" x="0px" y="0px"
	 viewBox="0 0 512 512" style="enable-background:new 0 0 512 512;" xml:space="preserve">
<style type="text/css">
	.st0{fill:#FFFFFF;}
</style>
<g>
	<path class="st0" d="M300.2,96.2c21.3,0,42.6,0.2,63.9-0.1c9.6-0.1,18.1,2.5,25.4,8.6c12.4,10.3,22.8,22.3,27.3,38
		c5.3,18.7,15.4,33.7,30.8,45.4c3,2.3,5.6,5.2,8.5,7.7c21.7,19.6,18.3,51.7,1.6,68.5c-5.6,5.7-11.2,11.4-16.8,17.1
		c-7.7,7.9-13.7,16.6-16.2,27.6c-3.6,15.7-13.9,27-26.4,35.8c-15.1,10.5-31,20-47.2,28.9c-18.4,10.1-37.5,18.7-56.1,28.3
		c-18.2,9.4-37.1,16.2-57.4,19.5c-24.6,4-49,9.5-73.7,12.8c-19,2.6-38.2,1.8-56.5-6c-9.2-3.9-16.8-10-23.5-17.3
		C74,400.3,73,387,73.9,373.5c1.2-18.9,3.3-37.8,4.9-56.7c2-22.7,0.4-44.7-10.5-65.6c-4.2-8.1-7.4-17.2-9-26.2
		c-3-16.5,1-31.4,14-43.1c2.7-2.4,5.3-5.1,7.9-7.7c8.3-8.3,12.4-18.5,12-30.2c-0.1-4,1.3-6.4,4.2-8.8c20-16.7,43.5-25.5,68.5-30.8
		c37.2-8,75-8.5,112.8-8.3C285.9,96.2,293.1,96.2,300.2,96.2C300.2,96.2,300.2,96.2,300.2,96.2z M296.6,115.2
		c-51.5-1.9-86.7-0.2-120.5,6c-21.9,4-42.9,10.9-61,24.5c-1.9,1.5-3.6,4.4-3.8,6.8c-1.3,11.6-5,22.1-12.6,30.9
		c-4.2,4.9-9,9.3-13.8,13.8c-4.1,3.9-6.7,8.4-8,14c-2.5,11.2,0.8,21.2,6,30.6c14.4,25.9,16.8,53.6,13.6,82.3
		c-1.9,16.9-3.2,33.8-5.1,50.7c-1.8,16.2,5.2,27.3,18.9,34.8c3.7,2.1,7.9,3.5,12.1,4.6c15.2,3.9,30.8,3.7,46.1,1.4
		c18.4-2.7,36.7-6.2,55-9.7c18.6-3.5,37.2-7.3,54.3-16.1c22.8-11.6,45.9-22.8,68.8-34.3c15.8-7.9,31.2-16.5,44.6-28.3
		c7.2-6.4,13-13.7,15.8-23.2c4.5-15.2,13.3-27.8,24.8-38.7c4.5-4.2,8.9-8.6,13.2-13c10.2-10.5,12.9-31.1-1.5-43.9
		c-5.4-4.8-10.5-9.7-15.9-14.5c-12.1-10.8-20.9-23.6-25.3-39.3c-4-14.6-12.2-26.6-24.4-35.6c-3.2-2.4-7.8-4-11.8-4
		C342.9,115,319.8,115.2,296.6,115.2z"/>
	<path class="st0" d="M378.4,237.7c0-3.5-0.1-6.8,0-10.1c0.3-5.7,3.8-9.1,9.1-9.2c5.1,0,8.5,3.1,9.2,8.6c0.1,0.5,0.2,1,0.1,1.5
		c-2.4,10.3,3,15.3,12,18.6c6.1,2.2,7.3,6.1,5.3,11.4c-2.4,6.5-6.1,7.9-12.5,5c-0.8-0.4-1.5-0.7-2.3-1c-0.3-0.1-0.6,0-1.6,0.1
		c0,3.4,0.5,6.9-0.1,10.3c-0.6,3.1-1.8,6.5-3.7,8.9c-6,7.5-13.3,14-18.8,21.9c-29.2,42.3-70.4,64-120.3,70.2
		c-21.6,2.7-43.4,3.3-65.2,3.9c-8.9,0.2-18-1.1-26.6-3.3c-32.2-8.1-48.8-30.6-48.2-63.8c0.3-16.1,3-31.7,6.8-47.3
		c1.4-5.6,1.7-11.4,2.5-17.2c0.9-6.2,4.6-9.5,10.4-8.9c5,0.5,8.3,4.5,8,10.2c-0.8,12.5,5.2,21,15.5,26.8c13.9,7.9,29.3,9.4,44.9,9.9
		c39.6,1.1,77.3-7.5,113.6-22.7c15.8-6.6,31.6-13.1,47.5-19.4C368.4,240.3,373.2,239.3,378.4,237.7z M251.5,329.9
		c0.5,7.7,1.1,16.6,1.7,26c16.8,0.4,31.5-5.3,46.3-11c-3.4-9.8-6.6-18.9-9.6-27.5C277.9,321.3,265.4,325.4,251.5,329.9z
		 M308.8,340.5c13-6.7,23.9-14.6,33.3-24.3c0.8-0.8,1.8-2,1.7-2.8c-0.9-5-2.1-9.9-2.9-13.9c-12.1,4.5-23.8,9.2-35.7,13.1
		c-4.2,1.4-5.8,3.5-4.5,7.1C303,326.5,305.9,333.2,308.8,340.5z M242.3,332.5c-10.6,1.1-20.7,2.1-31.2,3.2c1.2,8,2.4,15.8,3.6,23.7
		c8.4,0,16.7,0,24.9,0c2.8,0,4.1-1.4,3.8-4.4C243,347.5,242.7,340,242.3,332.5z M246.6,300.5c0,4,0,7.9,0,11.7
		c14.6,1.4,28.1-1.8,41.5-6.7c-0.6-4.6-1.2-9-1.8-13.5C272.6,294.9,259.6,297.7,246.6,300.5z M340.3,271.5
		c-15.6,6.1-30.7,12-46,17.9c0.7,3.9,1.4,7.6,2.1,11.6c4.7-1.5,9.1-2.7,13.5-4.3c6.2-2.3,12.6-4.3,18.5-7.3
		C335.3,285.8,339.2,279.8,340.3,271.5z M181,337.3c2,4.6,4.7,9.1,6,14c1.6,6.2,5.2,8.1,11.3,8.4c9.8,0.6,11.1-0.6,8.2-9.9
		C202.6,337.2,192.7,332.1,181,337.3z M349.8,281.1c18.8-1.7,26.5-9.6,22.5-23.2c-6.6,2.6-13.3,5.1-19.8,8c-1.2,0.5-2.5,2.3-2.6,3.5
		C349.6,273.1,349.8,276.9,349.8,281.1z M167.2,310.8c10.8,0.9,21.2,1.7,31.9,2.6c0-4.4,0-7.5,0-10.6c-9.7-1.2-19.2-2.5-28.7-3.7
		C169.4,302.7,168.5,306,167.2,310.8z M237.1,301.4c-9.6,0.5-18.6,0.9-27.9,1.4c-0.2,3.5-0.3,6.4-0.5,9.2c9.8,0,19,0,28.4,0
		C237.1,308.4,237.1,305.2,237.1,301.4z M158.9,333.8c0.2,2.2,0.1,2.9,0.3,3.5c2,5.5,7.6,9.5,6.4,16.3c-0.1,0.3,0.9,1,1.5,1.2
		c3.9,1,7.7,1.9,12,2.9c0.1-1.9,0.4-2.7,0.2-3.2c-1.4-3.5-2.7-7.1-4.3-10.6c-1.3-2.7-0.6-6.8-5.5-7.1
		C166.2,336.5,163,335,158.9,333.8z M161.1,296.1c-4.7-2.1-9.5-4.3-15.5-7c1,7,1.8,13,2.7,18.7c3.8,0.9,7.3,1.7,10.4,2.4
		C159.5,305.5,160.2,301.2,161.1,296.1z M144.6,331.4c-0.5,0.2-1,0.4-1.6,0.6c1,3.7,2.5,7.4,2.9,11.3c0.7,5.2,3.6,8.4,10,9.2
		C153.6,344.4,152.3,336.2,144.6,331.4z M137.6,283.1c-3,8.4-3.4,18.1-0.8,20.3C140.9,294,141.2,285.6,137.6,283.1z"/>
	<path class="st0" d="M217.5,256.7c-1.4,6.8-5.7,10.2-11.4,7.7c-5.8-2.5-11-6.6-16.2-10.4c-2.8-2-5-4.8-7.6-7.3
		c-2.3,1.4-4.6,2.8-7.4,4.6c-0.8-7-4.8-7-9.6-5.9c-3,0.7-6.2,0.6-10.7,1c1.7-1.3,2.3-1.9,3-2.3c13.2-8.4,26.4-16.7,39.5-25.2
		c1.2-0.8,2-2.8,2.4-4.4c0.4-1.9,0.1-4,0.1-6c0-8.6-0.3-9.9-9-11.2c-11.5-1.7-23.2-2-34.7-3.2c-7.2-0.7-14.3-2-22.1-3.1
		c2.9-8.6,7.9-13.4,14.7-16.4c9.2-4.1,18.8-4,28.4-1.8c11.5,2.5,22.3,6.8,30.6,15.7c0.8,0.9,2.5,1,3.9,1.2c1,0.1,2-0.4,3-0.3
		c2.7,0.4,7.4,0.5,7.7,1.6c1,4-2.7,5.5-5.9,6.7c-8.9,3.5-8.3,2.5-7.4,11.4c1,10.4-2.3,16.7-11.5,22c-9.8,5.7-11.7,8.3-0.4,18
		C202.6,254,207.3,255.4,217.5,256.7z M154.9,182c0.1,0.8,0.1,1.7,0.2,2.5c5.1-0.3,10.3-0.6,15.4-1c-0.1-0.8-0.1-1.7-0.2-2.5
		C165.1,181.4,160,181.7,154.9,182z"/>
	<path class="st0" d="M337.6,189.9c-21-1.3-38.7,4.3-56,12.4c-1.8,0.9-3.6,1.8-5.4,2.6c-8.1,3.9-9.9,3.5-16.1-3.3
		c-5-5.5-5.7-11.8-1.8-17.8c5.3-8,13.3-12.4,21.9-15.8c19.6-7.9,39.7-7.7,59.8-2.4c8.2,2.2,14.7,7,17.8,15.4c2,5.2,1.2,7-4.4,7.8
		C347.7,189.5,341.8,189.6,337.6,189.9z M302,185.5c-0.8-3.9-1.1-7.1-2.1-10c-0.5-1.3-2.8-3.3-3.6-3c-7.5,2.9-15.2,5.8-22.3,9.7
		c-5,2.8-7.1,8-6.8,14.1C280.8,198.5,288.5,183.9,302,185.5z M348,179.9c-1.2-5.1-4.4-6.8-8.4-7.2c-1.2-0.1-2.5,0.8-3.8,1.3
		c0.8,1.3,1.4,3.3,2.6,3.7C341.2,178.7,344.3,179.1,348,179.9z"/>
	<path class="st0" d="M312.3,199.2c3.3,1.4,5.5,2,7.5,3.1c19.4,11,38.3,8,56.8-2.3c1.6-0.9,3.1-2,4.5-3.2
		c10.7-9.1,22.4-8.1,34.2-2.9c11.9,5.3,17.5,15.4,18.9,28c1,8.7,0.7,17-8.6,22.6c0-5.3,0.6-10.3-0.2-15.1
		c-1.1-6.3-2.2-12.9-5.1-18.5c-6.5-12.1-21.2-15.1-32.3-7.1c-17.3,12.4-36.4,16.7-57.1,12C322.5,214,315.2,209.9,312.3,199.2z"/>
	<path class="st0" d="M160.8,209.3c0.7,9-3.3,14.8-11.3,16.7c-3,0.7-6.2,0.9-9.4,1.1c-3.4,0.2-6.1,0.2-8.6-3.7
		c-1.8-2.9-6.8-4.8-10.5-5.2c-7.9-0.8-15.9-0.2-24.4-0.2c2.3-5.7,6.9-7.6,11.7-8.4c11.2-1.9,22-0.1,31.4,6.6
		c3.2,2.3,5.2,1.8,7.8-0.3C151.3,212.8,155,209.3,160.8,209.3z"/>
	<path class="st0" d="M265,253.7c2-1.9,4.3-3.6,6.1-5.7c1.5-1.8,3.9-4.6,3.4-6.1c-0.7-2.1-3.5-4.1-5.8-4.8
		c-3.9-1.1-8.1-1.1-12.2-1.6c1.4-6.8,5.6-8.7,14.1-7.2c12,2.2,14.7,6.6,12.5,20.2C282.2,254.8,277.6,256.5,265,253.7z"/>
	<path class="st0" d="M227.9,251.2c2.3-1.2,4.5-3.4,6.8-3.5c5.9-0.4,11.9,0.1,17.8,0.3c2.9,0.1,3.8,2.2,3.1,4.4
		c-0.4,1.3-2.6,2.9-3.9,2.9c-7.7-0.2-15.4-0.9-23.1-1.5C228.3,252.9,228.1,252.1,227.9,251.2z"/>
</g>
</svg>
