<?xml version="1.0" encoding="utf-8"?>
<!-- Generator: Adobe Illustrator 23.0.1, SVG Export Plug-In . SVG Version: 6.00 Build 0)  -->
<svg version="1.1" id="Layer_1" xmlns="http://www.w3.org/2000/svg" xmlns:xlink="http://www.w3.org/1999/xlink" x="0px" y="0px"
	 viewBox="0 0 512 512" style="enable-background:new 0 0 512 512;" xml:space="preserve">
<style type="text/css">
	.st0{fill:#FFFFFF;}
</style>
<path class="st0" d="M181.7,322.3c-22.2,0-42.2,0.1-62.1,0c-25.6-0.2-41.3-15.9-41.4-41.5c-0.1-31.1,0-62.2,0-93.2
	c0-30.7,14.3-45.1,45.2-45.3c2.7,0,5.4,0,10,0C115,120.9,110.8,99,125,76.1c10.9-17.6,27.8-25.7,48.4-23.5c23.9,2.6,38.4,17,46,42.1
	c6.3-18.9,16-32.8,33.5-39.1c17.4-6.3,33.8-4.1,48.8,6.8c25.1,18.3,27.4,48.2,5,79.8c31.1-2.3,52.8,7.4,55.2,43.1
	c15-7.5,29-15.6,44-21.5c8.9-3.4,19.5-5.4,28.8-4.1c17.3,2.6,29.1,18.2,29.3,36c0.4,24.3,0.6,48.6-0.1,72.9
	c-0.7,28.6-29.1,45.9-55.1,33.9c-15.5-7.1-30.6-15.1-46.6-23.1c-0.8,5.2-1.2,9.4-2.2,13.4c-4.5,17.7-18.9,29.2-37.4,29.4
	c-20.9,0.3-41.9,0.1-65.4,0.1c16.2,20.4,31,39,45.7,57.5c9.1,11.5,18.2,23,27.4,34.3c5.7,7,7.7,14,0.5,20.8
	c-6,5.7-13.8,3.8-20.8-5.1C283.6,397,257.3,364,231,331.1c-9.4-11.8-13.4-11.8-23,0.2c-26.3,32.9-52.5,65.9-78.8,98.8
	c-7.8,9.7-17.5,10.4-23,2.1c-4.6-7-1.4-12.8,3.1-18.4c22.3-27.9,44.5-55.8,66.7-83.8C177.5,328.1,178.9,326.1,181.7,322.3z
	 M220.7,168c-33.2,0-66.4-0.1-99.6,0c-13.1,0-17.2,4.1-17.2,17.3c-0.1,31.1,0,62.1,0,93.2c0,13.8,4.1,18,17.6,18
	c65.3,0.1,130.7,0.1,196,0c13.7,0,17.7-4.2,17.7-17.9c0-30.7,0-61.4,0-92.1c0-14.7-3.7-18.5-18.2-18.5
	C285,167.9,252.9,167.9,220.7,168z M438.2,232.3c0-10.7,0.1-21.4,0-32.1c-0.2-14.1-8.5-19.6-20.9-13.6c-16.7,8-33.3,16.2-49.7,24.8
	c-2.7,1.4-5.8,4.7-6.1,7.4c-0.8,8.9-0.6,17.8,0,26.7c0.2,2.5,2.7,5.8,5,7c17.1,8.9,34.2,17.7,51.6,25.9c11.4,5.4,19.8-0.2,20.1-12.9
	C438.4,254.4,438.2,243.4,438.2,232.3z M168.7,78c-14.3-0.2-26.1,11.2-26.1,25.4c0,14,10.8,25.3,24.6,25.8
	c14.3,0.5,26.2-10.6,26.6-24.9C194.2,90.2,182.9,78.2,168.7,78z M296.7,103c-0.3-14.2-12.2-25.5-26.5-25
	c-13.8,0.5-24.8,12-24.7,25.8c0.2,14.4,11.7,25.7,26,25.5C285.7,129.1,296.9,117.4,296.7,103z M205.2,141.4c9.7,0,19.5,0,29,0
	c-5.1-9.3-10-18-14.6-26.3C214.9,123.6,210.1,132.5,205.2,141.4z"/>
</svg>
