<svg xmlns="http://www.w3.org/2000/svg" width="512" height="512" viewBox="0 0 512 512">
  <defs>
    <style>
      .cls-1 {
        fill: #fff;
        fill-rule: evenodd;
      }
    </style>
  </defs>
  <path class="cls-1" d="M191.405,280.711c30.3-39.364,60.135-78.115,90.611-117.7,6.236,4.684,12.529,8.719,18.014,13.666,14.35,12.943,28.306,26.329,42.5,39.449,7,6.468,13.881,13.113,21.332,19.014,11.982,9.491,25.772,13.813,41.133,13.725,10.99-.063,22.013.591,32.97,1.535,10.69,0.92,18.764,6.409,23.509,16.31,10.418,21.738,12.79,45,11.009,68.575-1.113,14.737-4.031,29.4-7.046,43.908-3.246,15.614-12.021,22.4-28.034,22.831-32.043.859-63.534,6.037-95.153,10.922-32.906,5.084-65.748,3.851-97.231-9.38a36.96,36.96,0,0,0-12.362-2.624c-28.491-1.353-57-2.3-85.49-3.7-9.2-.452-18.534-1-27.479-3-19.37-4.331-26.916-14.565-25.1-32.138,1.847-17.922,13.62-29.44,31.965-29.429,22.756,0.014,45.511,1.192,68.267,1.861,11.507,0.337,23.014.63,34.519,1,5.409,0.176,6.951-1.718,5.428-7.356C229.148,307.391,214.977,291.326,191.405,280.711ZM270.446,97.3l33.13,25.881c-15.759,20.56-31.245,40.84-46.811,61.058Q205.53,250.785,154.308,317.346c-4.4,5.744-8.471,8.619-16.555,8.231-13.494-.646-27.7-1.1-38.563,10.173-8.927,9.262-12.13,20.528-12.3,34.463L70.073,357.528Zm-51.6,55.258q-50.265,65.308-100.53,130.619Q98.8,308.531,79.312,333.906c-7.2,9.426-10.3,10.794-19.236,7.955-10.308-3.274-17.622-11.659-18.2-20.732-0.8-12.577,5.532-22.521,12.97-31.226,12.383-14.491,25.372-28.544,39.017-41.827,29.119-28.345,58.3-56.737,91.976-79.7,9.968-6.8,21.014-11.984,31.565-17.91ZM52.951,396.672l13.624-33.349,30.752,25.939c-9.148,6.881-16.7,12.817-24.588,18.259-1.427.985-4.732,0.721-6.3-.313C61.878,404.2,57.758,400.507,52.951,396.672Zm222.18-304.78c8.061-12.775,20.9-16.5,31.182-9.209,11.691,8.285,12.479,24.009,1.533,34.583C297.008,108.859,286.06,100.369,275.131,91.892ZM172.275,404.881c-5.434,12.3-13.936,17.44-25.474,16.647-11.255-.775-18.787-6.976-23.309-16.647h48.783Zm13.975,1.292,47.915,2.145c-4.744,8.853-12.318,12.318-21.074,13.129C201.732,422.5,192.969,417.8,186.25,406.173ZM39,431.1l11.085-27.348,13.646,10.594L40.129,432Z"/>
</svg>
